{
.appVersion = "3120";
copyright = "Copyright 2015 The Solitreo Project Authors (https://github.com/ladinoprojects/solitreo)";
customParameters = (
{
name = panose;
value = (
0,
0,
0,
0,
0,
0,
0,
0,
0,
0
);
},
{
name = fsType;
value = (
);
},
{
name = "Disable Last Change";
value = 1;
},
{
name = "Use Typo Metrics";
value = 1;
},
{
name = "Use Line Breaks";
value = 1;
},
{
name = "Enforce Compatibility Check";
value = 0;
},
{
name = license;
value = "This Font Software is licensed under the SIL Open Font License, Version 1.1. This license is available with a FAQ at: https://scripts.sil.org/OFL";
},
{
name = licenseURL;
value = "https://scripts.sil.org/OFL";
}
);
date = "2017-03-21 06:32:22 +0000";
designer = "Nathan Gross";
designerURL = "https://documentingjudeospanish.com/";
disablesNiceNames = 1;
familyName = Solitreo;
fontMaster = (
{
alignmentZones = (
"{700, 10}",
"{520, 10}",
"{0, -10}",
"{-190, -30}"
);
ascender = 750;
capHeight = 700;
customParameters = (
{
name = hheaAscender;
value = 935;
},
{
name = hheaDescender;
value = -250;
},
{
name = hheaLineGap;
value = 0;
},
{
name = typoAscender;
value = 935;
},
{
name = typoDescender;
value = -250;
},
{
name = typoLineGap;
value = 0;
},
{
name = underlinePosition;
value = -54.6875;
},
{
name = winAscent;
value = 945;
},
{
name = winDescent;
value = 415;
},
{
name = TTFStems;
value = (
{
horizontal = 1;
name = "X: 79";
width = 79;
},
{
horizontal = 1;
name = "Y: 80";
width = 80;
},
{
horizontal = 1;
name = "Y: 160";
width = 160;
},
{
horizontal = 1;
name = "Y: 175";
width = 175;
},
{
horizontal = 1;
name = "Y: 195";
width = 195;
},
{
horizontal = 1;
name = "X: 233";
width = 233;
},
{
horizontal = 1;
name = "X: 250";
width = 250;
}
);
},
{
name = "Master Icon Glyph Name";
value = r;
}
);
descender = -225;
horizontalStems = (
79,
90
);
id = "FF2DC345-5101-49B6-97F3-57A040F7C387";
verticalStems = (
96
);
xHeight = 520;
}
);
glyphs = (
{
color = 5;
glyphname = A;
layers = (
{
anchors = (
{
name = bottom;
position = "{335, 0}";
},
{
name = ogonek;
position = "{631, 69}";
},
{
name = top;
position = "{335, 700}";
}
);
layerId = "FF2DC345-5101-49B6-97F3-57A040F7C387";
paths = (
{
closed = 1;
nodes = (
"75 -10 OFFCURVE",
"43 22 OFFCURVE",
"43 51 CURVE SMOOTH",
"43 58 OFFCURVE",
"62 105 OFFCURVE",
"100 193 CURVE",
"66 193 OFFCURVE",
"42 213 OFFCURVE",
"42 239 CURVE SMOOTH",
"42 252 OFFCURVE",
"75 269 OFFCURVE",
"141 290 CURVE",
"152 314 OFFCURVE",
"264 590 OFFCURVE",
"283 638 CURVE SMOOTH",
"298 674 OFFCURVE",
"340 704 OFFCURVE",
"375 704 CURVE SMOOTH",
"419 704 OFFCURVE",
"460 457 OFFCURVE",
"470 360 CURVE",
"489 362 OFFCURVE",
"505 367 OFFCURVE",
"519 367 CURVE SMOOTH",
"549 367 OFFCURVE",
"564 354 OFFCURVE",
"564 337 CURVE SMOOTH",
"564 324 OFFCURVE",
"535 310 OFFCURVE",
"476 293 CURVE",
"481 224 OFFCURVE",
"484 129 OFFCURVE",
"484 80 CURVE SMOOTH",
"484 -4 OFFCURVE",
"473 -10 OFFCURVE",
"452 -10 CURVE SMOOTH",
"419 -10 OFFCURVE",
"413 52 OFFCURVE",
"409 84 CURVE SMOOTH",
"404 148 OFFCURVE",
"399 211 OFFCURVE",
"394 272 CURVE",
"326 254 OFFCURVE",
"267 239 OFFCURVE",
"200 220 CURVE",
"141 67 OFFCURVE",
"107 -10 OFFCURVE",
"96 -10 CURVE SMOOTH"
);
},
{
closed = 1;
nodes = (
"284 329 OFFCURVE",
"334 339 OFFCURVE",
"387 348 CURVE",
"375 462 OFFCURVE",
"363 548 OFFCURVE",
"352 605 CURVE",
"322 536 OFFCURVE",
"284 440 OFFCURVE",
"237 316 CURVE"
);
}
);
width = 608;
}
);
leftKerningGroup = A;
rightKerningGroup = A;
unicode = 0041;
userData = {
com.typemytype.robofont.guides = (
{
angle = 0;
isGlobal = 0;
magnetic = 5;
x = 0;
y = 680;
},
{
angle = 90;
isGlobal = 0;
magnetic = 5;
x = 35;
y = 0;
},
{
angle = 90;
isGlobal = 0;
magnetic = 5;
x = 637;
y = 0;
},
{
angle = 90;
isGlobal = 0;
magnetic = 5;
x = 336;
y = 0;
}
);
};
},
{
color = 5;
glyphname = AE;
layers = (
{
anchors = (
{
name = bottom;
position = "{468, 0}";
},
{
name = top;
position = "{468, 700}";
}
);
layerId = "FF2DC345-5101-49B6-97F3-57A040F7C387";
paths = (
{
closed = 1;
nodes = (
"86 -6 OFFCURVE",
"138 124 OFFCURVE",
"193 259 CURVE",
"214 261 OFFCURVE",
"368 285 OFFCURVE",
"398 289 CURVE",
"367 190 OFFCURVE",
"352 122 OFFCURVE",
"352 86 CURVE SMOOTH",
"352 38 OFFCURVE",
"406 -4 OFFCURVE",
"467 -4 CURVE SMOOTH",
"604 -4 OFFCURVE",
"791 60 OFFCURVE",
"791 108 CURVE SMOOTH",
"791 122 OFFCURVE",
"786 129 OFFCURVE",
"777 129 CURVE SMOOTH",
"718 129 OFFCURVE",
"570 80 OFFCURVE",
"471 80 CURVE SMOOTH",
"452 80 OFFCURVE",
"443 91 OFFCURVE",
"443 113 CURVE SMOOTH",
"443 125 OFFCURVE",
"460 188 OFFCURVE",
"494 302 CURVE",
"704 328 OFFCURVE",
"744 337 OFFCURVE",
"744 357 CURVE SMOOTH",
"744 378 OFFCURVE",
"718 388 OFFCURVE",
"665 388 CURVE SMOOTH",
"636 388 OFFCURVE",
"586 384 OFFCURVE",
"516 377 CURVE",
"543 470 OFFCURVE",
"556 578 OFFCURVE",
"554 612 CURVE",
"757 612 OFFCURVE",
"832 624 OFFCURVE",
"832 647 CURVE SMOOTH",
"832 668 OFFCURVE",
"788 686 OFFCURVE",
"535 686 CURVE SMOOTH",
"462 686 OFFCURVE",
"292 681 OFFCURVE",
"258 627 CURVE SMOOTH",
"196 529 OFFCURVE",
"19 59 OFFCURVE",
"18 46 CURVE SMOOTH",
"17 21 OFFCURVE",
"34 -6 OFFCURVE",
"65 -6 CURVE SMOOTH"
);
},
{
closed = 1;
nodes = (
"342 356 OFFCURVE",
"276 346 OFFCURVE",
"225 335 CURVE",
"289 489 OFFCURVE",
"328 573 OFFCURVE",
"342 588 CURVE SMOOTH",
"351 599 OFFCURVE",
"393 606 OFFCURVE",
"470 610 CURVE",
"468 551 OFFCURVE",
"452 469 OFFCURVE",
"421 366 CURVE"
);
}
);
width = 831;
}
);
leftKerningGroup = AE;
rightKerningGroup = E;
unicode = 00C6;
userData = {
com.typemytype.robofont.guides = (
{
angle = 0;
isGlobal = 0;
magnetic = 5;
x = 0;
y = 505;
},
{
angle = 90;
isGlobal = 0;
magnetic = 5;
x = 431;
y = 0;
}
);
};
},
{
color = 5;
glyphname = B;
layers = (
{
anchors = (
{
name = bottom;
position = "{335, 0}";
},
{
name = top;
position = "{335, 700}";
}
);
hints = (
{
horizontal = 1;
place = "{0, 0}";
type = Tag;
}
);
layerId = "FF2DC345-5101-49B6-97F3-57A040F7C387";
paths = (
{
closed = 1;
nodes = (
"325 -3 OFFCURVE",
"575 91 OFFCURVE",
"575 234 CURVE SMOOTH",
"575 299 OFFCURVE",
"493 352 OFFCURVE",
"373 359 CURVE",
"502.333 399 OFFCURVE",
"571 467 OFFCURVE",
"571 547 CURVE SMOOTH",
"571 643 OFFCURVE",
"466 695 OFFCURVE",
"279 695 CURVE SMOOTH",
"218 695 OFFCURVE",
"134 681 OFFCURVE",
"134 653 CURVE SMOOTH",
"134 634 OFFCURVE",
"160 594 OFFCURVE",
"198 594 CURVE",
"196 418 OFFCURVE",
"98 189 OFFCURVE",
"98 138 CURVE SMOOTH",
"98 115 OFFCURVE",
"118.333 85.333 OFFCURVE",
"137 76 CURVE",
"76 76 OFFCURVE",
"45 120 OFFCURVE",
"23 120 CURVE SMOOTH",
"14 120 OFFCURVE",
"5 111 OFFCURVE",
"5 99 CURVE SMOOTH",
"5 43 OFFCURVE",
"90 -3 OFFCURVE",
"158 -3 CURVE SMOOTH"
);
},
{
closed = 1;
nodes = (
"267.333 469 OFFCURVE",
"279 523 OFFCURVE",
"279 542.5 CURVE SMOOTH",
"279 561 OFFCURVE",
"269.667 580 OFFCURVE",
"251 600 CURVE",
"285 607 OFFCURVE",
"325 612 OFFCURVE",
"361 612 CURVE SMOOTH",
"426 612 OFFCURVE",
"481 591 OFFCURVE",
"481 542 CURVE SMOOTH",
"481 447 OFFCURVE",
"297 414 OFFCURVE",
"244 377 CURVE"
);
},
{
closed = 1;
nodes = (
"165.667 89.333 OFFCURVE",
"192.333 176.333 OFFCURVE",
"233 337 CURVE",
"246.333 318.333 OFFCURVE",
"262 309 OFFCURVE",
"280 309 CURVE SMOOTH",
"372 309 OFFCURVE",
"488 278 OFFCURVE",
"488 238 CURVE SMOOTH",
"488 165 OFFCURVE",
"317 81 OFFCURVE",
"153 76 CURVE"
);
}
);
width = 637;
},
{
anchors = (
{
name = bottom;
position = "{335, 0}";
},
{
name = top;
position = "{335, 700}";
}
);
associatedMasterId = "FF2DC345-5101-49B6-97F3-57A040F7C387";
hints = (
{
horizontal = 1;
place = "{0, 0}";
type = Tag;
}
);
layerId = "056774AA-614E-4728-A820-D92545D7C062";
name = "Mar 30, 22, 14:50";
paths = (
{
closed = 1;
nodes = (
"575 296.667 OFFCURVE",
"494 351.333 OFFCURVE",
"382 358 CURVE SMOOTH",
"373 359 LINE",
"502.333 399 OFFCURVE",
"571 467 OFFCURVE",
"571 547 CURVE SMOOTH",
"571 643 OFFCURVE",
"465.667 695 OFFCURVE",
"279 695 CURVE SMOOTH",
"239 695 OFFCURVE",
"204.833 690.833 OFFCURVE",
"176.5 682.5 CURVE SMOOTH",
"148.167 674.167 OFFCURVE",
"134 664.333 OFFCURVE",
"134 653 CURVE SMOOTH",
"134 634.333 OFFCURVE",
"166 594 OFFCURVE",
"190 594 CURVE SMOOTH",
"198 594 LINE",
"196.667 510 OFFCURVE",
"171.333 389.667 OFFCURVE",
"122 233 CURVE SMOOTH",
"106 181 OFFCURVE",
"98 149.333 OFFCURVE",
"98 138 CURVE SMOOTH",
"98 115.333 OFFCURVE",
"118.333 85.333 OFFCURVE",
"137 76 CURVE",
"111 76.667 OFFCURVE",
"86.167 84.167 OFFCURVE",
"62.5 98.5 CURVE SMOOTH",
"38.833 112.833 OFFCURVE",
"25.667 120 OFFCURVE",
"23 120 CURVE SMOOTH",
"4.509 120 OFFCURVE",
"-14.678 77.674 OFFCURVE",
"52.5 30 CURVE SMOOTH",
"83.5 8 OFFCURVE",
"118.667 -3 OFFCURVE",
"158 -3 CURVE SMOOTH",
"292.667 -3 OFFCURVE",
"432.667 45.5 OFFCURVE",
"514 119.5 CURVE SMOOTH",
"554.667 156.5 OFFCURVE",
"575 194.667 OFFCURVE",
"575 234 CURVE SMOOTH"
);
},
{
closed = 1;
nodes = (
"481 515.333 OFFCURVE",
"460.5 487.833 OFFCURVE",
"442.5 472.5 CURVE SMOOTH",
"433.5 464.833 OFFCURVE",
"419.167 456 OFFCURVE",
"399.5 446 CURVE SMOOTH",
"379.833 436 OFFCURVE",
"353 424.5 OFFCURVE",
"319 411.5 CURVE SMOOTH",
"285 398.5 OFFCURVE",
"260 387 OFFCURVE",
"244 377 CURVE",
"267.333 469 OFFCURVE",
"279 524.167 OFFCURVE",
"279 542.5 CURVE SMOOTH",
"279 560.833 OFFCURVE",
"269.667 580 OFFCURVE",
"251 600 CURVE",
"336.608 615.107 OFFCURVE",
"401.229 619.053 OFFCURVE",
"447.5 593.5 CURVE SMOOTH",
"469.833 581.167 OFFCURVE",
"481 564 OFFCURVE",
"481 542 CURVE SMOOTH"
);
},
{
closed = 1;
nodes = (
"488 165.106 OFFCURVE",
"317.082 80.622 OFFCURVE",
"153 76 CURVE",
"165.667 89.333 OFFCURVE",
"192.333 176.333 OFFCURVE",
"233 337 CURVE",
"246.333 318.333 OFFCURVE",
"262 309 OFFCURVE",
"280 309 CURVE SMOOTH",
"372 309 OFFCURVE",
"488 278 OFFCURVE",
"488 238 CURVE SMOOTH"
);
}
);
visible = 1;
width = 637;
}
);
leftKerningGroup = I;
unicode = 0042;
userData = {
com.typemytype.robofont.guides = (
{
angle = 0;
isGlobal = 0;
magnetic = 5;
x = 0;
y = 271;
},
{
angle = 0;
isGlobal = 0;
magnetic = 5;
x = 0;
y = 437;
},
{
angle = 0;
isGlobal = 0;
magnetic = 5;
x = 0;
y = 521;
},
{
angle = 0;
isGlobal = 0;
magnetic = 5;
x = 0;
y = 198;
},
{
angle = 0;
isGlobal = 0;
magnetic = 5;
x = 0;
y = 9;
},
{
angle = 90;
isGlobal = 0;
magnetic = 5;
x = 355;
y = 0;
},
{
angle = 90;
isGlobal = 0;
magnetic = 5;
x = 583;
y = 0;
},
{
angle = 90;
isGlobal = 0;
magnetic = 5;
x = 94;
y = 0;
}
);
};
},
{
color = 5;
glyphname = C;
layers = (
{
anchors = (
{
name = bottom;
position = "{334, 0}";
},
{
name = top;
position = "{334, 700}";
}
);
layerId = "FF2DC345-5101-49B6-97F3-57A040F7C387";
paths = (
{
closed = 1;
nodes = (
"424 -3 OFFCURVE",
"539 117 OFFCURVE",
"539 162 CURVE SMOOTH",
"539 173 OFFCURVE",
"534 177 OFFCURVE",
"524 177 CURVE SMOOTH",
"501 177 OFFCURVE",
"398 90 OFFCURVE",
"261 90 CURVE SMOOTH",
"200 90 OFFCURVE",
"158 123 OFFCURVE",
"158 196 CURVE SMOOTH",
"158 347 OFFCURVE",
"359 600 OFFCURVE",
"477 600 CURVE SMOOTH",
"508 600 OFFCURVE",
"527 585 OFFCURVE",
"540 585 CURVE SMOOTH",
"548 585 OFFCURVE",
"551 591 OFFCURVE",
"551 599 CURVE SMOOTH",
"551 635 OFFCURVE",
"508 694 OFFCURVE",
"470 694 CURVE SMOOTH",
"287 694 OFFCURVE",
"65 388 OFFCURVE",
"65 191 CURVE SMOOTH",
"65 94 OFFCURVE",
"166 -3 OFFCURVE",
"259 -3 CURVE SMOOTH"
);
}
);
width = 599;
},
{
anchors = (
{
name = bottom;
position = "{334, 0}";
},
{
name = top;
position = "{334, 700}";
}
);
associatedMasterId = "FF2DC345-5101-49B6-97F3-57A040F7C387";
layerId = "C86AADA6-2834-4312-ADF9-882FFD9BC5AB";
name = "Mar 30, 22, 15:18";
paths = (
{
closed = 1;
nodes = (
"464.339 -3 OFFCURVE",
"583.995 177 OFFCURVE",
"524 177 CURVE SMOOTH",
"518.667 177 OFFCURVE",
"489.333 162.667 OFFCURVE",
"436 134 CURVE SMOOTH",
"394.667 111.333 OFFCURVE",
"322.333 90 OFFCURVE",
"261 90 CURVE SMOOTH",
"199.667 90 OFFCURVE",
"158 122.667 OFFCURVE",
"158 196 CURVE SMOOTH",
"158 269.333 OFFCURVE",
"211.5 382.333 OFFCURVE",
"277.5 461 CURVE SMOOTH",
"343.5 539.667 OFFCURVE",
"425 600 OFFCURVE",
"477 600 CURVE SMOOTH",
"488.333 600 OFFCURVE",
"501 597.5 OFFCURVE",
"515 592.5 CURVE SMOOTH",
"529 587.5 OFFCURVE",
"538.5 585 OFFCURVE",
"543.5 585 CURVE SMOOTH",
"556.771 585 OFFCURVE",
"552.626 626.049 OFFCURVE",
"523.5 661 CURVE SMOOTH",
"505.167 683 OFFCURVE",
"487.333 694 OFFCURVE",
"470 694 CURVE SMOOTH",
"351.333 694 OFFCURVE",
"208.5 561.5 OFFCURVE",
"126.5 403.5 CURVE SMOOTH",
"85.5 324.5 OFFCURVE",
"65 253.667 OFFCURVE",
"65 191 CURVE SMOOTH",
"65 93.667 OFFCURVE",
"165.667 -3 OFFCURVE",
"259 -3 CURVE SMOOTH"
);
}
);
visible = 1;
width = 599;
}
);
leftKerningGroup = O;
rightKerningGroup = C;
unicode = 0043;
userData = {
com.typemytype.robofont.guides = (
{
angle = 0;
isGlobal = 0;
magnetic = 5;
x = 0;
y = 434;
},
{
angle = 0;
isGlobal = 0;
magnetic = 5;
x = 0;
y = 266;
},
{
angle = 0;
isGlobal = 0;
magnetic = 5;
x = 0;
y = 710;
},
{
angle = 0;
isGlobal = 0;
magnetic = 5;
x = 0;
y = "-10";
},
{
angle = 90;
isGlobal = 0;
magnetic = 5;
x = 599;
y = 0;
},
{
angle = 90;
isGlobal = 0;
magnetic = 5;
x = 209;
y = 0;
},
{
angle = 90;
isGlobal = 0;
magnetic = 5;
x = 149;
y = 0;
},
{
angle = 90;
isGlobal = 0;
magnetic = 5;
x = 332;
y = 0;
}
);
};
},
{
color = 5;
glyphname = Ccedilla;
layers = (
{
hints = (
{
horizontal = 1;
place = "{0, 0}";
type = Tag;
}
);
layerId = "FF2DC345-5101-49B6-97F3-57A040F7C387";
paths = (
{
closed = 1;
nodes = (
"235.667 -188 OFFCURVE",
"335.667 -148.667 OFFCURVE",
"337 -90 CURVE SMOOTH",
"337 -60.667 OFFCURVE",
"284.333 -33 OFFCURVE",
"240 -33 CURVE",
"249.333 -16.333 OFFCURVE",
"258 1.667 OFFCURVE",
"266 21 CURVE",
"429 27 OFFCURVE",
"541 143 OFFCURVE",
"541 185 CURVE SMOOTH",
"541 195 OFFCURVE",
"536 201 OFFCURVE",
"525 201 CURVE SMOOTH",
"500 201 OFFCURVE",
"392 114 OFFCURVE",
"274 114 CURVE SMOOTH",
"212 114 OFFCURVE",
"159 138 OFFCURVE",
"159 211 CURVE SMOOTH",
"159 373 OFFCURVE",
"358 624 OFFCURVE",
"477 624 CURVE SMOOTH",
"511 624 OFFCURVE",
"521 609 OFFCURVE",
"537 609 CURVE SMOOTH",
"545 609 OFFCURVE",
"551 615 OFFCURVE",
"551 625 CURVE SMOOTH",
"551 661 OFFCURVE",
"507 718 OFFCURVE",
"471 718 CURVE SMOOTH",
"282 718 OFFCURVE",
"66 404 OFFCURVE",
"66 215 CURVE SMOOTH",
"66 119 OFFCURVE",
"129.333 61.333 OFFCURVE",
"204 32 CURVE",
"187 -11 OFFCURVE",
"176 -31 OFFCURVE",
"176 -44 CURVE SMOOTH",
"176 -53 OFFCURVE",
"179 -61 OFFCURVE",
"199 -61 CURVE SMOOTH",
"231 -61 OFFCURVE",
"248 -88 OFFCURVE",
"248 -102 CURVE SMOOTH",
"248 -128 OFFCURVE",
"105 -129 OFFCURVE",
"105 -162 CURVE SMOOTH",
"105 -177 OFFCURVE",
"123.667 -188 OFFCURVE",
"149 -188 CURVE SMOOTH"
);
}
);
width = 603;
},
{
associatedMasterId = "FF2DC345-5101-49B6-97F3-57A040F7C387";
hints = (
{
horizontal = 1;
place = "{0, 0}";
type = Tag;
}
);
layerId = "C76D4958-3CF9-4A84-9A93-63B60114EF80";
name = "Mar 30, 22, 15:24";
paths = (
{
closed = 1;
nodes = (
"235.667 -188 OFFCURVE",
"335.667 -148.667 OFFCURVE",
"337 -90 CURVE SMOOTH",
"337 -60.667 OFFCURVE",
"284.333 -33 OFFCURVE",
"243 -33 CURVE SMOOTH",
"240 -33 LINE",
"240 -33 LINE",
"249.333 -16.333 OFFCURVE",
"258 1.667 OFFCURVE",
"266 21 CURVE",
"465.525 28.39 OFFCURVE",
"586.344 201 OFFCURVE",
"525 201 CURVE SMOOTH",
"519.667 201 OFFCURVE",
"490 186.667 OFFCURVE",
"436 158 CURVE SMOOTH",
"356.286 112.829 OFFCURVE",
"159 68.806 OFFCURVE",
"159 211 CURVE SMOOTH",
"159 323 OFFCURVE",
"248.833 472.333 OFFCURVE",
"349.5 559 CURVE SMOOTH",
"399.833 602.333 OFFCURVE",
"442.333 624 OFFCURVE",
"477 624 CURVE SMOOTH",
"489 624 OFFCURVE",
"502 621.5 OFFCURVE",
"516 616.5 CURVE SMOOTH",
"530 611.5 OFFCURVE",
"539.333 609 OFFCURVE",
"544 609 CURVE SMOOTH",
"556.846 609 OFFCURVE",
"552.519 650.177 OFFCURVE",
"523.5 685 CURVE SMOOTH",
"505.167 707 OFFCURVE",
"487.667 718 OFFCURVE",
"471 718 CURVE SMOOTH",
"352.333 718 OFFCURVE",
"209.5 585.5 OFFCURVE",
"127.5 427.5 CURVE SMOOTH",
"86.5 348.5 OFFCURVE",
"66 277.667 OFFCURVE",
"66 215 CURVE SMOOTH",
"66 139 OFFCURVE",
"129.333 61.333 OFFCURVE",
"204 32 CURVE",
"149.717 -109.136 OFFCURVE",
"182.346 2.481 OFFCURVE",
"252 -102 CURVE",
"213.378 -142.767 OFFCURVE",
"105 -129.955 OFFCURVE",
"105 -162 CURVE SMOOTH",
"105 -176.667 OFFCURVE",
"123.667 -188 OFFCURVE",
"149 -188 CURVE SMOOTH"
);
}
);
visible = 1;
width = 603;
}
);
leftKerningGroup = O;
rightKerningGroup = C;
unicode = 00C7;
userData = {
com.typemytype.robofont.guides = (
{
angle = 0;
isGlobal = 0;
magnetic = 5;
x = 0;
y = "-174";
},
{
angle = 0;
isGlobal = 0;
magnetic = 5;
x = 0;
y = "-220";
},
{
angle = 0;
isGlobal = 0;
magnetic = 5;
x = 0;
y = "-96";
},
{
angle = 0;
isGlobal = 0;
magnetic = 5;
x = 0;
y = "-50";
},
{
angle = 0;
isGlobal = 0;
magnetic = 5;
x = 0;
y = "-135";
},
{
angle = 90;
isGlobal = 0;
magnetic = 5;
x = 331;
y = 0;
},
{
angle = 90;
isGlobal = 0;
magnetic = 5;
x = 342;
y = 0;
}
);
};
},
{
color = 5;
glyphname = D;
layers = (
{
anchors = (
{
name = bottom;
position = "{345, 0}";
},
{
name = center;
position = "{345, 350}";
},
{
name = top;
position = "{344, 700}";
}
);
hints = (
{
horizontal = 1;
place = "{0, 0}";
type = Tag;
}
);
layerId = "FF2DC345-5101-49B6-97F3-57A040F7C387";
paths = (
{
closed = 1;
nodes = (
"294 -6 OFFCURVE",
"612 206 OFFCURVE",
"612 337 CURVE SMOOTH",
"612 529 OFFCURVE",
"343 701 OFFCURVE",
"151 701 CURVE SMOOTH",
"138 701 OFFCURVE",
"131 694 OFFCURVE",
"131 684 CURVE SMOOTH",
"131 663 OFFCURVE",
"153 628 OFFCURVE",
"201 608 CURVE",
"188.361 441.16 OFFCURVE",
"80 228.248 OFFCURVE",
"80 92.5 CURVE SMOOTH",
"80 47.833 OFFCURVE",
"122.667 -6 OFFCURVE",
"148 -6 CURVE SMOOTH"
);
},
{
closed = 1;
nodes = (
"173 177 OFFCURVE",
"279 467 OFFCURVE",
"279 550 CURVE SMOOTH",
"279 564 OFFCURVE",
"277 575 OFFCURVE",
"274 587 CURVE",
"404.667 544.333 OFFCURVE",
"520 430.667 OFFCURVE",
"520 348 CURVE SMOOTH",
"520 270 OFFCURVE",
"301 101 OFFCURVE",
"167 84 CURVE"
);
}
);
width = 645;
},
{
anchors = (
{
name = bottom;
position = "{345, 0}";
},
{
name = center;
position = "{345, 350}";
},
{
name = top;
position = "{344, 700}";
}
);
associatedMasterId = "FF2DC345-5101-49B6-97F3-57A040F7C387";
hints = (
{
horizontal = 1;
place = "{0, 0}";
type = Tag;
}
);
layerId = "49C4E2B2-44BA-414E-8242-DA5FE5AB533F";
name = "Mar 30, 22, 15:32";
paths = (
{
closed = 1;
nodes = (
"245.333 -6 OFFCURVE",
"414.833 83.5 OFFCURVE",
"527.5 193.5 CURVE SMOOTH",
"583.833 248.5 OFFCURVE",
"612 296.333 OFFCURVE",
"612 337 CURVE SMOOTH",
"612 461 OFFCURVE",
"493.5 586.667 OFFCURVE",
"351.5 652 CURVE SMOOTH",
"280.5 684.667 OFFCURVE",
"213.667 701 OFFCURVE",
"151 701 CURVE SMOOTH",
"112.84 701 OFFCURVE",
"128.674 637.382 OFFCURVE",
"201 608 CURVE",
"188.361 441.16 OFFCURVE",
"80 228.248 OFFCURVE",
"80 92.5 CURVE SMOOTH",
"80 47.833 OFFCURVE",
"122.667 -6 OFFCURVE",
"148 -6 CURVE SMOOTH"
);
},
{
closed = 1;
nodes = (
"175 136.667 OFFCURVE",
"185.333 185 OFFCURVE",
"198 229 CURVE SMOOTH",
"228.667 333.667 OFFCURVE",
"249.833 408.333 OFFCURVE",
"261.5 453 CURVE SMOOTH",
"280.445 525.532 OFFCURVE",
"282.847 555.151 OFFCURVE",
"274 587 CURVE",
"404.667 544.333 OFFCURVE",
"520 430.667 OFFCURVE",
"520 348 CURVE SMOOTH",
"520 302.667 OFFCURVE",
"435.5 213.167 OFFCURVE",
"321.5 144.5 CURVE SMOOTH",
"264.5 110.167 OFFCURVE",
"213 90 OFFCURVE",
"167 84 CURVE"
);
}
);
visible = 1;
width = 645;
}
);
leftKerningGroup = I;
rightKerningGroup = D;
unicode = 0044;
userData = {
com.typemytype.robofont.guides = (
{
angle = 0;
isGlobal = 0;
magnetic = 5;
x = 0;
y = 425;
},
{
angle = 0;
isGlobal = 0;
magnetic = 5;
x = 0;
y = 276;
},
{
angle = 0;
isGlobal = 0;
magnetic = 5;
x = 0;
y = 9;
},
{
angle = 90;
isGlobal = 0;
magnetic = 5;
x = 320;
y = 0;
},
{
angle = 90;
isGlobal = 0;
magnetic = 5;
x = 603;
y = 0;
},
{
angle = 90;
isGlobal = 0;
magnetic = 5;
x = 94;
y = 0;
}
);
};
},
{
color = 5;
glyphname = Eth;
layers = (
{
hints = (
{
horizontal = 1;
place = "{0, 0}";
type = Tag;
}
);
layerId = "FF2DC345-5101-49B6-97F3-57A040F7C387";
paths = (
{
closed = 1;
nodes = (
"308 -4 OFFCURVE",
"626 209 OFFCURVE",
"626 338 CURVE SMOOTH",
"626 529 OFFCURVE",
"356 703 OFFCURVE",
"165 703 CURVE SMOOTH",
"152 703 OFFCURVE",
"145 695 OFFCURVE",
"145 684 CURVE SMOOTH",
"145 663 OFFCURVE",
"168 630 OFFCURVE",
"215 609 CURVE",
"211.667 565.667 OFFCURVE",
"192.667 481.667 OFFCURVE",
"158 357 CURVE",
"123 352 OFFCURVE",
"14 344 OFFCURVE",
"14 308 CURVE SMOOTH",
"14 285 OFFCURVE",
"58 271 OFFCURVE",
"73.5 271 CURVE SMOOTH",
"81 271 OFFCURVE",
"101.667 272.333 OFFCURVE",
"135 275 CURVE",
"107.667 173 OFFCURVE",
"94 112 OFFCURVE",
"94 91.5 CURVE SMOOTH",
"94 51 OFFCURVE",
"136.667 -4 OFFCURVE",
"162 -4 CURVE SMOOTH"
);
},
{
closed = 1;
nodes = (
"189 138.667 OFFCURVE",
"199.333 187 OFFCURVE",
"229 287 CURVE",
"267 293 OFFCURVE",
"351 312 OFFCURVE",
"351 330 CURVE SMOOTH",
"351 366.681 OFFCURVE",
"285.179 369.629 OFFCURVE",
"251 367 CURVE",
"279 464.333 OFFCURVE",
"293 527 OFFCURVE",
"293 555 CURVE SMOOTH",
"293 566 OFFCURVE",
"291.333 576.667 OFFCURVE",
"288 588 CURVE",
"418.667 544 OFFCURVE",
"534 434 OFFCURVE",
"534 349 CURVE SMOOTH",
"534 256 OFFCURVE",
"285 100 OFFCURVE",
"181 86 CURVE"
);
}
);
width = 619;
}
);
leftKerningGroup = I;
rightKerningGroup = D;
unicode = 00D0;
userData = {
com.typemytype.robofont.guides = (
{
angle = 0;
isGlobal = 0;
magnetic = 5;
x = 0;
y = 350;
}
);
};
},
{
color = 5;
glyphname = E;
layers = (
{
anchors = (
{
name = bottom;
position = "{303, 0}";
},
{
name = ogonek;
position = "{550, 69}";
},
{
name = top;
position = "{303, 700}";
},
{
name = topleft;
position = "{20, 700}";
}
);
layerId = "FF2DC345-5101-49B6-97F3-57A040F7C387";
paths = (
{
closed = 1;
nodes = (
"329 313 OFFCURVE",
"480 330 OFFCURVE",
"480 382 CURVE SMOOTH",
"480 395 OFFCURVE",
"468 400 OFFCURVE",
"448 400 CURVE SMOOTH",
"415 399 OFFCURVE",
"352 383 OFFCURVE",
"287 383 CURVE SMOOTH",
"268 383 OFFCURVE",
"249 384 OFFCURVE",
"230 387 CURVE",
"255 478 OFFCURVE",
"267 547 OFFCURVE",
"267 595 CURVE",
"299 600 OFFCURVE",
"350 609 OFFCURVE",
"385 612 CURVE SMOOTH",
"592 627 OFFCURVE",
"605 645 OFFCURVE",
"605 661 CURVE SMOOTH",
"605 680 OFFCURVE",
"538 690 OFFCURVE",
"404 690 CURVE SMOOTH",
"270 690 OFFCURVE",
"182 683 OFFCURVE",
"182 630 CURVE SMOOTH",
"182 480 OFFCURVE",
"63 173 OFFCURVE",
"63 90 CURVE SMOOTH",
"63 35 OFFCURVE",
"117 -5 OFFCURVE",
"178 -5 CURVE SMOOTH",
"315 -5 OFFCURVE",
"502 59 OFFCURVE",
"502 107 CURVE SMOOTH",
"502 121 OFFCURVE",
"497 128 OFFCURVE",
"487 128 CURVE SMOOTH",
"458 128 OFFCURVE",
"350 79 OFFCURVE",
"181 79 CURVE SMOOTH",
"165 79 OFFCURVE",
"154 90 OFFCURVE",
"154 106 CURVE SMOOTH",
"154 130 OFFCURVE",
"172 199 OFFCURVE",
"208 313 CURVE"
);
}
);
width = 585;
}
);
leftKerningGroup = I;
rightKerningGroup = E;
unicode = 0045;
userData = {
com.typemytype.robofont.guides = (
{
angle = 0;
isGlobal = 0;
magnetic = 5;
x = 0;
y = 334;
},
{
angle = 0;
isGlobal = 0;
magnetic = 5;
x = 0;
y = 9;
},
{
angle = 0;
isGlobal = 0;
magnetic = 5;
x = 0;
y = 376;
},
{
angle = 0;
isGlobal = 0;
magnetic = 5;
x = 0;
y = 691;
},
{
angle = 0;
isGlobal = 0;
magnetic = 5;
x = 0;
y = 649;
},
{
angle = 90;
isGlobal = 0;
magnetic = 5;
x = 664;
y = 0;
},
{
angle = 90;
isGlobal = 0;
magnetic = 5;
x = 94;
y = 0;
},
{
angle = 90;
isGlobal = 0;
magnetic = 5;
x = 511;
y = 0;
}
);
};
},
{
color = 5;
glyphname = F;
layers = (
{
anchors = (
{
name = bottom;
position = "{292, 0}";
},
{
name = top;
position = "{292, 700}";
}
);
hints = (
{
horizontal = 1;
place = "{0, 0}";
type = Tag;
}
);
layerId = "FF2DC345-5101-49B6-97F3-57A040F7C387";
paths = (
{
closed = 1;
nodes = (
"128 -4 OFFCURVE",
"174 187 OFFCURVE",
"195 293 CURVE",
"261 290 OFFCURVE",
"473 310 OFFCURVE",
"473 366 CURVE SMOOTH",
"473 377 OFFCURVE",
"460 382 OFFCURVE",
"435 382 CURVE SMOOTH",
"375 382 OFFCURVE",
"311 368 OFFCURVE",
"214 373 CURVE",
"240 482 OFFCURVE",
"254 550 OFFCURVE",
"252 598 CURVE",
"562 626 OFFCURVE",
"589 641 OFFCURVE",
"589 655 CURVE SMOOTH",
"589 667 OFFCURVE",
"570 693 OFFCURVE",
"375 693 CURVE SMOOTH",
"221 693 OFFCURVE",
"173 678 OFFCURVE",
"173 630 CURVE SMOOTH",
"173 455 OFFCURVE",
"56 205 OFFCURVE",
"56 71 CURVE SMOOTH",
"56 47 OFFCURVE",
"90 -4 OFFCURVE",
"106 -4 CURVE SMOOTH"
);
}
);
width = 523;
},
{
anchors = (
{
name = bottom;
position = "{292, 0}";
},
{
name = top;
position = "{292, 700}";
}
);
associatedMasterId = "FF2DC345-5101-49B6-97F3-57A040F7C387";
hints = (
{
horizontal = 1;
place = "{0, 0}";
type = Tag;
}
);
layerId = "31268830-2F41-4015-84D7-E98692647BB0";
name = "Mar 30, 22, 18:21";
paths = (
{
closed = 1;
nodes = (
"266 293 OFFCURVE",
"329 300 OFFCURVE",
"387 314 CURVE SMOOTH",
"444 328 OFFCURVE",
"473 345 OFFCURVE",
"473 366 CURVE SMOOTH",
"473 377 OFFCURVE",
"460 382 OFFCURVE",
"435 382 CURVE SMOOTH",
"424 382 OFFCURVE",
"395 380 OFFCURVE",
"348 376 CURVE SMOOTH",
"300 372 OFFCURVE",
"255 371 OFFCURVE",
"214 373 CURVE",
"240 486 OFFCURVE",
"253 558 OFFCURVE",
"253 589 CURVE SMOOTH",
"253 593 OFFCURVE",
"253 596 OFFCURVE",
"252 598 CURVE",
"295 602 OFFCURVE",
"281 606 OFFCURVE",
"469 622 CURVE SMOOTH",
"493 624 OFFCURVE",
"525 627 OFFCURVE",
"542 631 CURVE SMOOTH",
"559 634 OFFCURVE",
"589 639 OFFCURVE",
"589 655 CURVE SMOOTH",
"589 667 OFFCURVE",
"570 676 OFFCURVE",
"533 683 CURVE SMOOTH",
"495 690 OFFCURVE",
"442 693 OFFCURVE",
"375 693 CURVE SMOOTH",
"317 693 OFFCURVE",
"272 690 OFFCURVE",
"239 684 CURVE SMOOTH",
"206 678 OFFCURVE",
"187 668 OFFCURVE",
"180 654 CURVE",
"175 648 OFFCURVE",
"173 640 OFFCURVE",
"173 630 CURVE SMOOTH",
"168 440 OFFCURVE",
"56 205 OFFCURVE",
"56 71 CURVE SMOOTH",
"56 47 OFFCURVE",
"94 -4 OFFCURVE",
"111 -4 CURVE SMOOTH",
"115 -4 OFFCURVE",
"119 2 OFFCURVE",
"123 13 CURVE SMOOTH",
"136 52 OFFCURVE",
"132 39 OFFCURVE",
"145 87 CURVE SMOOTH",
"150 108 OFFCURVE",
"174 187 OFFCURVE",
"195 293 CURVE",
"197 293 LINE",
"197 293 LINE"
);
}
);
visible = 1;
width = 523;
}
);
leftKerningGroup = I;
unicode = 0046;
userData = {
com.typemytype.robofont.guides = (
{
angle = 0;
isGlobal = 0;
magnetic = 5;
x = 0;
y = 320;
},
{
angle = 0;
isGlobal = 0;
magnetic = 5;
x = 0;
y = 691;
},
{
angle = 0;
isGlobal = 0;
magnetic = 5;
x = 0;
y = 649;
},
{
angle = 0;
isGlobal = 0;
magnetic = 5;
x = 0;
y = 362;
},
{
angle = 0;
isGlobal = 0;
magnetic = 5;
x = 0;
y = 9;
},
{
angle = 90;
isGlobal = 0;
magnetic = 5;
x = 761;
y = 0;
},
{
angle = 90;
isGlobal = 0;
magnetic = 5;
x = 94;
y = 0;
},
{
angle = 90;
isGlobal = 0;
magnetic = 5;
x = 487;
y = 0;
},
{
angle = 90;
isGlobal = 0;
magnetic = 5;
x = 139;
y = 0;
}
);
};
},
{
color = 5;
glyphname = G;
layers = (
{
anchors = (
{
name = bottom;
position = "{352, 0}";
},
{
name = top;
position = "{346, 700}";
}
);
hints = (
{
horizontal = 1;
place = "{0, 0}";
type = Tag;
}
);
layerId = "FF2DC345-5101-49B6-97F3-57A040F7C387";
paths = (
{
closed = 1;
nodes = (
"297 -3 OFFCURVE",
"385 66 OFFCURVE",
"450 177 CURVE",
"424 95 OFFCURVE",
"379 -15 OFFCURVE",
"379 -80 CURVE SMOOTH",
"379 -99 OFFCURVE",
"388 -109 OFFCURVE",
"405 -109 CURVE SMOOTH",
"439 -109 OFFCURVE",
"530 178 OFFCURVE",
"530 232 CURVE SMOOTH",
"530 286 OFFCURVE",
"498 333 OFFCURVE",
"449 333 CURVE SMOOTH",
"316 333 OFFCURVE",
"298 309 OFFCURVE",
"298 298 CURVE SMOOTH",
"298 281 OFFCURVE",
"327 256 OFFCURVE",
"363 256 CURVE SMOOTH",
"385 256 OFFCURVE",
"409 261 OFFCURVE",
"446 271 CURVE",
"373 160 OFFCURVE",
"278 83 OFFCURVE",
"214 83 CURVE SMOOTH",
"173 83 OFFCURVE",
"137 122 OFFCURVE",
"137 170 CURVE SMOOTH",
"137 341 OFFCURVE",
"319 604 OFFCURVE",
"461 604 CURVE SMOOTH",
"497 604 OFFCURVE",
"515 589 OFFCURVE",
"524 589 CURVE SMOOTH",
"532 589 OFFCURVE",
"535 595 OFFCURVE",
"535 604 CURVE SMOOTH",
"535 633 OFFCURVE",
"496 697 OFFCURVE",
"453 697 CURVE SMOOTH",
"271 697 OFFCURVE",
"46 378 OFFCURVE",
"46 171 CURVE SMOOTH",
"46 84 OFFCURVE",
"141 -3 OFFCURVE",
"219 -3 CURVE SMOOTH"
);
}
);
width = 611;
},
{
anchors = (
{
name = bottom;
position = "{352, 0}";
},
{
name = top;
position = "{346, 700}";
}
);
associatedMasterId = "FF2DC345-5101-49B6-97F3-57A040F7C387";
hints = (
{
horizontal = 1;
place = "{0, 0}";
type = Tag;
}
);
layerId = "A2F596CA-CAFD-4357-982A-E5D80D2DB1FF";
name = "Mar 30, 22, 18:34";
paths = (
{
closed = 1;
nodes = (
"476 604 OFFCURVE",
"489 602 OFFCURVE",
"502 597 CURVE SMOOTH",
"515 592 OFFCURVE",
"522 589 OFFCURVE",
"524 589 CURVE SMOOTH",
"540 589 OFFCURVE",
"542 621 OFFCURVE",
"508 664 CURVE SMOOTH",
"490 686 OFFCURVE",
"472 697 OFFCURVE",
"453 697 CURVE SMOOTH",
"340 697 OFFCURVE",
"195 561 OFFCURVE",
"110 396 CURVE SMOOTH",
"67 313 OFFCURVE",
"46 238 OFFCURVE",
"46 171 CURVE SMOOTH",
"46 84 OFFCURVE",
"141 -3 OFFCURVE",
"219 -3 CURVE SMOOTH",
"297 -3 OFFCURVE",
"385 66 OFFCURVE",
"450 177 CURVE",
"424 95 OFFCURVE",
"379 -15 OFFCURVE",
"379 -80 CURVE SMOOTH",
"379 -99 OFFCURVE",
"388 -109 OFFCURVE",
"405 -109 CURVE SMOOTH",
"439 -109 OFFCURVE",
"530 178 OFFCURVE",
"530 232 CURVE SMOOTH",
"530 286 OFFCURVE",
"497 333 OFFCURVE",
"449 333 CURVE SMOOTH",
"406 333 OFFCURVE",
"370 330 OFFCURVE",
"341 324 CURVE SMOOTH",
"312 317 OFFCURVE",
"298 309 OFFCURVE",
"298 298 CURVE SMOOTH",
"298 281 OFFCURVE",
"327 256 OFFCURVE",
"363 256 CURVE SMOOTH",
"381 256 OFFCURVE",
"409 261 OFFCURVE",
"446 271 CURVE",
"373 160 OFFCURVE",
"278 83 OFFCURVE",
"214 83 CURVE SMOOTH",
"173 83 OFFCURVE",
"137 122 OFFCURVE",
"137 170 CURVE SMOOTH",
"137 289 OFFCURVE",
"220 443 OFFCURVE",
"322 535 CURVE SMOOTH",
"373 581 OFFCURVE",
"419 604 OFFCURVE",
"461 604 CURVE SMOOTH"
);
}
);
visible = 1;
width = 611;
}
);
leftKerningGroup = O;
rightKerningGroup = G;
unicode = 0047;
userData = {
com.typemytype.robofont.guides = (
{
angle = 0;
isGlobal = 0;
magnetic = 5;
x = 0;
y = "-10";
},
{
angle = 0;
isGlobal = 0;
magnetic = 5;
x = 0;
y = 260;
},
{
angle = 0;
isGlobal = 0;
magnetic = 5;
x = 0;
y = 440;
},
{
angle = 90;
isGlobal = 0;
magnetic = 5;
x = 334;
y = 0;
},
{
angle = 90;
isGlobal = 0;
magnetic = 5;
x = 133;
y = 0;
},
{
angle = 90;
isGlobal = 0;
magnetic = 5;
x = 604;
y = 0;
},
{
angle = 90;
isGlobal = 0;
magnetic = 5;
x = 67;
y = 0;
}
);
};
},
{
color = 5;
glyphname = H;
layers = (
{
anchors = (
{
name = bottom;
position = "{357, 0}";
},
{
name = center;
position = "{357, 350}";
},
{
name = top;
position = "{357, 700}";
},
{
name = topleft;
position = "{20, 700}";
}
);
layerId = "FF2DC345-5101-49B6-97F3-57A040F7C387";
paths = (
{
closed = 1;
nodes = (
"104 -3 OFFCURVE",
"66 42 OFFCURVE",
"66 74 CURVE SMOOTH",
"66 90 OFFCURVE",
"80.667 155.333 OFFCURVE",
"110 270 CURVE",
"92.667 276.667 OFFCURVE",
"78 295 OFFCURVE",
"78 316 CURVE SMOOTH",
"78 325 OFFCURVE",
"95.333 334.333 OFFCURVE",
"130 345 CURVE",
"174.667 519.667 OFFCURVE",
"197 628 OFFCURVE",
"197 670 CURVE SMOOTH",
"197 693 OFFCURVE",
"202 700 OFFCURVE",
"219.5 700 CURVE SMOOTH",
"237 700 OFFCURVE",
"278 651 OFFCURVE",
"278 599.5 CURVE SMOOTH",
"278 574 OFFCURVE",
"261.667 496.667 OFFCURVE",
"229 368 CURVE",
"317 386 OFFCURVE",
"403.333 397.667 OFFCURVE",
"488 403 CURVE",
"522 541.667 OFFCURVE",
"539 631 OFFCURVE",
"539 670 CURVE SMOOTH",
"539 690 OFFCURVE",
"546 700 OFFCURVE",
"559 700 CURVE SMOOTH",
"582 700 OFFCURVE",
"622 649 OFFCURVE",
"622 604.5 CURVE SMOOTH",
"622 582 OFFCURVE",
"607 514.333 OFFCURVE",
"577 401 CURVE",
"607.667 396.333 OFFCURVE",
"623 387 OFFCURVE",
"623 373.5 CURVE SMOOTH",
"623 360 OFFCURVE",
"602.333 348.667 OFFCURVE",
"561 340 CURVE",
"476 26 OFFCURVE",
"473 -3 OFFCURVE",
"455 -3 CURVE SMOOTH",
"440 -3 OFFCURVE",
"408 36 OFFCURVE",
"408 69 CURVE SMOOTH",
"408 86 OFFCURVE",
"428 171.333 OFFCURVE",
"468 326 CURVE",
"370.667 312.667 OFFCURVE",
"283 297.333 OFFCURVE",
"205 280 CURVE",
"159 113 OFFCURVE",
"141 -3 OFFCURVE",
"120 -3 CURVE SMOOTH"
);
}
);
width = 670;
},
{
anchors = (
{
name = bottom;
position = "{357, 0}";
},
{
name = center;
position = "{357, 350}";
},
{
name = top;
position = "{357, 700}";
},
{
name = topleft;
position = "{20, 700}";
}
);
associatedMasterId = "FF2DC345-5101-49B6-97F3-57A040F7C387";
layerId = "C59EE2F1-4CC7-43A0-91BF-17034A5015D0";
name = "Mar 30, 22, 18:47";
paths = (
{
closed = 1;
nodes = (
"144 50 QCURVE SMOOTH",
"152 77 OFFCURVE",
"166 131 OFFCURVE",
"191 228 OFFCURVE",
"205 280 QCURVE",
"322 306 OFFCURVE",
"468 326 QCURVE",
"408 94 OFFCURVE",
"408 44 OFFCURVE",
"445 -3 OFFCURVE",
"459 -3 QCURVE SMOOTH",
"470 -3 OFFCURVE",
"484 50 QCURVE SMOOTH",
"492 77 OFFCURVE",
"506 131 OFFCURVE",
"529 222 OFFCURVE",
"561 340 QCURVE",
"623 353 OFFCURVE",
"623 394 OFFCURVE",
"577 401 QCURVE",
"622 571 OFFCURVE",
"622 638 OFFCURVE",
"576 700 OFFCURVE",
"559 700 QCURVE SMOOTH",
"539 700 OFFCURVE",
"539 670 QCURVE SMOOTH",
"539 611 OFFCURVE",
"488 403 QCURVE",
"361 395 OFFCURVE",
"229 368 QCURVE",
"278 561 OFFCURVE",
"278 638 OFFCURVE",
"233 700 OFFCURVE",
"206 700 OFFCURVE",
"197 687 OFFCURVE",
"197 670 QCURVE SMOOTH",
"197 607 OFFCURVE",
"130 345 QCURVE",
"78 329 OFFCURVE",
"78 316 QCURVE SMOOTH",
"78 300 OFFCURVE",
"97 275 OFFCURVE",
"110 270 QCURVE",
"66 98 OFFCURVE",
"66 50 OFFCURVE",
"108 -3 OFFCURVE",
"120 -3 QCURVE SMOOTH",
"130 -3 OFFCURVE"
);
}
);
visible = 1;
width = 670;
}
);
leftKerningGroup = I;
rightKerningGroup = I;
unicode = 0048;
userData = {
com.typemytype.robofont.guides = (
{
angle = 0;
isGlobal = 0;
magnetic = 5;
x = 0;
y = 350;
},
{
angle = 0;
isGlobal = 0;
magnetic = 5;
x = 0;
y = 9;
},
{
angle = 0;
isGlobal = 0;
magnetic = 5;
x = 0;
y = 691;
},
{
angle = 90;
isGlobal = 0;
magnetic = 5;
x = 94;
y = 0;
},
{
angle = 90;
isGlobal = 0;
magnetic = 5;
x = 139;
y = 0;
},
{
angle = 90;
isGlobal = 0;
magnetic = 5;
x = 543;
y = 0;
},
{
angle = 90;
isGlobal = 0;
magnetic = 5;
x = 588;
y = 0;
}
);
};
},
{
color = 5;
glyphname = I;
layers = (
{
anchors = (
{
name = bottom;
position = "{137, 0}";
},
{
name = ogonek;
position = "{184, 69}";
},
{
name = top;
position = "{215, 700}";
},
{
name = topleft;
position = "{150, 700}";
}
);
layerId = "FF2DC345-5101-49B6-97F3-57A040F7C387";
paths = (
{
closed = 1;
nodes = (
"122 -1 OFFCURVE",
"133 4 OFFCURVE",
"147 58 CURVE SMOOTH",
"190 222 OFFCURVE",
"273 561 OFFCURVE",
"273 600.5 CURVE SMOOTH",
"273 647.833 OFFCURVE",
"230.833 698 OFFCURVE",
"211.5 698 CURVE SMOOTH",
"192.167 698 OFFCURVE",
"188 691 OFFCURVE",
"188 668 CURVE SMOOTH",
"188 566 OFFCURVE",
"68 127 OFFCURVE",
"68 67 CURVE SMOOTH",
"68 40 OFFCURVE",
"103 -1 OFFCURVE",
"116 -1 CURVE SMOOTH"
);
}
);
width = 310;
},
{
anchors = (
{
name = bottom;
position = "{137, 0}";
},
{
name = ogonek;
position = "{184, 69}";
},
{
name = top;
position = "{137, 700}";
},
{
name = topleft;
position = "{20, 700}";
}
);
associatedMasterId = "FF2DC345-5101-49B6-97F3-57A040F7C387";
layerId = "BE9A0CDC-A95E-4FD7-B7F7-A70E7319C322";
name = "Mar 30, 22, 18:50";
paths = (
{
closed = 1;
nodes = (
"148 58 QCURVE SMOOTH",
"156 90 OFFCURVE",
"170 144 OFFCURVE",
"194 245 OFFCURVE",
"201 272 QCURVE SMOOTH",
"273 565 OFFCURVE",
"273 636 OFFCURVE",
"226 698 OFFCURVE",
"197 698 OFFCURVE",
"188 685 OFFCURVE",
"188 668 QCURVE SMOOTH",
"187 606 OFFCURVE",
"68 87 OFFCURVE",
"68 47 OFFCURVE",
"107 -1 OFFCURVE",
"131 -1 OFFCURVE"
);
}
);
visible = 1;
width = 310;
}
);
leftKerningGroup = I;
rightKerningGroup = I;
unicode = 0049;
userData = {
com.typemytype.robofont.guides = (
{
angle = 90;
isGlobal = 0;
magnetic = 5;
x = 85;
y = 0;
},
{
angle = 90;
isGlobal = 0;
magnetic = 5;
x = 148;
y = 0;
}
);
};
},
{
color = 5;
glyphname = J;
layers = (
{
anchors = (
{
name = bottom;
position = "{317, 0}";
},
{
name = top;
position = "{316, 700}";
}
);
hints = (
{
horizontal = 1;
place = "{0, 0}";
type = Tag;
}
);
layerId = "FF2DC345-5101-49B6-97F3-57A040F7C387";
paths = (
{
closed = 1;
nodes = (
"106 -7 OFFCURVE",
"8 92 OFFCURVE",
"8 145 CURVE SMOOTH",
"8 164 OFFCURVE",
"14 174 OFFCURVE",
"26 174 CURVE SMOOTH",
"50 174 OFFCURVE",
"111 75 OFFCURVE",
"185 75 CURVE SMOOTH",
"209 75 OFFCURVE",
"227.167 98.167 OFFCURVE",
"245.5 144.5 CURVE SMOOTH",
"303.058 289.965 OFFCURVE",
"328.583 501.719 OFFCURVE",
"401 620 CURVE",
"332 609 OFFCURVE",
"213 575 OFFCURVE",
"182 575 CURVE SMOOTH",
"157 575 OFFCURVE",
"145 583 OFFCURVE",
"145 600 CURVE SMOOTH",
"145 650 OFFCURVE",
"385 704 OFFCURVE",
"452 704 CURVE SMOOTH",
"473 704 OFFCURVE",
"497 696 OFFCURVE",
"497 670 CURVE SMOOTH",
"497 645 OFFCURVE",
"430 468 OFFCURVE",
"333 134 CURVE SMOOTH",
"299 17 OFFCURVE",
"246 -7 OFFCURVE",
"201.5 -7 CURVE SMOOTH"
);
}
);
width = 468;
},
{
anchors = (
{
name = bottom;
position = "{317, 0}";
},
{
name = top;
position = "{316, 700}";
}
);
associatedMasterId = "FF2DC345-5101-49B6-97F3-57A040F7C387";
hints = (
{
horizontal = 1;
place = "{0, 0}";
type = Tag;
}
);
layerId = "5BEE5F71-27C8-47AB-8241-7049C06A38EC";
name = "Mar 30, 22, 19:03";
paths = (
{
closed = 1;
nodes = (
"134 -7 OFFCURVE",
"269 -7 OFFCURVE",
"337 133 OFFCURVE",
"402 370 QCURVE SMOOTH",
"421 435 OFFCURVE",
"483 616 QCURVE SMOOTH",
"497 657 OFFCURVE",
"497 688 OFFCURVE",
"470 704 OFFCURVE",
"452 704 QCURVE SMOOTH",
"394 704 OFFCURVE",
"145 634 OFFCURVE",
"145 600 QCURVE SMOOTH",
"145 575 OFFCURVE",
"182 575 QCURVE SMOOTH",
"198 575 OFFCURVE",
"357 613 OFFCURVE",
"401 620 QCURVE",
"371 571 OFFCURVE",
"273 214 OFFCURVE",
"218 75 OFFCURVE",
"185 75 QCURVE SMOOTH",
"159 75 OFFCURVE",
"105 106 OFFCURVE",
"86 124 QCURVE SMOOTH",
"37 174 OFFCURVE",
"26 174 QCURVE SMOOTH",
"8 174 OFFCURVE",
"8 145 QCURVE SMOOTH",
"8 105 OFFCURVE"
);
}
);
visible = 1;
width = 468;
}
);
leftKerningGroup = J;
rightKerningGroup = U;
unicode = 004A;
userData = {
com.typemytype.robofont.guides = (
{
angle = 0;
isGlobal = 0;
magnetic = 5;
x = 0;
y = "-10";
},
{
angle = 0;
isGlobal = 0;
magnetic = 5;
x = 0;
y = 133;
},
{
angle = 0;
isGlobal = 0;
magnetic = 5;
x = 0;
y = 677;
},
{
angle = 90;
isGlobal = 0;
magnetic = 5;
x = 303;
y = 0;
},
{
angle = 90;
isGlobal = 0;
magnetic = 5;
x = 60;
y = 0;
},
{
angle = 90;
isGlobal = 0;
magnetic = 5;
x = 91;
y = 0;
}
);
};
},
{
color = 5;
glyphname = K;
layers = (
{
anchors = (
{
name = bottom;
position = "{314, 0}";
},
{
name = top;
position = "{301, 700}";
}
);
layerId = "FF2DC345-5101-49B6-97F3-57A040F7C387";
paths = (
{
closed = 1;
nodes = (
"80 0 OFFCURVE",
"54 39 OFFCURVE",
"54 72.5 CURVE SMOOTH",
"54 156 OFFCURVE",
"184 535 OFFCURVE",
"184 666 CURVE SMOOTH",
"184 690 OFFCURVE",
"187 698 OFFCURVE",
"206.5 698 CURVE SMOOTH",
"226 698 OFFCURVE",
"261 649 OFFCURVE",
"261 596 CURVE SMOOTH",
"261 569 OFFCURVE",
"243.667 490.333 OFFCURVE",
"209 359 CURVE",
"376 587 OFFCURVE",
"505 692 OFFCURVE",
"529 692 CURVE SMOOTH",
"556 692 OFFCURVE",
"584 672 OFFCURVE",
"584 656 CURVE SMOOTH",
"584 628 OFFCURVE",
"355 438 OFFCURVE",
"272 320 CURVE",
"272 230 OFFCURVE",
"336 147 OFFCURVE",
"438 98 CURVE SMOOTH",
"488 74 OFFCURVE",
"538 52 OFFCURVE",
"538 26 CURVE SMOOTH",
"538 9 OFFCURVE",
"525 0 OFFCURVE",
"499 0 CURVE SMOOTH",
"382 0 OFFCURVE",
"235 109 OFFCURVE",
"204 251 CURVE",
"183 214 OFFCURVE",
"164 166 OFFCURVE",
"146 106 CURVE SMOOTH",
"124 35 OFFCURVE",
"118 0 OFFCURVE",
"104 0 CURVE SMOOTH"
);
}
);
width = 591;
},
{
anchors = (
{
name = bottom;
position = "{314, 0}";
},
{
name = top;
position = "{301, 700}";
}
);
associatedMasterId = "FF2DC345-5101-49B6-97F3-57A040F7C387";
layerId = "C28013D9-422D-4E07-AE30-BA345EB36AA3";
name = "Mar 30, 22, 19:08";
paths = (
{
closed = 1;
nodes = (
"113 0 OFFCURVE",
"146 106 QCURVE SMOOTH",
"173 196 OFFCURVE",
"204 251 QCURVE",
"217 192 OFFCURVE",
"288 93 OFFCURVE",
"374 33 OFFCURVE",
"460 0 OFFCURVE",
"538 0 OFFCURVE",
"538 26 QCURVE SMOOTH",
"538 43 OFFCURVE",
"485 75 OFFCURVE",
"438 98 QCURVE SMOOTH",
"329 151 OFFCURVE",
"294 231 QCURVE SMOOTH",
"272 279 OFFCURVE",
"272 320 QCURVE",
"329 398 OFFCURVE",
"489 554 OFFCURVE",
"584 641 OFFCURVE",
"584 666 OFFCURVE",
"549 692 OFFCURVE",
"529 692 QCURVE SMOOTH",
"502 692 OFFCURVE",
"300 483 OFFCURVE",
"209 359 QCURVE",
"261 556 OFFCURVE",
"261 636 OFFCURVE",
"221 698 OFFCURVE",
"192 698 OFFCURVE",
"184 684 OFFCURVE",
"184 666 QCURVE SMOOTH",
"184 602 OFFCURVE",
"54 98 OFFCURVE",
"54 47 OFFCURVE",
"91 0 OFFCURVE",
"105 0 QCURVE SMOOTH",
"106 0 LINE SMOOTH"
);
}
);
visible = 1;
width = 591;
}
);
leftKerningGroup = I;
rightKerningGroup = K;
unicode = 004B;
userData = {
com.typemytype.robofont.guides = (
{
angle = 0;
isGlobal = 0;
magnetic = 5;
x = 0;
y = 365;
},
{
angle = 90;
isGlobal = 0;
magnetic = 5;
x = 547;
y = 0;
},
{
angle = 90;
isGlobal = 0;
magnetic = 5;
x = 94;
y = 0;
},
{
angle = 90;
isGlobal = 0;
magnetic = 5;
x = 139;
y = 0;
}
);
};
},
{
color = 5;
glyphname = L;
layers = (
{
anchors = (
{
name = bottom;
position = "{308, 0}";
},
{
name = center;
position = "{281, 350}";
},
{
name = top;
position = "{133, 700}";
},
{
name = topright;
position = "{355, 682}";
}
);
layerId = "FF2DC345-5101-49B6-97F3-57A040F7C387";
paths = (
{
closed = 1;
nodes = (
"117 -3 OFFCURVE",
"62 40 OFFCURVE",
"62 91.5 CURVE SMOOTH",
"62 178 OFFCURVE",
"199 539 OFFCURVE",
"199 675 CURVE SMOOTH",
"199 696 OFFCURVE",
"203 705 OFFCURVE",
"222.5 705 CURVE SMOOTH",
"242 705 OFFCURVE",
"281 664 OFFCURVE",
"281 627 CURVE SMOOTH",
"281 524 OFFCURVE",
"152 154 OFFCURVE",
"152 108 CURVE SMOOTH",
"152 90 OFFCURVE",
"161 81 OFFCURVE",
"178 81 CURVE SMOOTH",
"329 81 OFFCURVE",
"440 130 OFFCURVE",
"477 130 CURVE SMOOTH",
"488 130 OFFCURVE",
"492 125 OFFCURVE",
"492 113 CURVE SMOOTH",
"492 57 OFFCURVE",
"322 -3 OFFCURVE",
"181 -3 CURVE SMOOTH"
);
}
);
width = 546;
},
{
anchors = (
{
name = bottom;
position = "{308, 0}";
},
{
name = center;
position = "{281, 350}";
},
{
name = top;
position = "{133, 700}";
},
{
name = topright;
position = "{355, 682}";
}
);
associatedMasterId = "FF2DC345-5101-49B6-97F3-57A040F7C387";
layerId = "F1BEC47F-6699-4D95-B797-DBFA95468412";
name = "Mar 30, 22, 19:14";
paths = (
{
closed = 1;
nodes = (
"199 606 OFFCURVE",
"62 130 OFFCURVE",
"62 53 OFFCURVE",
"133 -3 OFFCURVE",
"181 -3 QCURVE SMOOTH",
"287 -3 OFFCURVE",
"492 71 OFFCURVE",
"492 113 QCURVE SMOOTH",
"492 123 OFFCURVE",
"486 130 OFFCURVE",
"469 130 OFFCURVE",
"426 118 QCURVE SMOOTH",
"291 81 OFFCURVE",
"178 81 QCURVE SMOOTH",
"152 81 OFFCURVE",
"152 135 OFFCURVE",
"195 273 QCURVE SMOOTH",
"281 557 OFFCURVE",
"281 627 QCURVE SMOOTH",
"281 655 OFFCURVE",
"237 705 OFFCURVE",
"208 705 OFFCURVE",
"199 691 OFFCURVE",
"199 675 QCURVE SMOOTH"
);
}
);
visible = 1;
width = 546;
}
);
leftKerningGroup = I;
rightKerningGroup = L;
unicode = 004C;
},
{
color = 5;
glyphname = M;
layers = (
{
anchors = (
{
name = bottom;
position = "{397, 0}";
},
{
name = top;
position = "{457, 700}";
}
);
hints = (
{
horizontal = 1;
place = "{0, 0}";
type = Tag;
}
);
layerId = "FF2DC345-5101-49B6-97F3-57A040F7C387";
paths = (
{
closed = 1;
nodes = (
"88 0 OFFCURVE",
"56 44 OFFCURVE",
"56 76 CURVE SMOOTH",
"56 158 OFFCURVE",
"185 509 OFFCURVE",
"185 668 CURVE SMOOTH",
"185 691 OFFCURVE",
"190 698 OFFCURVE",
"206.5 698 CURVE SMOOTH",
"223 698 OFFCURVE",
"280.333 651 OFFCURVE",
"283 623 CURVE SMOOTH",
"288.333 575 OFFCURVE",
"340.333 435.333 OFFCURVE",
"399 310 CURVE",
"549.252 487.083 OFFCURVE",
"681 687 OFFCURVE",
"725 687 CURVE SMOOTH",
"749 687 OFFCURVE",
"783 653 OFFCURVE",
"783 629 CURVE SMOOTH",
"783 553 OFFCURVE",
"683 240 OFFCURVE",
"642 58 CURVE SMOOTH",
"633 19 OFFCURVE",
"622 0 OFFCURVE",
"613.5 0 CURVE SMOOTH",
"593 0 OFFCURVE",
"574 38 OFFCURVE",
"574 88.5 CURVE SMOOTH",
"574 142 OFFCURVE",
"629.667 382.667 OFFCURVE",
"683 528 CURVE",
"560.333 374.667 OFFCURVE",
"442 208 OFFCURVE",
"382 208 CURVE SMOOTH",
"325 208 OFFCURVE",
"278.667 355.667 OFFCURVE",
"238 485 CURVE",
"215 343 OFFCURVE",
"175 210 OFFCURVE",
"152 129 CURVE SMOOTH",
"132 56 OFFCURVE",
"115 0 OFFCURVE",
"104 0 CURVE SMOOTH"
);
}
);
width = 789;
},
{
anchors = (
{
name = bottom;
position = "{397, 0}";
},
{
name = top;
position = "{397, 700}";
}
);
associatedMasterId = "FF2DC345-5101-49B6-97F3-57A040F7C387";
hints = (
{
horizontal = 1;
place = "{0, 0}";
type = Tag;
}
);
layerId = "DBF2EE76-2E85-4774-AA8A-8F10B126E390";
name = "Mar 30, 22, 19:28";
paths = (
{
closed = 1;
nodes = (
"185 604 OFFCURVE",
"56 100 OFFCURVE",
"56 52 OFFCURVE",
"92 0 OFFCURVE",
"104 0 QCURVE SMOOTH",
"108 0 OFFCURVE",
"116 17 QCURVE SMOOTH",
"120 26 OFFCURVE",
"127 46 OFFCURVE",
"137 79 OFFCURVE",
"146 107 OFFCURVE",
"158 150 OFFCURVE",
"167 182 OFFCURVE",
"180 231 OFFCURVE",
"221 380 OFFCURVE",
"238 485 QCURVE",
"299 291 OFFCURVE",
"335 239 QCURVE SMOOTH",
"359 208 OFFCURVE",
"414 208 OFFCURVE",
"499 298 OFFCURVE",
"683 528 QCURVE",
"643 419 OFFCURVE",
"574 129 OFFCURVE",
"574 48 OFFCURVE",
"600 0 OFFCURVE",
"627 0 OFFCURVE",
"642 58 QCURVE SMOOTH",
"650 88 OFFCURVE",
"665 151 OFFCURVE",
"689 250 OFFCURVE",
"707 319 OFFCURVE",
"741 435 OFFCURVE",
"756 490 OFFCURVE",
"775 565 OFFCURVE",
"783 611 OFFCURVE",
"783 647 OFFCURVE",
"743 687 OFFCURVE",
"707 687 OFFCURVE",
"625 595 OFFCURVE",
"455 376 OFFCURVE",
"399 310 QCURVE",
"355 404 OFFCURVE",
"287 587 OFFCURVE",
"283 623 QCURVE SMOOTH",
"281 644 OFFCURVE",
"219 698 OFFCURVE",
"194 698 OFFCURVE",
"185 685 OFFCURVE",
"185 668 QCURVE SMOOTH"
);
}
);
visible = 1;
width = 789;
}
);
leftKerningGroup = I;
rightKerningGroup = I;
unicode = 004D;
userData = {
com.typemytype.robofont.guides = (
{
angle = 0;
isGlobal = 0;
magnetic = 5;
x = 0;
y = 168;
},
{
angle = 0;
isGlobal = 0;
magnetic = 5;
x = 0;
y = 9;
},
{
angle = 0;
isGlobal = 0;
magnetic = 5;
x = 0;
y = 691;
},
{
angle = 90;
isGlobal = 0;
magnetic = 5;
x = 126;
y = 0;
},
{
angle = 90;
isGlobal = 0;
magnetic = 5;
x = 636;
y = 0;
}
);
};
},
{
color = 5;
glyphname = N;
layers = (
{
anchors = (
{
name = bottom;
position = "{280, 0}";
},
{
name = top;
position = "{417, 700}";
}
);
layerId = "FF2DC345-5101-49B6-97F3-57A040F7C387";
paths = (
{
closed = 1;
nodes = (
"135 -3 OFFCURVE",
"165 221 OFFCURVE",
"239 486 CURVE",
"361 203 OFFCURVE",
"404 -3 OFFCURVE",
"471 -3 CURVE SMOOTH",
"571 -3 OFFCURVE",
"645 543 OFFCURVE",
"645 632 CURVE SMOOTH",
"645 663 OFFCURVE",
"607.167 703 OFFCURVE",
"582.5 703 CURVE SMOOTH",
"570.167 703 OFFCURVE",
"562 689 OFFCURVE",
"562 660 CURVE SMOOTH",
"562 587 OFFCURVE",
"529 299 OFFCURVE",
"465 130 CURVE",
"436.333 192.667 OFFCURVE",
"368.333 363.333 OFFCURVE",
"261 642 CURVE SMOOTH",
"249 671.333 OFFCURVE",
"216.667 701 OFFCURVE",
"202 701 CURVE SMOOTH",
"190.667 701 OFFCURVE",
"185 690 OFFCURVE",
"185 669 CURVE SMOOTH",
"185 562 OFFCURVE",
"53 125 OFFCURVE",
"53 68 CURVE SMOOTH",
"53 36 OFFCURVE",
"76 -3 OFFCURVE",
"99 -3 CURVE SMOOTH"
);
}
);
width = 677;
},
{
anchors = (
{
name = bottom;
position = "{280, 0}";
},
{
name = top;
position = "{417, 700}";
}
);
associatedMasterId = "FF2DC345-5101-49B6-97F3-57A040F7C387";
layerId = "9691A5DF-13FF-4830-B36F-219D79C05036";
name = "Mar 30, 22, 20:07";
paths = (
{
closed = 1;
nodes = (
"552 541 QCURVE SMOOTH",
"530 302 OFFCURVE",
"465 130 QCURVE",
"422 224 OFFCURVE",
"261 642 QCURVE SMOOTH",
"252 664 OFFCURVE",
"213 701 OFFCURVE",
"202 701 QCURVE SMOOTH",
"185 701 OFFCURVE",
"185 669 QCURVE SMOOTH",
"183 605 OFFCURVE",
"53 90 OFFCURVE",
"53 42 OFFCURVE",
"90 -3 OFFCURVE",
"103 -3 QCURVE SMOOTH",
"112 -3 OFFCURVE",
"136 77 OFFCURVE",
"209 370 OFFCURVE",
"239 486 QCURVE",
"386 112 OFFCURVE",
"416 42 QCURVE SMOOTH",
"425 23 OFFCURVE",
"458 -3 OFFCURVE",
"471 -3 QCURVE SMOOTH",
"509 -3 OFFCURVE",
"594 255 OFFCURVE",
"645 557 OFFCURVE",
"645 639 QCURVE SMOOTH",
"645 657 OFFCURVE",
"601 703 OFFCURVE",
"564 703 OFFCURVE",
"562 660 QCURVE SMOOTH",
"562 651 OFFCURVE"
);
}
);
visible = 1;
width = 677;
}
);
leftKerningGroup = I;
rightKerningGroup = I;
unicode = 004E;
userData = {
com.typemytype.robofont.guides = (
{
angle = 0;
isGlobal = 0;
magnetic = 5;
x = 0;
y = 9;
},
{
angle = 0;
isGlobal = 0;
magnetic = 5;
x = 0;
y = 691;
},
{
angle = 90;
isGlobal = 0;
magnetic = 5;
x = 540;
y = 0;
},
{
angle = 90;
isGlobal = 0;
magnetic = 5;
x = 125;
y = 0;
}
);
};
},
{
color = 5;
glyphname = O;
layers = (
{
anchors = (
{
name = bottom;
position = "{339, 0}";
},
{
name = center;
position = "{339, 350}";
},
{
name = ogonek;
position = "{610, 10}";
},
{
name = top;
position = "{379, 700}";
},
{
name = topleft;
position = "{140, 700}";
},
{
name = topright;
position = "{587, 700}";
}
);
layerId = "FF2DC345-5101-49B6-97F3-57A040F7C387";
paths = (
{
closed = 1;
nodes = (
"335 76 OFFCURVE",
"500 296 OFFCURVE",
"500 444 CURVE SMOOTH",
"500 547 OFFCURVE",
"454 617 OFFCURVE",
"401 617 CURVE SMOOTH",
"299 617 OFFCURVE",
"145 357 OFFCURVE",
"145 200 CURVE SMOOTH",
"145 127 OFFCURVE",
"182 76 OFFCURVE",
"225 76 CURVE SMOOTH"
);
},
{
closed = 1;
nodes = (
"131 -3 OFFCURVE",
"54 105 OFFCURVE",
"54 194 CURVE SMOOTH",
"54 434 OFFCURVE",
"247 702 OFFCURVE",
"396 702 CURVE SMOOTH",
"508 702 OFFCURVE",
"592 581 OFFCURVE",
"592 453 CURVE SMOOTH",
"592 263 OFFCURVE",
"409 -3 OFFCURVE",
"219 -3 CURVE SMOOTH"
);
}
);
width = 613;
},
{
anchors = (
{
name = bottom;
position = "{339, 0}";
},
{
name = center;
position = "{339, 350}";
},
{
name = ogonek;
position = "{610, 10}";
},
{
name = top;
position = "{379, 700}";
},
{
name = topleft;
position = "{140, 700}";
},
{
name = topright;
position = "{587, 700}";
}
);
associatedMasterId = "FF2DC345-5101-49B6-97F3-57A040F7C387";
layerId = "EAEFD2C3-9E95-48A4-87F3-D8AAF4F11596";
name = "Mar 30, 22, 20:31";
paths = (
{
closed = 1;
nodes = (
"225 76 QCURVE SMOOTH",
"193 76 OFFCURVE",
"145 145 OFFCURVE",
"145 200 QCURVE SMOOTH",
"145 292 OFFCURVE",
"241 493 OFFCURVE",
"361 617 OFFCURVE",
"441 617 OFFCURVE",
"500 521 OFFCURVE",
"500 367 OFFCURVE",
"406 194 OFFCURVE",
"275 76 OFFCURVE"
);
},
{
closed = 1;
nodes = (
"486 146 OFFCURVE",
"592 357 OFFCURVE",
"592 549 OFFCURVE",
"480 702 OFFCURVE",
"396 702 QCURVE SMOOTH",
"344 702 OFFCURVE",
"222 613 OFFCURVE",
"121 473 OFFCURVE",
"54 285 OFFCURVE",
"54 194 QCURVE SMOOTH",
"54 127 OFFCURVE",
"153 -3 OFFCURVE",
"219 -3 QCURVE SMOOTH",
"309 -3 OFFCURVE"
);
}
);
visible = 1;
width = 613;
}
);
leftKerningGroup = O;
rightKerningGroup = O;
unicode = 004F;
userData = {
com.typemytype.robofont.guides = (
{
angle = 0;
isGlobal = 0;
magnetic = 5;
x = 0;
y = "-10";
},
{
angle = 0;
isGlobal = 0;
magnetic = 5;
x = 0;
y = 710;
},
{
angle = 0;
isGlobal = 0;
magnetic = 5;
x = 0;
y = 335;
},
{
angle = 0;
isGlobal = 0;
magnetic = 5;
x = 0;
y = 434;
},
{
angle = 0;
isGlobal = 0;
magnetic = 5;
x = 0;
y = 266;
},
{
angle = 90;
isGlobal = 0;
magnetic = 5;
x = 496;
y = 0;
}
);
};
},
{
color = 5;
glyphname = OE;
layers = (
{
anchors = (
{
name = bottom;
position = "{460, 0}";
},
{
name = top;
position = "{460, 700}";
}
);
hints = (
{
horizontal = 1;
place = "{0, 0}";
type = Tag;
}
);
layerId = "FF2DC345-5101-49B6-97F3-57A040F7C387";
paths = (
{
closed = 1;
nodes = (
"844 0 LINE",
"859 0 OFFCURVE",
"868 10 OFFCURVE",
"868 23 CURVE",
"868 62 LINE",
"868 76 OFFCURVE",
"859 85 OFFCURVE",
"844 85 CURVE",
"533 85 LINE",
"533 312 LINE",
"814 312 LINE",
"829 312 OFFCURVE",
"838 322 OFFCURVE",
"838 335 CURVE",
"838 372 LINE",
"838 386 OFFCURVE",
"829 396 OFFCURVE",
"814 396 CURVE",
"533 396 LINE",
"533 615 LINE",
"836 615 LINE",
"851 615 OFFCURVE",
"860 624 OFFCURVE",
"860 638 CURVE",
"860 676 LINE",
"860 690 OFFCURVE",
"851 700 OFFCURVE",
"836 700 CURVE",
"352 700 LINE",
"145 700 OFFCURVE",
"67 604 OFFCURVE",
"63 429 CURVE SMOOTH",
"62 370 OFFCURVE",
"62 331 OFFCURVE",
"63 272 CURVE SMOOTH",
"68 87 OFFCURVE",
"144 0 OFFCURVE",
"347 0 CURVE"
);
},
{
closed = 1;
nodes = (
"215 85 OFFCURVE",
"165 139 OFFCURVE",
"162 276 CURVE SMOOTH",
"161 335 OFFCURVE",
"161 366 OFFCURVE",
"162 425 CURVE SMOOTH",
"165 554 OFFCURVE",
"219 615 OFFCURVE",
"357 615 CURVE",
"437 615 LINE",
"437 85 LINE",
"352 85 LINE"
);
}
);
width = 919.125;
}
);
leftKerningGroup = O;
rightKerningGroup = E;
unicode = 0152;
userData = {
com.typemytype.robofont.guides = (
{
angle = 90;
isGlobal = 0;
magnetic = 5;
x = 842;
y = 0;
},
{
angle = 90;
isGlobal = 0;
magnetic = 5;
x = 66;
y = 0;
},
{
angle = 90;
isGlobal = 0;
magnetic = 5;
x = 439;
y = 0;
},
{
angle = 90;
isGlobal = 0;
magnetic = 5;
x = 502;
y = 0;
}
);
};
},
{
color = 5;
glyphname = P;
layers = (
{
anchors = (
{
name = bottom;
position = "{321, 0}";
},
{
name = top;
position = "{321, 700}";
}
);
hints = (
{
horizontal = 1;
place = "{0, 0}";
type = Tag;
}
);
layerId = "FF2DC345-5101-49B6-97F3-57A040F7C387";
paths = (
{
closed = 1;
nodes = (
"104 -5 OFFCURVE",
"133.333 77.333 OFFCURVE",
"182 242 CURVE",
"408.667 286 OFFCURVE",
"559 389 OFFCURVE",
"559 533 CURVE SMOOTH",
"559 638 OFFCURVE",
"468 710 OFFCURVE",
"340 710 CURVE SMOOTH",
"257 710 OFFCURVE",
"142 672 OFFCURVE",
"142 639 CURVE SMOOTH",
"142 627 OFFCURVE",
"150 613.667 OFFCURVE",
"166 599 CURVE",
"163 433 OFFCURVE",
"43 126 OFFCURVE",
"43 62.5 CURVE SMOOTH",
"43 32 OFFCURVE",
"76 -5 OFFCURVE",
"95 -5 CURVE SMOOTH"
);
},
{
closed = 1;
nodes = (
"236.667 440.667 OFFCURVE",
"253 520 OFFCURVE",
"253 557 CURVE SMOOTH",
"253 570 OFFCURVE",
"249.667 583.333 OFFCURVE",
"243 598 CURVE",
"289 619 OFFCURVE",
"318 628 OFFCURVE",
"362 628 CURVE SMOOTH",
"419 628 OFFCURVE",
"471 586 OFFCURVE",
"471 527 CURVE SMOOTH",
"471 444 OFFCURVE",
"364 362.667 OFFCURVE",
"204 320 CURVE"
);
}
);
width = 543;
},
{
anchors = (
{
name = bottom;
position = "{321, 0}";
},
{
name = top;
position = "{321, 700}";
}
);
associatedMasterId = "FF2DC345-5101-49B6-97F3-57A040F7C387";
hints = (
{
horizontal = 1;
place = "{0, 0}";
type = Tag;
}
);
layerId = "F32F21AB-94A9-4421-8ED6-A38FB5793AEA";
name = "Mar 30, 22, 20:36";
paths = (
{
closed = 1;
nodes = (
"436 710 OFFCURVE",
"340 710 QCURVE SMOOTH",
"278 710 OFFCURVE",
"142 664 OFFCURVE",
"142 639 QCURVE SMOOTH",
"142 621 OFFCURVE",
"166 599 QCURVE",
"162 481 OFFCURVE",
"72 182 QCURVE SMOOTH",
"43 85 OFFCURVE",
"43 40 OFFCURVE",
"81 -5 OFFCURVE",
"109 -5 OFFCURVE",
"182 242 QCURVE",
"352 275 OFFCURVE",
"559 425 OFFCURVE",
"559 533 QCURVE SMOOTH",
"559 612 OFFCURVE"
);
},
{
closed = 1;
nodes = (
"324 352 OFFCURVE",
"204 320 QCURVE",
"253 501 OFFCURVE",
"253 557 QCURVE SMOOTH",
"253 576 OFFCURVE",
"243 598 QCURVE",
"310 628 OFFCURVE",
"404 628 OFFCURVE",
"471 571 OFFCURVE",
"471 527 QCURVE SMOOTH",
"471 465 OFFCURVE"
);
}
);
visible = 1;
width = 543;
}
);
leftKerningGroup = I;
unicode = 0050;
userData = {
com.typemytype.robofont.guides = (
{
angle = 0;
isGlobal = 0;
magnetic = 5;
x = 0;
y = 493;
},
{
angle = 0;
isGlobal = 0;
magnetic = 5;
x = 0;
y = 403;
},
{
angle = 0;
isGlobal = 0;
magnetic = 5;
x = 0;
y = 218;
},
{
angle = 0;
isGlobal = 0;
magnetic = 5;
x = 0;
y = 310;
},
{
angle = 0;
isGlobal = 0;
magnetic = 5;
x = 0;
y = 9;
},
{
angle = 0;
isGlobal = 0;
magnetic = 5;
x = 0;
y = 691;
},
{
angle = 90;
isGlobal = 0;
magnetic = 5;
x = 345;
y = 0;
},
{
angle = 90;
isGlobal = 0;
magnetic = 5;
x = 94;
y = 0;
},
{
angle = 90;
isGlobal = 0;
magnetic = 5;
x = 139;
y = 0;
}
);
};
},
{
color = 5;
glyphname = Thorn;
layers = (
{
anchors = (
{
name = bottom;
position = "{324, 0}";
},
{
name = top;
position = "{324, 700}";
}
);
hints = (
{
horizontal = 1;
place = "{0, 0}";
type = Tag;
}
);
layerId = "FF2DC345-5101-49B6-97F3-57A040F7C387";
paths = (
{
closed = 1;
nodes = (
"163 0 LINE",
"177 0 OFFCURVE",
"187 10 OFFCURVE",
"187 23 CURVE",
"187 139 LINE",
"363 139 LINE",
"512 139 OFFCURVE",
"607 210 OFFCURVE",
"607 351 CURVE SMOOTH",
"607 493 OFFCURVE",
"512 565 OFFCURVE",
"363 565 CURVE",
"187 565 LINE",
"187 677 LINE",
"187 690 OFFCURVE",
"177 700 OFFCURVE",
"164 700 CURVE",
"110 700 LINE",
"96 700 OFFCURVE",
"87 690 OFFCURVE",
"87 677 CURVE",
"87 23 LINE",
"87 10 OFFCURVE",
"96 0 OFFCURVE",
"110 0 CURVE"
);
},
{
closed = 1;
nodes = (
"186 482 LINE",
"359 482 LINE",
"460 482 OFFCURVE",
"507 433 OFFCURVE",
"507 352 CURVE SMOOTH",
"507 267 OFFCURVE",
"457 222 OFFCURVE",
"359 222 CURVE",
"186 222 LINE"
);
}
);
width = 646.5;
}
);
leftKerningGroup = I;
unicode = 00DE;
userData = {
com.typemytype.robofont.guides = (
{
angle = 0;
isGlobal = 0;
magnetic = 5;
x = 0;
y = 119;
},
{
angle = 0;
isGlobal = 0;
magnetic = 5;
x = 0;
y = 601;
},
{
angle = 0;
isGlobal = 0;
magnetic = 5;
x = 0;
y = 570;
},
{
angle = 0;
isGlobal = 0;
magnetic = 5;
x = 0;
y = 350;
}
);
};
},
{
color = 5;
glyphname = Q;
layers = (
{
anchors = (
{
name = bottom;
position = "{339, 0}";
},
{
name = top;
position = "{409, 700}";
}
);
hints = (
{
horizontal = 1;
place = "{0, 0}";
type = Tag;
}
);
layerId = "FF2DC345-5101-49B6-97F3-57A040F7C387";
paths = (
{
closed = 1;
nodes = (
"151.667 0 OFFCURVE",
"57 95 OFFCURVE",
"57 194 CURVE SMOOTH",
"57 395 OFFCURVE",
"215 699 OFFCURVE",
"396 699 CURVE SMOOTH",
"508 699 OFFCURVE",
"607 578.833 OFFCURVE",
"607 451.5 CURVE SMOOTH",
"607 324.167 OFFCURVE",
"533 170 OFFCURVE",
"429 78 CURVE",
"466.939 -27.688 OFFCURVE",
"505 -105.257 OFFCURVE",
"505 -136 CURVE SMOOTH",
"505 -151.333 OFFCURVE",
"496.667 -159 OFFCURVE",
"480 -159 CURVE SMOOTH",
"450 -159 OFFCURVE",
"410.667 -95.333 OFFCURVE",
"362 32 CURVE",
"321.333 10.667 OFFCURVE",
"279.667 0 OFFCURVE",
"237 0 CURVE SMOOTH"
);
},
{
closed = 1;
nodes = (
"466 251 OFFCURVE",
"516 354.333 OFFCURVE",
"516 449 CURVE SMOOTH",
"516 543.667 OFFCURVE",
"457.667 616 OFFCURVE",
"403 616 CURVE SMOOTH",
"392.333 616 OFFCURVE",
"380.667 613.333 OFFCURVE",
"368 608 CURVE",
"352.667 586.667 OFFCURVE",
"345 554.333 OFFCURVE",
"345 511 CURVE SMOOTH",
"345 402.333 OFFCURVE",
"362.667 289 OFFCURVE",
"398 171 CURVE"
);
},
{
closed = 1;
nodes = (
"278 76 OFFCURVE",
"304 89 OFFCURVE",
"334 111 CURVE",
"286.667 259 OFFCURVE",
"263 374.333 OFFCURVE",
"263 457 CURVE SMOOTH",
"263 483 OFFCURVE",
"265.333 505.667 OFFCURVE",
"270 525 CURVE",
"198 437 OFFCURVE",
"145 310 OFFCURVE",
"145 201 CURVE SMOOTH",
"145 134 OFFCURVE",
"195 76 OFFCURVE",
"254 76 CURVE SMOOTH"
);
}
);
width = 641;
},
{
anchors = (
{
name = bottom;
position = "{339, 0}";
},
{
name = top;
position = "{339, 700}";
}
);
associatedMasterId = "FF2DC345-5101-49B6-97F3-57A040F7C387";
hints = (
{
horizontal = 1;
place = "{0, 0}";
type = Tag;
}
);
layerId = "74EB32DE-D35F-4442-8A70-DBD688BCA1EB";
name = "Mar 30, 22, 20:42";
paths = (
{
closed = 1;
nodes = (
"343 699 OFFCURVE",
"222 612 OFFCURVE",
"123 475 OFFCURVE",
"57 287 OFFCURVE",
"57 194 QCURVE SMOOTH",
"57 120 OFFCURVE",
"173 0 OFFCURVE",
"301 0 OFFCURVE",
"362 32 QCURVE",
"435 -159 OFFCURVE",
"480 -159 QCURVE SMOOTH",
"505 -159 OFFCURVE",
"505 -136 QCURVE SMOOTH",
"505 -121 OFFCURVE",
"485 -66 OFFCURVE",
"443 39 OFFCURVE",
"429 78 QCURVE",
"507 147 OFFCURVE",
"607 356 OFFCURVE",
"607 547 OFFCURVE",
"480 699 OFFCURVE",
"396 699 QCURVE SMOOTH"
);
},
{
closed = 1;
nodes = (
"345 348 OFFCURVE",
"345 511 QCURVE SMOOTH",
"345 576 OFFCURVE",
"368 608 QCURVE",
"387 616 OFFCURVE",
"403 616 QCURVE SMOOTH",
"444 616 OFFCURVE",
"516 520 OFFCURVE",
"516 378 OFFCURVE",
"449 231 OFFCURVE",
"398 171 QCURVE"
);
},
{
closed = 1;
nodes = (
"145 283 OFFCURVE",
"216 459 OFFCURVE",
"270 525 QCURVE",
"263 496 OFFCURVE",
"263 457 QCURVE SMOOTH",
"263 333 OFFCURVE",
"334 111 QCURVE",
"286 76 OFFCURVE",
"210 76 OFFCURVE",
"145 146 OFFCURVE",
"145 201 QCURVE SMOOTH"
);
}
);
visible = 1;
width = 641;
}
);
leftKerningGroup = O;
rightKerningGroup = O;
unicode = 0051;
userData = {
com.typemytype.robofont.guides = (
{
angle = 0;
isGlobal = 0;
magnetic = 5;
x = 0;
y = 710;
},
{
angle = 0;
isGlobal = 0;
magnetic = 5;
x = 0;
y = "-10";
},
{
angle = 0;
isGlobal = 0;
magnetic = 5;
x = 0;
y = "-56";
},
{
angle = 90;
isGlobal = 0;
magnetic = 5;
x = 82;
y = 0;
},
{
angle = 90;
isGlobal = 0;
magnetic = 5;
x = 750;
y = 0;
},
{
angle = 90;
isGlobal = 0;
magnetic = 5;
x = 580;
y = 0;
}
);
};
},
{
color = 5;
glyphname = R;
layers = (
{
anchors = (
{
name = bottom;
position = "{262, 0}";
},
{
name = top;
position = "{387, 700}";
}
);
layerId = "FF2DC345-5101-49B6-97F3-57A040F7C387";
paths = (
{
closed = 1;
nodes = (
"118 -4 OFFCURVE",
"163 175 OFFCURVE",
"194 279 CURVE",
"227.333 181.667 OFFCURVE",
"421 -3 OFFCURVE",
"501 -3 CURVE SMOOTH",
"523 -3 OFFCURVE",
"534 5 OFFCURVE",
"534 21 CURVE SMOOTH",
"534 40 OFFCURVE",
"520 54 OFFCURVE",
"407 147.5 CURVE SMOOTH",
"294 241 OFFCURVE",
"289 269 OFFCURVE",
"289 284 CURVE SMOOTH",
"289 298 OFFCURVE",
"316 302 OFFCURVE",
"460 389 CURVE SMOOTH",
"514 422 OFFCURVE",
"554 485 OFFCURVE",
"554 550 CURVE SMOOTH",
"554 646 OFFCURVE",
"460 701 OFFCURVE",
"350.5 701 CURVE SMOOTH",
"240 701 OFFCURVE",
"132 659 OFFCURVE",
"132 629 CURVE SMOOTH",
"132 612 OFFCURVE",
"147.667 584.667 OFFCURVE",
"165 574 CURVE",
"149.918 383.585 OFFCURVE",
"47 127 OFFCURVE",
"47 62.5 CURVE SMOOTH",
"47 33 OFFCURVE",
"80 -4 OFFCURVE",
"93 -4 CURVE SMOOTH"
);
},
{
closed = 1;
nodes = (
"237 432 OFFCURVE",
"251 504 OFFCURVE",
"251 547 CURVE SMOOTH",
"251 559 OFFCURVE",
"247.667 572.333 OFFCURVE",
"241 587 CURVE",
"284.333 603.667 OFFCURVE",
"322 612 OFFCURVE",
"355 612 CURVE SMOOTH",
"427 612 OFFCURVE",
"463 591 OFFCURVE",
"463 550 CURVE SMOOTH",
"463 438 OFFCURVE",
"292 395 OFFCURVE",
"209 332 CURVE"
);
}
);
width = 584;
},
{
anchors = (
{
name = bottom;
position = "{262, 0}";
},
{
name = top;
position = "{387, 700}";
}
);
associatedMasterId = "FF2DC345-5101-49B6-97F3-57A040F7C387";
layerId = "00D65C31-0394-4905-9286-6B6A4816B141";
name = "Mar 30, 22, 21:02";
paths = (
{
closed = 1;
nodes = (
"124 48 QCURVE SMOOTH",
"133 74 OFFCURVE",
"147 123 OFFCURVE",
"194 279 QCURVE",
"219 206 OFFCURVE",
"441 -3 OFFCURVE",
"501 -3 QCURVE SMOOTH",
"534 -3 OFFCURVE",
"534 21 QCURVE SMOOTH",
"534 35 OFFCURVE",
"509 58 QCURVE SMOOTH",
"496 70 OFFCURVE",
"471 92 OFFCURVE",
"430 126 OFFCURVE",
"384 169 OFFCURVE",
"356 195 OFFCURVE",
"287 265 OFFCURVE",
"287 287 QCURVE SMOOTH",
"287 293 OFFCURVE",
"342 320 OFFCURVE",
"420 362 OFFCURVE",
"499 416 OFFCURVE",
"554 501 OFFCURVE",
"554 550 QCURVE SMOOTH",
"554 622 OFFCURVE",
"433 701 OFFCURVE",
"268 701 OFFCURVE",
"132 652 OFFCURVE",
"132 629 QCURVE SMOOTH",
"132 616 OFFCURVE",
"152 582 OFFCURVE",
"165 574 QCURVE",
"157 473 OFFCURVE",
"47 85 OFFCURVE",
"47 40 OFFCURVE",
"85 -4 OFFCURVE",
"100 -4 QCURVE SMOOTH",
"108 -4 OFFCURVE"
);
},
{
closed = 1;
nodes = (
"241 587 QCURVE",
"306 612 OFFCURVE",
"355 612 QCURVE SMOOTH",
"463 612 OFFCURVE",
"463 550 QCURVE SMOOTH",
"463 511 OFFCURVE",
"399 439 OFFCURVE",
"322 396 OFFCURVE",
"226 345 OFFCURVE",
"209 332 QCURVE",
"251 482 OFFCURVE",
"251 547 QCURVE SMOOTH",
"251 565 OFFCURVE"
);
}
);
visible = 1;
width = 584;
}
);
leftKerningGroup = I;
rightKerningGroup = R;
unicode = 0052;
userData = {
com.typemytype.robofont.guides = (
{
angle = 0;
isGlobal = 0;
magnetic = 5;
x = 0;
y = 691;
},
{
angle = 0;
isGlobal = 0;
magnetic = 5;
x = 0;
y = 9;
},
{
angle = 90;
isGlobal = 0;
magnetic = 5;
x = 616;
y = 0;
},
{
angle = 90;
isGlobal = 0;
magnetic = 5;
x = 574;
y = 0;
},
{
angle = 90;
isGlobal = 0;
magnetic = 5;
x = 94;
y = 0;
},
{
angle = 90;
isGlobal = 0;
magnetic = 5;
x = 139;
y = 0;
}
);
};
},
{
color = 5;
glyphname = S;
layers = (
{
anchors = (
{
name = bottom;
position = "{313, 0}";
},
{
name = top;
position = "{382, 700}";
}
);
layerId = "FF2DC345-5101-49B6-97F3-57A040F7C387";
paths = (
{
closed = 1;
nodes = (
"97 1 OFFCURVE",
"5 85 OFFCURVE",
"5 144 CURVE SMOOTH",
"5 164 OFFCURVE",
"11 174 OFFCURVE",
"23 174 CURVE SMOOTH",
"57 174 OFFCURVE",
"104 79 OFFCURVE",
"199 79 CURVE SMOOTH",
"292 79 OFFCURVE",
"378 137 OFFCURVE",
"378 193 CURVE SMOOTH",
"378 273 OFFCURVE",
"147 412 OFFCURVE",
"147 490 CURVE SMOOTH",
"147 609 OFFCURVE",
"318 699 OFFCURVE",
"439 699 CURVE SMOOTH",
"478 699 OFFCURVE",
"508 668 OFFCURVE",
"508 640 CURVE SMOOTH",
"508 616 OFFCURVE",
"421 615 OFFCURVE",
"348 586 CURVE SMOOTH",
"271 557 OFFCURVE",
"233 536 OFFCURVE",
"233 509 CURVE SMOOTH",
"233 457 OFFCURVE",
"468 327 OFFCURVE",
"468 194 CURVE SMOOTH",
"468 85 OFFCURVE",
"352 1 OFFCURVE",
"224.5 1 CURVE SMOOTH"
);
}
);
width = 531;
},
{
anchors = (
{
name = bottom;
position = "{313, 0}";
},
{
name = top;
position = "{312, 700}";
}
);
associatedMasterId = "FF2DC345-5101-49B6-97F3-57A040F7C387";
layerId = "DDE9B47A-791B-47FE-9113-0487716FC45F";
name = "Mar 30, 22, 21:06";
paths = (
{
closed = 1;
nodes = (
"395 339 OFFCURVE",
"350 378 QCURVE SMOOTH",
"233 479 OFFCURVE",
"233 501 QCURVE SMOOTH",
"233 542 OFFCURVE",
"348 586 QCURVE SMOOTH",
"381 599 OFFCURVE",
"466 618 OFFCURVE",
"508 630 OFFCURVE",
"508 640 QCURVE SMOOTH",
"508 661 OFFCURVE",
"468 699 OFFCURVE",
"439 699 QCURVE SMOOTH",
"383 699 OFFCURVE",
"218 627 OFFCURVE",
"179 584 QCURVE SMOOTH",
"167 571 OFFCURVE",
"147 515 OFFCURVE",
"147 465 OFFCURVE",
"219 379 OFFCURVE",
"306 304 OFFCURVE",
"378 220 OFFCURVE",
"378 193 QCURVE SMOOTH",
"378 151 OFFCURVE",
"269 79 OFFCURVE",
"199 79 QCURVE SMOOTH",
"165 79 OFFCURVE",
"104 109 OFFCURVE",
"86 126 QCURVE SMOOTH",
"39 174 OFFCURVE",
"23 174 QCURVE SMOOTH",
"5 174 OFFCURVE",
"5 144 QCURVE SMOOTH",
"5 100 OFFCURVE",
"129 1 OFFCURVE",
"320 1 OFFCURVE",
"468 112 OFFCURVE",
"468 194 QCURVE SMOOTH",
"468 236 OFFCURVE"
);
}
);
visible = 1;
width = 531;
}
);
leftKerningGroup = S;
rightKerningGroup = S;
unicode = 0053;
userData = {
com.typemytype.robofont.guides = (
{
angle = 0;
isGlobal = 0;
magnetic = 5;
x = 0;
y = 355;
},
{
angle = 90;
isGlobal = 0;
magnetic = 5;
x = 306;
y = 0;
}
);
};
},
{
color = 5;
glyphname = T;
layers = (
{
anchors = (
{
name = bottom;
position = "{290, 0}";
},
{
name = center;
position = "{290, 350}";
},
{
name = top;
position = "{290, 700}";
}
);
hints = (
{
horizontal = 1;
place = "{0, 0}";
type = Tag;
}
);
layerId = "FF2DC345-5101-49B6-97F3-57A040F7C387";
paths = (
{
closed = 1;
nodes = (
"199 -1 OFFCURVE",
"167 36 OFFCURVE",
"167 67 CURVE SMOOTH",
"167 153 OFFCURVE",
"266 417 OFFCURVE",
"284 612 CURVE",
"219 611 OFFCURVE",
"158 604 OFFCURVE",
"113 604 CURVE SMOOTH",
"92 604 OFFCURVE",
"63 639 OFFCURVE",
"63 666 CURVE SMOOTH",
"63 683 OFFCURVE",
"73 694 OFFCURVE",
"373 694 CURVE SMOOTH",
"430 694 OFFCURVE",
"605 678 OFFCURVE",
"605 623 CURVE SMOOTH",
"605 610 OFFCURVE",
"594 604 OFFCURVE",
"572 604 CURVE SMOOTH",
"519 604 OFFCURVE",
"443.646 611.581 OFFCURVE",
"367 613 CURVE",
"369 606.333 OFFCURVE",
"370 599 OFFCURVE",
"370 591 CURVE SMOOTH",
"370 542 OFFCURVE",
"249.333 70 OFFCURVE",
"244 52 CURVE SMOOTH",
"234.667 16.667 OFFCURVE",
"226 -1 OFFCURVE",
"219 -1 CURVE SMOOTH"
);
}
);
width = 535;
}
);
leftKerningGroup = T;
rightKerningGroup = T;
unicode = 0054;
userData = {
com.typemytype.robofont.guides = (
{
angle = 0;
isGlobal = 0;
magnetic = 5;
x = 0;
y = 495;
},
{
angle = 0;
isGlobal = 0;
magnetic = 5;
x = 0;
y = 9;
},
{
angle = 0;
isGlobal = 0;
magnetic = 5;
x = 0;
y = 691;
},
{
angle = 0;
isGlobal = 0;
magnetic = 5;
x = 0;
y = 649;
},
{
angle = 90;
isGlobal = 0;
magnetic = 5;
x = 279;
y = 0;
},
{
angle = 90;
isGlobal = 0;
magnetic = 5;
x = 324;
y = 0;
},
{
angle = 90;
isGlobal = 0;
magnetic = 5;
x = 59;
y = 0;
},
{
angle = 90;
isGlobal = 0;
magnetic = 5;
x = 544;
y = 0;
}
);
};
},
{
color = 5;
glyphname = U;
layers = (
{
anchors = (
{
name = bottom;
position = "{351, 0}";
},
{
name = ogonek;
position = "{421, 62}";
},
{
name = top;
position = "{341, 700}";
},
{
name = topright;
position = "{581, 700}";
}
);
layerId = "FF2DC345-5101-49B6-97F3-57A040F7C387";
paths = (
{
closed = 1;
nodes = (
"462 -9 OFFCURVE",
"569 331 OFFCURVE",
"569 576 CURVE SMOOTH",
"569 648 OFFCURVE",
"516.667 699 OFFCURVE",
"486 699 CURVE SMOOTH",
"474 699 OFFCURVE",
"468 692 OFFCURVE",
"468 678 CURVE SMOOTH",
"468 641 OFFCURVE",
"477 610 OFFCURVE",
"477 542 CURVE SMOOTH",
"477 372 OFFCURVE",
"380 76 OFFCURVE",
"248 76 CURVE SMOOTH",
"204 76 OFFCURVE",
"173 127 OFFCURVE",
"173 202.5 CURVE SMOOTH",
"173 298 OFFCURVE",
"254 543 OFFCURVE",
"254 610.5 CURVE SMOOTH",
"254 658 OFFCURVE",
"211 699 OFFCURVE",
"191.5 699 CURVE SMOOTH",
"172 699 OFFCURVE",
"169 692 OFFCURVE",
"169 669 CURVE SMOOTH",
"169 543 OFFCURVE",
"85 345.916 OFFCURVE",
"85 192 CURVE SMOOTH",
"85 86.667 OFFCURVE",
"157 -9 OFFCURVE",
"241 -9 CURVE SMOOTH"
);
}
);
width = 598;
},
{
anchors = (
{
name = bottom;
position = "{351, 0}";
},
{
name = ogonek;
position = "{421, 62}";
},
{
name = top;
position = "{341, 700}";
},
{
name = topright;
position = "{581, 700}";
}
);
associatedMasterId = "FF2DC345-5101-49B6-97F3-57A040F7C387";
layerId = "89F40A54-6B60-4562-ACB0-0EE5BBA47AE1";
name = "Mar 30, 22, 21:46";
paths = (
{
closed = 1;
nodes = (
"169 610 OFFCURVE",
"85 271 OFFCURVE",
"85 113 OFFCURVE",
"178 -9 OFFCURVE",
"241 -9 QCURVE SMOOTH",
"327 -9 OFFCURVE",
"479 152 OFFCURVE",
"569 422 OFFCURVE",
"569 576 QCURVE SMOOTH",
"569 630 OFFCURVE",
"509 699 OFFCURVE",
"486 699 QCURVE SMOOTH",
"468 699 OFFCURVE",
"468 678 QCURVE SMOOTH",
"468 668 OFFCURVE",
"477 584 OFFCURVE",
"477 542 QCURVE SMOOTH",
"477 452 OFFCURVE",
"430 275 OFFCURVE",
"361 152 OFFCURVE",
"281 76 OFFCURVE",
"215 76 OFFCURVE",
"173 146 OFFCURVE",
"173 259 OFFCURVE",
"254 575 OFFCURVE",
"254 646 OFFCURVE",
"206 699 OFFCURVE",
"177 699 OFFCURVE",
"169 686 OFFCURVE",
"169 669 QCURVE SMOOTH"
);
}
);
visible = 1;
width = 598;
}
);
leftKerningGroup = U;
rightKerningGroup = U;
unicode = 0055;
userData = {
com.typemytype.robofont.guides = (
{
angle = 0;
isGlobal = 0;
magnetic = 5;
x = 0;
y = 267;
},
{
angle = 90;
isGlobal = 0;
magnetic = 5;
x = 333;
y = 0;
},
{
angle = 90;
isGlobal = 0;
magnetic = 5;
x = 535;
y = 0;
},
{
angle = 90;
isGlobal = 0;
magnetic = 5;
x = 580;
y = 0;
},
{
angle = 90;
isGlobal = 0;
magnetic = 5;
x = 84;
y = 0;
},
{
angle = 90;
isGlobal = 0;
magnetic = 5;
x = 129;
y = 0;
}
);
};
},
{
color = 5;
glyphname = V;
layers = (
{
anchors = (
{
name = bottom;
position = "{327, 0}";
},
{
name = top;
position = "{327, 700}";
}
);
hints = (
{
horizontal = 1;
place = "{0, 0}";
type = Tag;
}
);
layerId = "FF2DC345-5101-49B6-97F3-57A040F7C387";
paths = (
{
closed = 1;
nodes = (
"257 -7 OFFCURVE",
"278 10 OFFCURVE",
"296 54 CURVE SMOOTH",
"417 343 OFFCURVE",
"593 623 OFFCURVE",
"593 658.5 CURVE SMOOTH",
"593 680 OFFCURVE",
"566 698 OFFCURVE",
"545 698 CURVE SMOOTH",
"524 698 OFFCURVE",
"430 599 OFFCURVE",
"247 127 CURVE",
"227 203 OFFCURVE",
"174 602 OFFCURVE",
"164 622 CURVE SMOOTH",
"143 665 OFFCURVE",
"114 698 OFFCURVE",
"86 698 CURVE SMOOTH",
"75 698 OFFCURVE",
"69 688 OFFCURVE",
"69 667 CURVE SMOOTH",
"69 591 OFFCURVE",
"151 146.333 OFFCURVE",
"187 57 CURVE SMOOTH",
"200.333 23.667 OFFCURVE",
"227 -7 OFFCURVE",
"243 -7 CURVE SMOOTH"
);
}
);
width = 532;
},
{
anchors = (
{
name = bottom;
position = "{327, 0}";
},
{
name = top;
position = "{327, 700}";
}
);
associatedMasterId = "FF2DC345-5101-49B6-97F3-57A040F7C387";
hints = (
{
horizontal = 1;
place = "{0, 0}";
type = Tag;
}
);
layerId = "E071A364-D273-4E28-BE66-4266D1080F75";
name = "Mar 30, 22, 22:11";
paths = (
{
closed = 1;
nodes = (
"311 308 OFFCURVE",
"247 127 QCURVE",
"217 241 OFFCURVE",
"170 604 OFFCURVE",
"164 622 QCURVE SMOOTH",
"151 655 OFFCURVE",
"107 698 OFFCURVE",
"86 698 QCURVE SMOOTH",
"69 698 OFFCURVE",
"69 667 QCURVE SMOOTH",
"69 610 OFFCURVE",
"160 124 OFFCURVE",
"187 57 QCURVE SMOOTH",
"197 32 OFFCURVE",
"231 -7 OFFCURVE",
"243 -7 QCURVE SMOOTH",
"264 -7 OFFCURVE",
"296 54 QCURVE SMOOTH",
"312 87 OFFCURVE",
"345 160 OFFCURVE",
"402 283 OFFCURVE",
"466 411 OFFCURVE",
"556 570 OFFCURVE",
"593 642 OFFCURVE",
"593 675 OFFCURVE",
"561 698 OFFCURVE",
"545 698 QCURVE SMOOTH",
"513 698 OFFCURVE"
);
}
);
visible = 1;
width = 532;
}
);
unicode = 0056;
userData = {
com.typemytype.robofont.guides = (
{
angle = 0;
isGlobal = 0;
magnetic = 5;
x = 0;
y = 24;
}
);
};
},
{
color = 5;
glyphname = W;
layers = (
{
anchors = (
{
name = bottom;
position = "{400, 0}";
},
{
name = top;
position = "{400, 700}";
}
);
layerId = "FF2DC345-5101-49B6-97F3-57A040F7C387";
paths = (
{
closed = 1;
nodes = (
"188 -1 OFFCURVE",
"344 238 OFFCURVE",
"372 277 CURVE",
"379 171 OFFCURVE",
"396 0 OFFCURVE",
"505 0 CURVE SMOOTH",
"626 0 OFFCURVE",
"735 184 OFFCURVE",
"735 372 CURVE SMOOTH",
"735 560 OFFCURVE",
"654 699 OFFCURVE",
"498 699 CURVE SMOOTH",
"466 699 OFFCURVE",
"450 689.333 OFFCURVE",
"450 670 CURVE SMOOTH",
"450 647.333 OFFCURVE",
"485.833 607 OFFCURVE",
"530.5 607 CURVE SMOOTH",
"608 607 OFFCURVE",
"646 474 OFFCURVE",
"646 384 CURVE SMOOTH",
"646 237.333 OFFCURVE",
"581.667 93 OFFCURVE",
"507 93 CURVE SMOOTH",
"473.667 93 OFFCURVE",
"454.667 168.333 OFFCURVE",
"448 243 CURVE SMOOTH",
"439.333 343 OFFCURVE",
"423.667 393 OFFCURVE",
"401 393 CURVE SMOOTH",
"357 393 OFFCURVE",
"235.333 252.333 OFFCURVE",
"154 115 CURVE",
"159.333 187 OFFCURVE",
"229 597 OFFCURVE",
"229 624.5 CURVE SMOOTH",
"229 654 OFFCURVE",
"177 698 OFFCURVE",
"148 698 CURVE SMOOTH",
"133 698 OFFCURVE",
"126 686 OFFCURVE",
"126 661 CURVE SMOOTH",
"126 454 OFFCURVE",
"72 222 OFFCURVE",
"72 90.5 CURVE SMOOTH",
"72 37 OFFCURVE",
"108.667 -1 OFFCURVE",
"130 -1 CURVE SMOOTH"
);
}
);
width = 782;
},
{
anchors = (
{
name = bottom;
position = "{400, 0}";
},
{
name = top;
position = "{400, 700}";
}
);
associatedMasterId = "FF2DC345-5101-49B6-97F3-57A040F7C387";
layerId = "3CE37BA7-65D9-4750-B391-8BB0BB49E917";
name = "Mar 30, 22, 22:13";
paths = (
{
closed = 1;
nodes = (
"450 670 QCURVE SMOOTH",
"450 653 OFFCURVE",
"497 607 OFFCURVE",
"564 607 OFFCURVE",
"592 572 QCURVE SMOOTH",
"646 506 OFFCURVE",
"646 384 QCURVE SMOOTH",
"646 274 OFFCURVE",
"563 93 OFFCURVE",
"507 93 QCURVE SMOOTH",
"482 93 OFFCURVE",
"453 187 OFFCURVE",
"448 243 QCURVE SMOOTH",
"435 393 OFFCURVE",
"401 393 QCURVE SMOOTH",
"368 393 OFFCURVE",
"215 218 OFFCURVE",
"154 115 QCURVE",
"162 223 OFFCURVE",
"229 603 OFFCURVE",
"229 646 OFFCURVE",
"170 698 OFFCURVE",
"126 698 OFFCURVE",
"126 661 QCURVE SMOOTH",
"126 545 OFFCURVE",
"72 130 OFFCURVE",
"72 51 OFFCURVE",
"114 -1 OFFCURVE",
"130 -1 QCURVE SMOOTH",
"172 -1 OFFCURVE",
"276 143 QCURVE SMOOTH",
"330 218 OFFCURVE",
"372 277 QCURVE",
"381 144 OFFCURVE",
"441 0 OFFCURVE",
"505 0 QCURVE SMOOTH",
"596 0 OFFCURVE",
"735 231 OFFCURVE",
"735 513 OFFCURVE",
"615 699 OFFCURVE",
"498 699 QCURVE SMOOTH",
"450 699 OFFCURVE"
);
}
);
visible = 1;
width = 782;
}
);
leftKerningGroup = W;
rightKerningGroup = W;
unicode = 0057;
userData = {
com.typemytype.robofont.guides = (
{
angle = 0;
isGlobal = 0;
magnetic = 5;
x = 0;
y = 545;
},
{
angle = 0;
isGlobal = 0;
magnetic = 5;
x = 0;
y = 670;
},
{
angle = 0;
isGlobal = 0;
magnetic = 5;
x = 0;
y = 24;
}
);
};
},
{
color = 5;
glyphname = X;
layers = (
{
anchors = (
{
name = bottom;
position = "{307, 0}";
},
{
name = top;
position = "{327, 700}";
}
);
hints = (
{
horizontal = 1;
place = "{0, 0}";
type = Tag;
}
);
layerId = "FF2DC345-5101-49B6-97F3-57A040F7C387";
paths = (
{
closed = 1;
nodes = (
"55 0 OFFCURVE",
"25 20 OFFCURVE",
"25 34 CURVE SMOOTH",
"25 47 OFFCURVE",
"29.995 52.995 OFFCURVE",
"49 72 CURVE SMOOTH",
"103 130.667 OFFCURVE",
"172.333 215.333 OFFCURVE",
"257 326 CURVE",
"167 488 OFFCURVE",
"122 603 OFFCURVE",
"122 672 CURVE SMOOTH",
"122 690 OFFCURVE",
"127 699 OFFCURVE",
"136 699 CURVE SMOOTH",
"175 699 OFFCURVE",
"222 676 OFFCURVE",
"222 651 CURVE SMOOTH",
"222 590 OFFCURVE",
"252 506 OFFCURVE",
"312 400 CURVE",
"406 530 OFFCURVE",
"468.5 611.667 OFFCURVE",
"499.5 645 CURVE SMOOTH",
"530.5 678.333 OFFCURVE",
"555 695 OFFCURVE",
"574 695 CURVE SMOOTH",
"590 695 OFFCURVE",
"626 656 OFFCURVE",
"626 642.5 CURVE SMOOTH",
"626 621 OFFCURVE",
"602.744 617.744 OFFCURVE",
"575 590 CURVE SMOOTH",
"550.333 566 OFFCURVE",
"478 476.667 OFFCURVE",
"358 322 CURVE",
"438.932 190.111 OFFCURVE",
"532 75 OFFCURVE",
"532 32 CURVE SMOOTH",
"532 11 OFFCURVE",
"519 -1 OFFCURVE",
"506 -1 CURVE SMOOTH",
"489 -1 OFFCURVE",
"461.833 22.833 OFFCURVE",
"423.5 70.5 CURVE SMOOTH",
"385.167 118.167 OFFCURVE",
"344.333 177.667 OFFCURVE",
"301 249 CURVE",
"266.333 203 OFFCURVE",
"186.17 97.583 OFFCURVE",
"173.5 82.5 CURVE SMOOTH",
"150 55 OFFCURVE",
"110 0 OFFCURVE",
"72 0 CURVE SMOOTH"
);
}
);
width = 624;
},
{
anchors = (
{
name = bottom;
position = "{307, 0}";
},
{
name = top;
position = "{327, 700}";
}
);
associatedMasterId = "FF2DC345-5101-49B6-97F3-57A040F7C387";
hints = (
{
horizontal = 1;
place = "{0, 0}";
type = Tag;
}
);
layerId = "14E008E6-4D48-4F31-8AEA-C13BABFE603B";
name = "Mar 31, 22, 06:11";
paths = (
{
closed = 1;
nodes = (
"453 595 OFFCURVE",
"312 400 QCURVE",
"222 559 OFFCURVE",
"222 651 QCURVE SMOOTH",
"222 670 OFFCURVE",
"165 699 OFFCURVE",
"136 699 QCURVE SMOOTH",
"122 699 OFFCURVE",
"122 672 QCURVE SMOOTH",
"122 569 OFFCURVE",
"257 326 QCURVE",
"130 160 OFFCURVE",
"49 72 QCURVE SMOOTH",
"35 58 OFFCURVE",
"32 54 OFFCURVE",
"27 47 OFFCURVE",
"25 42 OFFCURVE",
"25 26 OFFCURVE",
"59 0 OFFCURVE",
"90 0 OFFCURVE",
"108 14 QCURVE SMOOTH",
"118 22 OFFCURVE",
"136 39 OFFCURVE",
"163 70 OFFCURVE",
"184 95 OFFCURVE",
"218 140 OFFCURVE",
"249 180 OFFCURVE",
"301 249 QCURVE",
"366 142 OFFCURVE",
"481 -1 OFFCURVE",
"506 -1 QCURVE SMOOTH",
"516 -1 OFFCURVE",
"532 16 OFFCURVE",
"532 48 OFFCURVE",
"487 125 OFFCURVE",
"385 278 OFFCURVE",
"358 322 QCURVE",
"538 554 OFFCURVE",
"575 590 QCURVE SMOOTH",
"585 600 OFFCURVE",
"613 620 OFFCURVE",
"626 632 OFFCURVE",
"626 653 OFFCURVE",
"586 695 OFFCURVE",
"574 695 QCURVE SMOOTH",
"546 695 OFFCURVE"
);
}
);
visible = 1;
width = 624;
}
);
unicode = 0058;
userData = {
com.typemytype.robofont.guides = (
{
angle = 0;
isGlobal = 0;
magnetic = 5;
x = 0;
y = 350;
},
{
angle = 90;
isGlobal = 0;
magnetic = 5;
x = 28;
y = 0;
},
{
angle = 90;
isGlobal = 0;
magnetic = 5;
x = 580;
y = 0;
}
);
};
},
{
color = 5;
glyphname = Y;
layers = (
{
anchors = (
{
name = bottom;
position = "{323, 0}";
},
{
name = top;
position = "{353, 700}";
},
{
name = topleft;
position = "{20, 700}";
}
);
layerId = "FF2DC345-5101-49B6-97F3-57A040F7C387";
paths = (
{
closed = 1;
nodes = (
"197 -11 OFFCURVE",
"190 1 OFFCURVE",
"190 25 CURVE SMOOTH",
"190 44 OFFCURVE",
"199.333 72 OFFCURVE",
"218 110 CURVE SMOOTH",
"235 143 OFFCURVE",
"293.668 259.724 OFFCURVE",
"302 275 CURVE",
"169 309 OFFCURVE",
"92 494 OFFCURVE",
"92 645 CURVE SMOOTH",
"92 669 OFFCURVE",
"106 696 OFFCURVE",
"132 696 CURVE SMOOTH",
"149 696 OFFCURVE",
"157 676 OFFCURVE",
"181 576 CURVE SMOOTH",
"207 467 OFFCURVE",
"277 353 OFFCURVE",
"324 353 CURVE SMOOTH",
"373 353 OFFCURVE",
"506 696 OFFCURVE",
"560 696 CURVE SMOOTH",
"589 696 OFFCURVE",
"607 671 OFFCURVE",
"607 649 CURVE SMOOTH",
"607 629 OFFCURVE",
"594 603 OFFCURVE",
"569 561 CURVE SMOOTH",
"470 398 OFFCURVE",
"361 215 OFFCURVE",
"282 64 CURVE SMOOTH",
"255 12 OFFCURVE",
"231 -11 OFFCURVE",
"212 -11 CURVE SMOOTH"
);
}
);
width = 575;
},
{
anchors = (
{
name = bottom;
position = "{323, 0}";
},
{
name = top;
position = "{323, 700}";
},
{
name = topleft;
position = "{20, 700}";
}
);
associatedMasterId = "FF2DC345-5101-49B6-97F3-57A040F7C387";
layerId = "A4086DA6-0678-4144-933E-E8A8A648F663";
name = "Mar 31, 22, 06:20";
paths = (
{
closed = 1;
nodes = (
"241 421 OFFCURVE",
"195 518 OFFCURVE",
"167 634 OFFCURVE",
"148 696 OFFCURVE",
"132 696 QCURVE SMOOTH",
"92 696 OFFCURVE",
"92 556 OFFCURVE",
"144 409 OFFCURVE",
"243 290 OFFCURVE",
"302 275 QCURVE",
"296 264 OFFCURVE",
"271 215 OFFCURVE",
"259 192 OFFCURVE",
"237 150 OFFCURVE",
"227 127 OFFCURVE",
"218 110 QCURVE SMOOTH",
"190 53 OFFCURVE",
"190 25 QCURVE SMOOTH",
"190 -11 OFFCURVE",
"212 -11 QCURVE SMOOTH",
"227 -11 OFFCURVE",
"275 49 OFFCURVE",
"403 291 OFFCURVE",
"531 498 OFFCURVE",
"607 624 OFFCURVE",
"607 666 OFFCURVE",
"581 696 OFFCURVE",
"539 696 OFFCURVE",
"440 524 OFFCURVE",
"345 353 OFFCURVE",
"327 353 QCURVE SMOOTH",
"305 353 OFFCURVE"
);
}
);
visible = 1;
width = 575;
}
);
leftKerningGroup = Y;
rightKerningGroup = Y;
unicode = 0059;
userData = {
com.typemytype.robofont.guides = (
{
angle = 90;
isGlobal = 0;
magnetic = 5;
x = 310;
y = 0;
}
);
};
},
{
color = 5;
glyphname = Z;
layers = (
{
anchors = (
{
name = bottom;
position = "{301, 0}";
},
{
name = center;
position = "{301, 350}";
},
{
name = top;
position = "{291, 700}";
}
);
layerId = "FF2DC345-5101-49B6-97F3-57A040F7C387";
paths = (
{
closed = 1;
nodes = (
"109 0 OFFCURVE",
"59 59 OFFCURVE",
"59 103.5 CURVE SMOOTH",
"59 183 OFFCURVE",
"268 341 OFFCURVE",
"330 393 CURVE SMOOTH",
"429.333 475 OFFCURVE",
"479 530.333 OFFCURVE",
"479 559 CURVE SMOOTH",
"479 588 OFFCURVE",
"409 603 OFFCURVE",
"337 603 CURVE SMOOTH",
"271 603 OFFCURVE",
"204 588 OFFCURVE",
"188 588 CURVE SMOOTH",
"159 588 OFFCURVE",
"124 627.667 OFFCURVE",
"124 653 CURVE SMOOTH",
"124 682 OFFCURVE",
"235 690 OFFCURVE",
"271 690 CURVE SMOOTH",
"360 690 OFFCURVE",
"464 669 OFFCURVE",
"503 641 CURVE SMOOTH",
"530 622 OFFCURVE",
"562 586 OFFCURVE",
"562 547 CURVE SMOOTH",
"562 504.333 OFFCURVE",
"498.833 425.5 OFFCURVE",
"419.5 355.5 CURVE SMOOTH",
"295.046 245.687 OFFCURVE",
"157 142 OFFCURVE",
"157 113 CURVE SMOOTH",
"157 97 OFFCURVE",
"167 87 OFFCURVE",
"183 87 CURVE SMOOTH",
"268 87 OFFCURVE",
"471 120 OFFCURVE",
"502 120 CURVE SMOOTH",
"525 120 OFFCURVE",
"537 112 OFFCURVE",
"537 96 CURVE SMOOTH",
"537 73 OFFCURVE",
"385 0 OFFCURVE",
"160 0 CURVE SMOOTH"
);
}
);
width = 620;
},
{
anchors = (
{
name = bottom;
position = "{301, 0}";
},
{
name = center;
position = "{301, 350}";
},
{
name = top;
position = "{291, 700}";
}
);
associatedMasterId = "FF2DC345-5101-49B6-97F3-57A040F7C387";
layerId = "61CA0E2C-5DDE-4FE7-BDBA-55A4090F2DD3";
name = "Mar 31, 22, 06:25";
paths = (
{
closed = 1;
nodes = (
"377 690 OFFCURVE",
"271 690 QCURVE SMOOTH",
"225 690 OFFCURVE",
"190 684 QCURVE SMOOTH",
"122 671 OFFCURVE",
"124 653 QCURVE SMOOTH",
"124 634 OFFCURVE",
"166 588 OFFCURVE",
"188 588 QCURVE SMOOTH",
"198 588 OFFCURVE",
"285 603 OFFCURVE",
"388 603 OFFCURVE",
"479 578 OFFCURVE",
"479 559 QCURVE SMOOTH",
"479 516 OFFCURVE",
"330 393 QCURVE SMOOTH",
"269 342 OFFCURVE",
"146 238 OFFCURVE",
"59 137 OFFCURVE",
"59 70 OFFCURVE",
"122 1 OFFCURVE",
"160 1 QCURVE SMOOTH",
"287 1 OFFCURVE",
"537 64 OFFCURVE",
"537 96 QCURVE SMOOTH",
"537 120 OFFCURVE",
"469 120 OFFCURVE",
"236 87 OFFCURVE",
"183 87 QCURVE SMOOTH",
"171 87 OFFCURVE",
"157 101 OFFCURVE",
"157 125 OFFCURVE",
"240 203 OFFCURVE",
"360 303 OFFCURVE",
"479 408 OFFCURVE",
"562 515 OFFCURVE",
"562 579 OFFCURVE",
"506 647 OFFCURVE",
"467 660 QCURVE SMOOTH"
);
}
);
visible = 1;
width = 620;
}
);
leftKerningGroup = Z;
rightKerningGroup = Z;
unicode = 005A;
userData = {
com.typemytype.robofont.guides = (
{
angle = 0;
isGlobal = 0;
magnetic = 5;
x = 0;
y = 51;
},
{
angle = 0;
isGlobal = 0;
magnetic = 5;
x = 0;
y = 9;
},
{
angle = 0;
isGlobal = 0;
magnetic = 5;
x = 0;
y = 691;
},
{
angle = 0;
isGlobal = 0;
magnetic = 5;
x = 0;
y = 649;
},
{
angle = 90;
isGlobal = 0;
magnetic = 5;
x = 189;
y = 0;
},
{
angle = 90;
isGlobal = 0;
magnetic = 5;
x = 815;
y = 0;
},
{
angle = 90;
isGlobal = 0;
magnetic = 5;
x = 732;
y = 0;
},
{
angle = 90;
isGlobal = 0;
magnetic = 5;
x = "-431";
y = 0;
},
{
angle = 90;
isGlobal = 0;
magnetic = 5;
x = 74;
y = 0;
},
{
angle = 90;
isGlobal = 0;
magnetic = 5;
x = 541;
y = 0;
}
);
};
},
{
color = 5;
glyphname = a;
layers = (
{
anchors = (
{
name = bottom;
position = "{236, 0}";
},
{
name = ogonek;
position = "{361, 70}";
},
{
name = top;
position = "{315, 445}";
}
);
hints = (
{
horizontal = 1;
place = "{0, 0}";
type = Tag;
},
{
horizontal = 1;
place = "{0, 0}";
type = Tag;
}
);
layerId = "FF2DC345-5101-49B6-97F3-57A040F7C387";
paths = (
{
closed = 1;
nodes = (
"81 -5 OFFCURVE",
"7 60 OFFCURVE",
"7 116 CURVE SMOOTH",
"7 264 OFFCURVE",
"186 491 OFFCURVE",
"297 491 CURVE SMOOTH",
"327 491 OFFCURVE",
"354.667 475.833 OFFCURVE",
"380 445.5 CURVE SMOOTH",
"404 417 OFFCURVE",
"418 391 OFFCURVE",
"418 366 CURVE SMOOTH",
"418 341 OFFCURVE",
"411 316 OFFCURVE",
"393 289 CURVE",
"401 279 OFFCURVE",
"405 270 OFFCURVE",
"405 263 CURVE SMOOTH",
"405 213 OFFCURVE",
"384 136 OFFCURVE",
"368 20 CURVE SMOOTH",
"366 4 OFFCURVE",
"359 -5 OFFCURVE",
"350 -5 CURVE SMOOTH",
"317 -5 OFFCURVE",
"308 75 OFFCURVE",
"307 108 CURVE",
"247.667 32.667 OFFCURVE",
"193 -5 OFFCURVE",
"142 -5 CURVE SMOOTH"
);
},
{
closed = 1;
nodes = (
"201 78 OFFCURVE",
"295.333 174.667 OFFCURVE",
"326 296 CURVE SMOOTH",
"328 306 OFFCURVE",
"334 312 OFFCURVE",
"343 315 CURVE",
"343 377 OFFCURVE",
"331 408 OFFCURVE",
"306 408 CURVE SMOOTH",
"224 408 OFFCURVE",
"91 203 OFFCURVE",
"91 116 CURVE SMOOTH",
"91 93 OFFCURVE",
"113 78 OFFCURVE",
"138 78 CURVE SMOOTH"
);
}
);
width = 469;
},
{
anchors = (
{
name = bottom;
position = "{276, 0}";
},
{
name = ogonek;
position = "{481, 70}";
},
{
name = top;
position = "{273, 520}";
}
);
associatedMasterId = "FF2DC345-5101-49B6-97F3-57A040F7C387";
hints = (
{
horizontal = 1;
place = "{0, 0}";
type = Tag;
},
{
horizontal = 1;
place = "{0, 0}";
type = Tag;
}
);
layerId = "DB485C44-E8BA-4E66-AA76-785AB329234D";
name = "Mar 31, 22, 06:33";
paths = (
{
closed = 1;
nodes = (
"235 491 OFFCURVE",
"95 353 OFFCURVE",
"7 176 OFFCURVE",
"7 116 QCURVE SMOOTH",
"7 74 OFFCURVE",
"96 -5 OFFCURVE",
"142 -5 QCURVE SMOOTH",
"218 -5 OFFCURVE",
"307 108 QCURVE",
"309 58 OFFCURVE",
"332 -5 OFFCURVE",
"350 -5 QCURVE SMOOTH",
"364 -5 OFFCURVE",
"368 20 QCURVE SMOOTH",
"371 32 OFFCURVE",
"375 57 OFFCURVE",
"380 99 OFFCURVE",
"405 235 OFFCURVE",
"405 263 QCURVE SMOOTH",
"405 274 OFFCURVE",
"393 289 QCURVE",
"418 327 OFFCURVE",
"418 400 OFFCURVE",
"342 491 OFFCURVE",
"297 491 QCURVE SMOOTH"
);
},
{
closed = 1;
nodes = (
"329 311 OFFCURVE",
"326 296 QCURVE SMOOTH",
"303 205 OFFCURVE",
"185 78 OFFCURVE",
"138 78 QCURVE SMOOTH",
"119 78 OFFCURVE",
"91 99 OFFCURVE",
"91 116 QCURVE SMOOTH",
"91 157 OFFCURVE",
"163 297 OFFCURVE",
"267 408 OFFCURVE",
"306 408 QCURVE SMOOTH",
"343 408 OFFCURVE",
"343 315 QCURVE SMOOTH",
"343 314 LINE"
);
}
);
visible = 1;
width = 469;
}
);
leftKerningGroup = a;
rightKerningGroup = a;
unicode = 0061;
},
{
color = 5;
glyphname = ae;
layers = (
{
anchors = (
{
name = bottom;
position = "{446, 0}";
},
{
name = top;
position = "{448, 520}";
}
);
hints = (
{
horizontal = 1;
place = "{0, 0}";
type = Tag;
},
{
horizontal = 1;
place = "{0, 0}";
type = Tag;
},
{
horizontal = 1;
place = "{0, 0}";
type = Tag;
}
);
layerId = "FF2DC345-5101-49B6-97F3-57A040F7C387";
paths = (
{
closed = 1;
nodes = (
"314 -10 OFFCURVE",
"384 21 OFFCURVE",
"427 91 CURVE",
"461 31 OFFCURVE",
"521 -10 OFFCURVE",
"616 -10 CURVE SMOOTH",
"760 -10 OFFCURVE",
"831 83 OFFCURVE",
"831 117 CURVE SMOOTH",
"831 130 OFFCURVE",
"822 138 OFFCURVE",
"810 138 CURVE",
"765 138 LINE",
"749 138 OFFCURVE",
"745 136 OFFCURVE",
"734 121 CURVE SMOOTH",
"706 81 OFFCURVE",
"660 64 OFFCURVE",
"616 64 CURVE SMOOTH",
"554 64 OFFCURVE",
"487 106 OFFCURVE",
"484 220 CURVE",
"484 229 LINE",
"821 229 LINE",
"834 229 OFFCURVE",
"845 238 OFFCURVE",
"845 252 CURVE",
"845 269 LINE",
"845 379 OFFCURVE",
"805 530 OFFCURVE",
"617 530 CURVE SMOOTH",
"537 530 OFFCURVE",
"482 498 OFFCURVE",
"447 452 CURVE",
"421 496 OFFCURVE",
"369 530 OFFCURVE",
"273 530 CURVE SMOOTH",
"129 530 OFFCURVE",
"72 440 OFFCURVE",
"72 400 CURVE SMOOTH",
"72 388 OFFCURVE",
"82 378 OFFCURVE",
"94 378 CURVE",
"137 378 LINE",
"147 378 OFFCURVE",
"153 382 OFFCURVE",
"157 395 CURVE SMOOTH",
"172 422 OFFCURVE",
"206 457 OFFCURVE",
"272 457 CURVE SMOOTH",
"354 457 OFFCURVE",
"388 419 OFFCURVE",
"388 355 CURVE",
"388 328 LINE",
"240 307 LINE",
"120 290 OFFCURVE",
"38 232 OFFCURVE",
"38 141 CURVE SMOOTH",
"38 56 OFFCURVE",
"112 -10 OFFCURVE",
"224 -10 CURVE SMOOTH"
);
},
{
closed = 1;
nodes = (
"186 65 OFFCURVE",
"130 92 OFFCURVE",
"130 148 CURVE SMOOTH",
"130 195 OFFCURVE",
"178 228 OFFCURVE",
"273 241 CURVE",
"389 258 LINE",
"389 230 LINE",
"389 118 OFFCURVE",
"323 65 OFFCURVE",
"241 65 CURVE SMOOTH"
);
},
{
closed = 1;
nodes = (
"484 302 LINE",
"487 408 OFFCURVE",
"550 457 OFFCURVE",
"617 457 CURVE SMOOTH",
"707 457 OFFCURVE",
"749 391 OFFCURVE",
"749 302 CURVE",
"749 298 LINE",
"484 298 LINE"
);
}
);
width = 891.125;
}
);
leftKerningGroup = a;
rightKerningGroup = e;
unicode = 00E6;
userData = {
com.typemytype.robofont.guides = (
{
angle = 0;
isGlobal = 0;
magnetic = 5;
x = 0;
y = "-10";
},
{
angle = 0;
isGlobal = 0;
magnetic = 5;
x = 0;
y = 530;
},
{
angle = 90;
isGlobal = 0;
magnetic = 5;
x = 473;
y = 0;
},
{
angle = 90;
isGlobal = 0;
magnetic = 5;
x = "-379";
y = 0;
},
{
angle = 90;
isGlobal = 0;
magnetic = 5;
x = 453;
y = 0;
}
);
};
},
{
color = 5;
glyphname = b;
layers = (
{
anchors = (
{
name = bottom;
position = "{298, 0}";
},
{
name = top;
position = "{298, 750}";
}
);
hints = (
{
horizontal = 1;
place = "{0, 0}";
type = Tag;
},
{
horizontal = 1;
place = "{0, 0}";
type = Tag;
}
);
layerId = "FF2DC345-5101-49B6-97F3-57A040F7C387";
paths = (
{
closed = 1;
nodes = (
"55 -5 OFFCURVE",
"22 32 OFFCURVE",
"22 57 CURVE SMOOTH",
"22 90 OFFCURVE",
"148 478 OFFCURVE",
"148 741 CURVE SMOOTH",
"148 761 OFFCURVE",
"155 771 OFFCURVE",
"170 771 CURVE SMOOTH",
"191 771 OFFCURVE",
"232 721 OFFCURVE",
"232 684 CURVE SMOOTH",
"232 602 OFFCURVE",
"214 485 OFFCURVE",
"178 333 CURVE",
"257 440 OFFCURVE",
"329 494 OFFCURVE",
"394 494 CURVE SMOOTH",
"466 494 OFFCURVE",
"507 410 OFFCURVE",
"506 337 CURVE SMOOTH",
"505 211 OFFCURVE",
"391 -6 OFFCURVE",
"245 -5 CURVE SMOOTH",
"198 -5 OFFCURVE",
"151 17 OFFCURVE",
"107 63 CURVE",
"91 17 OFFCURVE",
"81 -5 OFFCURVE",
"74 -5 CURVE SMOOTH"
);
},
{
closed = 1;
nodes = (
"320 72 OFFCURVE",
"423 216 OFFCURVE",
"423 347 CURVE SMOOTH",
"423 386 OFFCURVE",
"411 406 OFFCURVE",
"387 406 CURVE SMOOTH",
"310 406 OFFCURVE",
"203 281 OFFCURVE",
"134 132 CURVE",
"165 92 OFFCURVE",
"198 72 OFFCURVE",
"233 72 CURVE SMOOTH"
);
}
);
width = 525;
},
{
anchors = (
{
name = bottom;
position = "{298, 0}";
},
{
name = top;
position = "{298, 750}";
}
);
associatedMasterId = "FF2DC345-5101-49B6-97F3-57A040F7C387";
hints = (
{
horizontal = 1;
place = "{0, 0}";
type = Tag;
},
{
horizontal = 1;
place = "{0, 0}";
type = Tag;
}
);
layerId = "AEE7172A-07D7-45EE-AF1B-959A5BC27AF7";
name = "Mar 31, 22, 06:39";
paths = (
{
closed = 1;
nodes = (
"81 -5 OFFCURVE",
"91 17 OFFCURVE",
"106 62 CURVE",
"107 63 LINE",
"230 -66 OFFCURVE",
"381 -6 OFFCURVE",
"470 193 CURVE SMOOTH",
"517 299 OFFCURVE",
"518 385 OFFCURVE",
"474 448 CURVE SMOOTH",
"452 479 OFFCURVE",
"425 494 OFFCURVE",
"394 494 CURVE SMOOTH",
"329 494 OFFCURVE",
"257 440 OFFCURVE",
"178 333 CURVE",
"214 485 OFFCURVE",
"232 602 OFFCURVE",
"232 684 CURVE SMOOTH",
"232 721 OFFCURVE",
"191 771 OFFCURVE",
"170 771 CURVE SMOOTH",
"155 771 OFFCURVE",
"148 761 OFFCURVE",
"148 741 CURVE SMOOTH",
"148 568 OFFCURVE",
"96 335 OFFCURVE",
"54 187 CURVE SMOOTH",
"33 113 OFFCURVE",
"22 70 OFFCURVE",
"22 57 CURVE SMOOTH",
"22 32 OFFCURVE",
"55 -5 OFFCURVE",
"74 -5 CURVE SMOOTH"
);
},
{
closed = 1;
nodes = (
"198 72 OFFCURVE",
"165 92 OFFCURVE",
"134 132 CURVE",
"203 281 OFFCURVE",
"310 406 OFFCURVE",
"387 406 CURVE SMOOTH",
"411 406 OFFCURVE",
"423 386 OFFCURVE",
"423 347 CURVE SMOOTH",
"423 216 OFFCURVE",
"320 72 OFFCURVE",
"233 72 CURVE SMOOTH"
);
}
);
visible = 1;
width = 525;
}
);
leftKerningGroup = h;
rightKerningGroup = b;
unicode = 0062;
userData = {
com.typemytype.robofont.guides = (
{
angle = 0;
isGlobal = 0;
magnetic = 5;
x = 0;
y = 530;
},
{
angle = 0;
isGlobal = 0;
magnetic = 5;
x = 0;
y = "-10";
},
{
angle = 0;
isGlobal = 0;
magnetic = 5;
x = 0;
y = 710;
},
{
angle = 0;
isGlobal = 0;
magnetic = 5;
x = 0;
y = 288;
},
{
angle = 0;
isGlobal = 0;
magnetic = 5;
x = 0;
y = 232;
},
{
angle = 0;
isGlobal = 0;
magnetic = 5;
x = 0;
y = 451;
},
{
angle = 0;
isGlobal = 0;
magnetic = 5;
x = 0;
y = 69;
},
{
angle = 90;
isGlobal = 0;
magnetic = 5;
x = 121;
y = 0;
},
{
angle = 90;
isGlobal = 0;
magnetic = 5;
x = 79;
y = 0;
}
);
};
},
{
color = 5;
glyphname = c;
layers = (
{
anchors = (
{
name = bottom;
position = "{276, 0}";
},
{
name = top;
position = "{279, 520}";
}
);
hints = (
{
horizontal = 1;
place = "{0, 0}";
type = Tag;
},
{
horizontal = 1;
place = "{0, 0}";
type = Tag;
}
);
layerId = "FF2DC345-5101-49B6-97F3-57A040F7C387";
paths = (
{
closed = 1;
nodes = (
"114.5 -5 OFFCURVE",
"32 65.167 OFFCURVE",
"32 148.5 CURVE SMOOTH",
"32 278 OFFCURVE",
"178 491 OFFCURVE",
"312 491 CURVE SMOOTH",
"366.667 491 OFFCURVE",
"415 426.333 OFFCURVE",
"415 389 CURVE SMOOTH",
"415 375 OFFCURVE",
"406 370 OFFCURVE",
"395 370 CURVE SMOOTH",
"374 370 OFFCURVE",
"354 406 OFFCURVE",
"319 406 CURVE SMOOTH",
"247 406 OFFCURVE",
"121 239.667 OFFCURVE",
"121 145 CURVE SMOOTH",
"121 103.667 OFFCURVE",
"146 78 OFFCURVE",
"203.5 78 CURVE SMOOTH",
"300 78 OFFCURVE",
"345 120 OFFCURVE",
"371 120 CURVE SMOOTH",
"384 120 OFFCURVE",
"390 113.667 OFFCURVE",
"390 101 CURVE SMOOTH",
"390 62.333 OFFCURVE",
"270.5 -5 OFFCURVE",
"192.5 -5 CURVE SMOOTH"
);
}
);
width = 445;
},
{
anchors = (
{
name = bottom;
position = "{276, 0}";
},
{
name = top;
position = "{279, 520}";
}
);
associatedMasterId = "FF2DC345-5101-49B6-97F3-57A040F7C387";
hints = (
{
horizontal = 1;
place = "{0, 0}";
type = Tag;
},
{
horizontal = 1;
place = "{0, 0}";
type = Tag;
}
);
layerId = "D0160979-66C6-4062-A82D-59F81B862FEF";
name = "Mar 31, 22, 06:43";
paths = (
{
closed = 1;
nodes = (
"390 72 OFFCURVE",
"390 101 QCURVE SMOOTH",
"390 120 OFFCURVE",
"371 120 QCURVE SMOOTH",
"360 120 OFFCURVE",
"320 99 OFFCURVE",
"247 78 OFFCURVE",
"160 78 OFFCURVE",
"121 114 OFFCURVE",
"121 145 QCURVE SMOOTH",
"121 216 OFFCURVE",
"265 406 OFFCURVE",
"319 406 QCURVE SMOOTH",
"338 406 OFFCURVE",
"386 370 OFFCURVE",
"405 370 OFFCURVE",
"415 381 OFFCURVE",
"415 389 QCURVE SMOOTH",
"415 417 OFFCURVE",
"353 491 OFFCURVE",
"312 491 QCURVE SMOOTH",
"249 491 OFFCURVE",
"116 375 OFFCURVE",
"32 211 OFFCURVE",
"32 86 OFFCURVE",
"134 -5 OFFCURVE",
"251 -5 OFFCURVE"
);
}
);
visible = 1;
width = 445;
}
);
leftKerningGroup = o;
rightKerningGroup = c;
unicode = 0063;
userData = {
com.typemytype.robofont.guides = (
{
angle = 0;
isGlobal = 0;
magnetic = 5;
x = 0;
y = "-10";
},
{
angle = 0;
isGlobal = 0;
magnetic = 5;
x = 0;
y = 295;
},
{
angle = 0;
isGlobal = 0;
magnetic = 5;
x = 0;
y = 225;
},
{
angle = 90;
isGlobal = 0;
magnetic = 5;
x = 445;
y = 0;
},
{
angle = 90;
isGlobal = 0;
magnetic = 5;
x = 484;
y = 0;
},
{
angle = 90;
isGlobal = 0;
magnetic = 5;
x = 137;
y = 0;
},
{
angle = 90;
isGlobal = 0;
magnetic = 5;
x = 270;
y = 0;
}
);
};
},
{
color = 5;
glyphname = ccedilla;
layers = (
{
hints = (
{
horizontal = 1;
place = "{0, 0}";
type = Tag;
},
{
horizontal = 1;
place = "{0, 0}";
type = Tag;
}
);
layerId = "FF2DC345-5101-49B6-97F3-57A040F7C387";
paths = (
{
closed = 1;
nodes = (
"344 -221 OFFCURVE",
"377 -181 OFFCURVE",
"377 -132 CURVE SMOOTH",
"377 -83 OFFCURVE",
"345 -48 OFFCURVE",
"300 -48 CURVE SMOOTH",
"287 -48 OFFCURVE",
"271 -51 OFFCURVE",
"263 -56 CURVE",
"285 -10 LINE",
"440 -9 OFFCURVE",
"504 89 OFFCURVE",
"507 156 CURVE SMOOTH",
"508 169 OFFCURVE",
"497 179 OFFCURVE",
"484 179 CURVE",
"436 179 LINE",
"422 179 OFFCURVE",
"417 173 OFFCURVE",
"411 158 CURVE SMOOTH",
"387 92 OFFCURVE",
"346 69 OFFCURVE",
"285 69 CURVE SMOOTH",
"205 69 OFFCURVE",
"151 115 OFFCURVE",
"147 225 CURVE SMOOTH",
"146 245 OFFCURVE",
"146 273 OFFCURVE",
"147 295 CURVE SMOOTH",
"151 404 OFFCURVE",
"205 451 OFFCURVE",
"285 451 CURVE SMOOTH",
"346 451 OFFCURVE",
"387 428 OFFCURVE",
"411 362 CURVE SMOOTH",
"417 347 OFFCURVE",
"422 342 OFFCURVE",
"436 342 CURVE",
"484 342 LINE",
"497 342 OFFCURVE",
"508 351 OFFCURVE",
"507 364 CURVE SMOOTH",
"504 433 OFFCURVE",
"438 530 OFFCURVE",
"284 530 CURVE SMOOTH",
"141 530 OFFCURVE",
"57 444 OFFCURVE",
"52 300 CURVE SMOOTH",
"51 279 OFFCURVE",
"51 240 OFFCURVE",
"52 220 CURVE SMOOTH",
"56 95 OFFCURVE",
"120 13 OFFCURVE",
"230 -5 CURVE",
"210 -53 LINE",
"205 -64 OFFCURVE",
"199 -75 OFFCURVE",
"206 -83 CURVE",
"223 -101 LINE",
"238 -117 OFFCURVE",
"252 -98 OFFCURVE",
"282 -98 CURVE SMOOTH",
"304 -98 OFFCURVE",
"322 -111 OFFCURVE",
"322 -133 CURVE SMOOTH",
"322 -156 OFFCURVE",
"304 -170 OFFCURVE",
"282 -170 CURVE SMOOTH",
"240 -170 OFFCURVE",
"233 -139 OFFCURVE",
"216 -155 CURVE",
"201 -169 LINE",
"183 -185 OFFCURVE",
"226 -219 OFFCURVE",
"282 -220 CURVE SMOOTH"
);
}
);
width = 552.125;
}
);
leftKerningGroup = o;
rightKerningGroup = c;
unicode = 00E7;
},
{
color = 5;
glyphname = d;
layers = (
{
anchors = (
{
name = bottom;
position = "{298, 0}";
},
{
name = center;
position = "{233, 614}";
},
{
name = top;
position = "{268, 750}";
},
{
name = topright;
position = "{556, 720}";
}
);
hints = (
{
horizontal = 1;
place = "{0, 0}";
type = Tag;
},
{
horizontal = 1;
place = "{0, 0}";
type = Tag;
}
);
layerId = "FF2DC345-5101-49B6-97F3-57A040F7C387";
paths = (
{
closed = 1;
nodes = (
"74.333 -5 OFFCURVE",
"18 60.667 OFFCURVE",
"18 118 CURVE SMOOTH",
"18 256 OFFCURVE",
"142 491 OFFCURVE",
"282 491 CURVE SMOOTH",
"329.333 491 OFFCURVE",
"362.333 462.667 OFFCURVE",
"381 406 CURVE",
"415 547.333 OFFCURVE",
"434 659 OFFCURVE",
"437 741 CURVE SMOOTH",
"438 761 OFFCURVE",
"444.333 771 OFFCURVE",
"459 771 CURVE SMOOTH",
"480.333 771 OFFCURVE",
"522 720.667 OFFCURVE",
"522 686 CURVE SMOOTH",
"522 629 OFFCURVE",
"382 -5 OFFCURVE",
"344 -5 CURVE SMOOTH",
"335 -5 OFFCURVE",
"325 1 OFFCURVE",
"314 13 CURVE SMOOTH",
"304 22 OFFCURVE",
"297 33 OFFCURVE",
"297 52 CURVE SMOOTH",
"297 61 OFFCURVE",
"301 77 OFFCURVE",
"304 95 CURVE",
"238.667 28.333 OFFCURVE",
"181.667 -5 OFFCURVE",
"133 -5 CURVE SMOOTH"
);
},
{
closed = 1;
nodes = (
"196 75 OFFCURVE",
"314 168 OFFCURVE",
"349 273 CURVE",
"349 356 OFFCURVE",
"321 408 OFFCURVE",
"286 408 CURVE SMOOTH",
"202 408 OFFCURVE",
"100 244.1 OFFCURVE",
"100 115 CURVE SMOOTH",
"100 91 OFFCURVE",
"120 75 OFFCURVE",
"144 75 CURVE SMOOTH"
);
}
);
width = 499;
},
{
anchors = (
{
name = bottom;
position = "{298, 0}";
},
{
name = center;
position = "{233, 614}";
},
{
name = top;
position = "{268, 750}";
},
{
name = topright;
position = "{556, 720}";
}
);
associatedMasterId = "FF2DC345-5101-49B6-97F3-57A040F7C387";
hints = (
{
horizontal = 1;
place = "{0, 0}";
type = Tag;
},
{
horizontal = 1;
place = "{0, 0}";
type = Tag;
}
);
layerId = "BA338058-D171-4236-8FA7-F4DEF8987A7B";
name = "Mar 31, 22, 07:15";
paths = (
{
closed = 1;
nodes = (
"74.333 -5 OFFCURVE",
"18 60.667 OFFCURVE",
"18 118 CURVE SMOOTH",
"18 200.667 OFFCURVE",
"64 327.667 OFFCURVE",
"148 421 CURVE SMOOTH",
"190 467.667 OFFCURVE",
"234.667 491 OFFCURVE",
"282 491 CURVE SMOOTH",
"329.333 491 OFFCURVE",
"362.333 462.667 OFFCURVE",
"381 406 CURVE",
"415 547.333 OFFCURVE",
"433.667 659 OFFCURVE",
"437 741 CURVE SMOOTH",
"437 761 OFFCURVE",
"444.333 771 OFFCURVE",
"459 771 CURVE SMOOTH",
"480.333 771 OFFCURVE",
"522 720.667 OFFCURVE",
"522 686 CURVE SMOOTH",
"522 651.333 OFFCURVE",
"483 460.333 OFFCURVE",
"439 287 CURVE SMOOTH",
"391 92.333 OFFCURVE",
"359.333 -5 OFFCURVE",
"344 -5 CURVE SMOOTH",
"334.667 -5 OFFCURVE",
"325 1 OFFCURVE",
"313.5 12.5 CURVE SMOOTH",
"291 36 OFFCURVE",
"295.71 48.815 OFFCURVE",
"304 95 CURVE",
"238.667 28.333 OFFCURVE",
"181.667 -5 OFFCURVE",
"133 -5 CURVE SMOOTH"
);
},
{
closed = 1;
nodes = (
"196 75 OFFCURVE",
"306 161.667 OFFCURVE",
"346 263 CURVE",
"349 275 LINE",
"349 275 LINE",
"349 280 LINE SMOOTH",
"349 352 OFFCURVE",
"320.667 408 OFFCURVE",
"286 408 CURVE SMOOTH",
"201.758 408 OFFCURVE",
"100 244.1 OFFCURVE",
"100 115 CURVE SMOOTH",
"100 91 OFFCURVE",
"120 75 OFFCURVE",
"144 75 CURVE SMOOTH"
);
}
);
visible = 1;
width = 499;
}
);
leftKerningGroup = d;
rightKerningGroup = d;
unicode = 0064;
userData = {
com.typemytype.robofont.guides = (
{
angle = 0;
isGlobal = 0;
magnetic = 5;
x = 0;
y = 650;
},
{
angle = 0;
isGlobal = 0;
magnetic = 5;
x = 0;
y = 530;
},
{
angle = 90;
isGlobal = 0;
magnetic = 5;
x = 438;
y = 0;
},
{
angle = 90;
isGlobal = 0;
magnetic = 5;
x = 499;
y = 0;
}
);
};
},
{
color = 5;
glyphname = eth;
layers = (
{
hints = (
{
horizontal = 1;
place = "{0, 0}";
type = Tag;
}
);
layerId = "FF2DC345-5101-49B6-97F3-57A040F7C387";
paths = (
{
closed = 1;
nodes = (
"430 -10 OFFCURVE",
"512 88 OFFCURVE",
"513 228 CURVE SMOOTH",
"514 233 OFFCURVE",
"514 238 OFFCURVE",
"513 243 CURVE SMOOTH",
"510 406 OFFCURVE",
"475 505 OFFCURVE",
"417 580 CURVE",
"475 602 LINE",
"491 608 OFFCURVE",
"497 613 OFFCURVE",
"497 629 CURVE",
"497 650 LINE",
"497 662 OFFCURVE",
"489 668 OFFCURVE",
"477 668 CURVE SMOOTH",
"474 668 OFFCURVE",
"470 667 OFFCURVE",
"465 665 CURVE",
"372 629 LINE",
"353 649 OFFCURVE",
"333 667 OFFCURVE",
"310 687 CURVE SMOOTH",
"300 695 OFFCURVE",
"289 700 OFFCURVE",
"271 700 CURVE",
"219 700 LINE",
"207 700 OFFCURVE",
"199 692 OFFCURVE",
"199 680 CURVE SMOOTH",
"199 675 OFFCURVE",
"202 668 OFFCURVE",
"215 658 CURVE SMOOTH",
"241 638 OFFCURVE",
"265 617 OFFCURVE",
"287 597 CURVE",
"222 572 LINE",
"206 566 OFFCURVE",
"200 561 OFFCURVE",
"200 545 CURVE",
"200 524 LINE",
"200 512 OFFCURVE",
"209 506 OFFCURVE",
"220 506 CURVE SMOOTH",
"223 506 OFFCURVE",
"227 507 OFFCURVE",
"232 509 CURVE",
"333 548 LINE",
"358 516 OFFCURVE",
"376 481 OFFCURVE",
"391 438 CURVE",
"362 459 OFFCURVE",
"325 470 OFFCURVE",
"281 470 CURVE SMOOTH",
"134 470 OFFCURVE",
"48 373 OFFCURVE",
"49 231 CURVE",
"48 89 OFFCURVE",
"131 -10 OFFCURVE",
"281 -10 CURVE SMOOTH"
);
},
{
closed = 1;
nodes = (
"190 67 OFFCURVE",
"146 135 OFFCURVE",
"144 222 CURVE SMOOTH",
"144 226 OFFCURVE",
"144 230 OFFCURVE",
"144 237 CURVE SMOOTH",
"145 324 OFFCURVE",
"189 393 OFFCURVE",
"281 393 CURVE SMOOTH",
"373 393 OFFCURVE",
"418 324 OFFCURVE",
"418 237 CURVE SMOOTH",
"418 231 OFFCURVE",
"418 228 OFFCURVE",
"418 223 CURVE SMOOTH",
"417 136 OFFCURVE",
"372 67 OFFCURVE",
"281 67 CURVE SMOOTH"
);
}
);
width = 566.5;
}
);
unicode = 00F0;
userData = {
com.typemytype.robofont.guides = (
{
angle = 0;
isGlobal = 0;
magnetic = 5;
x = 0;
y = 512;
},
{
angle = 90;
isGlobal = 0;
magnetic = 5;
x = 214;
y = 0;
},
{
angle = 90;
isGlobal = 0;
magnetic = 5;
x = 484;
y = 0;
}
);
};
},
{
color = 5;
glyphname = e;
layers = (
{
anchors = (
{
name = bottom;
position = "{280, 0}";
},
{
name = ogonek;
position = "{415, 51}";
},
{
name = top;
position = "{281, 520}";
}
);
hints = (
{
horizontal = 1;
place = "{0, 0}";
type = Tag;
}
);
layerId = "FF2DC345-5101-49B6-97F3-57A040F7C387";
paths = (
{
closed = 1;
nodes = (
"91 -5 OFFCURVE",
"19 64.333 OFFCURVE",
"19 159 CURVE SMOOTH",
"19 291 OFFCURVE",
"142 491 OFFCURVE",
"274 491 CURVE SMOOTH",
"352.667 491 OFFCURVE",
"430 396.833 OFFCURVE",
"430 325.5 CURVE SMOOTH",
"430 238 OFFCURVE",
"314 205 OFFCURVE",
"233 205 CURVE SMOOTH",
"189 205 OFFCURVE",
"150 210 OFFCURVE",
"111 221 CURVE",
"101.667 191.667 OFFCURVE",
"97 166 OFFCURVE",
"97 142.5 CURVE SMOOTH",
"97 97 OFFCURVE",
"124 70 OFFCURVE",
"189.5 70 CURVE SMOOTH",
"263 70 OFFCURVE",
"336 105 OFFCURVE",
"349 105 CURVE SMOOTH",
"366 105 OFFCURVE",
"375 98 OFFCURVE",
"375 85 CURVE SMOOTH",
"375 49 OFFCURVE",
"272.333 -5 OFFCURVE",
"195 -5 CURVE SMOOTH"
);
},
{
closed = 1;
nodes = (
"293 269 OFFCURVE",
"352 293 OFFCURVE",
"352 329 CURVE SMOOTH",
"352 365 OFFCURVE",
"311 412 OFFCURVE",
"279 412 CURVE SMOOTH",
"229.667 412 OFFCURVE",
"171.333 354 OFFCURVE",
"134 278 CURVE",
"160.667 272 OFFCURVE",
"191 269 OFFCURVE",
"225 269 CURVE SMOOTH"
);
}
);
width = 450;
},
{
anchors = (
{
name = bottom;
position = "{280, 0}";
},
{
name = ogonek;
position = "{415, 51}";
},
{
name = top;
position = "{281, 520}";
}
);
associatedMasterId = "FF2DC345-5101-49B6-97F3-57A040F7C387";
hints = (
{
horizontal = 1;
place = "{0, 0}";
type = Tag;
}
);
layerId = "D3814A61-A597-4F91-B3C0-17D10F6AEBE0";
name = "Mar 31, 22, 10:09";
paths = (
{
closed = 1;
nodes = (
"333 491 OFFCURVE",
"215 491 OFFCURVE",
"95 385 OFFCURVE",
"19 230 OFFCURVE",
"19 88 OFFCURVE",
"117 -5 OFFCURVE",
"195 -5 QCURVE SMOOTH",
"253 -5 OFFCURVE",
"375 58 OFFCURVE",
"375 85 QCURVE SMOOTH",
"375 105 OFFCURVE",
"349 105 QCURVE SMOOTH",
"344 105 OFFCURVE",
"239 70 OFFCURVE",
"140 70 OFFCURVE",
"97 108 OFFCURVE",
"97 177 OFFCURVE",
"111 221 QCURVE",
"170 205 OFFCURVE",
"315 205 OFFCURVE",
"430 272 OFFCURVE",
"430 379 OFFCURVE"
);
},
{
closed = 1;
nodes = (
"352 356 OFFCURVE",
"352 302 OFFCURVE",
"276 269 OFFCURVE",
"174 269 OFFCURVE",
"134 278 QCURVE",
"162 335 OFFCURVE",
"242 412 OFFCURVE",
"279 412 QCURVE SMOOTH",
"303 412 OFFCURVE"
);
}
);
visible = 1;
width = 450;
}
);
leftKerningGroup = o;
rightKerningGroup = e;
unicode = 0065;
userData = {
com.typemytype.robofont.guides = (
{
angle = 0;
isGlobal = 0;
magnetic = 5;
x = 0;
y = "-10";
},
{
angle = 90;
isGlobal = 0;
magnetic = 5;
x = 275;
y = 0;
},
{
angle = 90;
isGlobal = 0;
magnetic = 5;
x = 496;
y = 0;
},
{
angle = 90;
isGlobal = 0;
magnetic = 5;
x = 61;
y = 0;
},
{
angle = 90;
isGlobal = 0;
magnetic = 5;
x = 122;
y = 0;
},
{
angle = 90;
isGlobal = 0;
magnetic = 5;
x = 430;
y = 0;
}
);
};
},
{
color = 5;
glyphname = f;
layers = (
{
anchors = (
{
name = bottom;
position = "{192, 0}";
},
{
name = top;
position = "{192, 718}";
}
);
hints = (
{
horizontal = 1;
place = "{0, 0}";
type = Tag;
}
);
layerId = "FF2DC345-5101-49B6-97F3-57A040F7C387";
paths = (
{
closed = 1;
nodes = (
"110 -7 OFFCURVE",
"118.667 2.667 OFFCURVE",
"128 22 CURVE SMOOTH",
"145.333 58.667 OFFCURVE",
"177.667 173 OFFCURVE",
"225 365 CURVE",
"368 385 OFFCURVE",
"387 402 OFFCURVE",
"387 420 CURVE SMOOTH",
"387 438 OFFCURVE",
"361 448 OFFCURVE",
"324 448 CURVE SMOOTH",
"301 448 OFFCURVE",
"273 447 OFFCURVE",
"244 443 CURVE",
"286 660 OFFCURVE",
"320 686 OFFCURVE",
"346 686 CURVE SMOOTH",
"367 686 OFFCURVE",
"386 666 OFFCURVE",
"394 632 CURVE SMOOTH",
"404 596 OFFCURVE",
"417 578 OFFCURVE",
"433 578 CURVE SMOOTH",
"453 578 OFFCURVE",
"462 600 OFFCURVE",
"462 626 CURVE SMOOTH",
"462 697 OFFCURVE",
"419 764 OFFCURVE",
"347 764 CURVE SMOOTH",
"250 764 OFFCURVE",
"197 691 OFFCURVE",
"156 430 CURVE",
"71 414 OFFCURVE",
"31 401 OFFCURVE",
"31 381 CURVE SMOOTH",
"31 365 OFFCURVE",
"52 337 OFFCURVE",
"80 337 CURVE SMOOTH",
"94 337 OFFCURVE",
"112 341 OFFCURVE",
"138 347 CURVE",
"103 189 OFFCURVE",
"60 65 OFFCURVE",
"60 44 CURVE SMOOTH",
"60 26 OFFCURVE",
"85 -7 OFFCURVE",
"103 -7 CURVE SMOOTH"
);
}
);
width = 376;
},
{
anchors = (
{
name = bottom;
position = "{192, 0}";
},
{
name = top;
position = "{192, 718}";
}
);
associatedMasterId = "FF2DC345-5101-49B6-97F3-57A040F7C387";
hints = (
{
horizontal = 1;
place = "{0, 0}";
type = Tag;
}
);
layerId = "8C1C80A2-CE74-44FC-91F0-955EADE8C79A";
name = "Mar 31, 22, 11:17";
paths = (
{
closed = 1;
nodes = (
"128 22 QCURVE SMOOTH",
"154 77 OFFCURVE",
"225 365 QCURVE",
"321 381 OFFCURVE",
"387 401 OFFCURVE",
"387 420 QCURVE SMOOTH",
"387 432 OFFCURVE",
"354 448 OFFCURVE",
"281 448 OFFCURVE",
"244 443 QCURVE",
"252 478 LINE SMOOTH",
"263 545 OFFCURVE",
"292 626 QCURVE SMOOTH",
"303 655 OFFCURVE",
"331 686 OFFCURVE",
"365 686 OFFCURVE",
"389 652 OFFCURVE",
"394 632 QCURVE SMOOTH",
"409 578 OFFCURVE",
"433 578 QCURVE SMOOTH",
"461 578 OFFCURVE",
"461 685 OFFCURVE",
"397 764 OFFCURVE",
"347 764 QCURVE SMOOTH",
"277 764 OFFCURVE",
"195 642 OFFCURVE",
"171 504 QCURVE SMOOTH",
"166 478 OFFCURVE",
"156 430 QCURVE",
"134 426 OFFCURVE",
"76 412 QCURVE SMOOTH",
"31 399 OFFCURVE",
"31 365 OFFCURVE",
"63 337 OFFCURVE",
"95 337 OFFCURVE",
"138 347 QCURVE",
"120 270 OFFCURVE",
"70 90 QCURVE SMOOTH",
"60 55 OFFCURVE",
"60 31 OFFCURVE",
"90 -7 OFFCURVE",
"103 -7 QCURVE SMOOTH",
"114 -7 OFFCURVE"
);
}
);
visible = 1;
width = 376;
}
);
leftKerningGroup = f;
rightKerningGroup = f;
unicode = 0066;
userData = {
com.typemytype.robofont.guides = (
{
angle = 0;
isGlobal = 0;
magnetic = 5;
x = 0;
y = 345;
},
{
angle = 0;
isGlobal = 0;
magnetic = 5;
x = 0;
y = 9;
},
{
angle = 0;
isGlobal = 0;
magnetic = 5;
x = 0;
y = 740;
},
{
angle = 90;
isGlobal = 0;
magnetic = 5;
x = 297;
y = 0;
},
{
angle = 90;
isGlobal = 0;
magnetic = 5;
x = 371;
y = 0;
}
);
};
},
{
color = 5;
glyphname = g;
layers = (
{
anchors = (
{
name = bottom;
position = "{299, -225}";
},
{
name = top;
position = "{317, 520}";
}
);
hints = (
{
horizontal = 1;
place = "{0, 0}";
type = Tag;
},
{
horizontal = 1;
place = "{0, 0}";
type = Tag;
},
{
horizontal = 1;
place = "{0, 0}";
type = Tag;
}
);
layerId = "FF2DC345-5101-49B6-97F3-57A040F7C387";
paths = (
{
closed = 1;
nodes = (
"245 -267 OFFCURVE",
"281 -203 OFFCURVE",
"334 -1.5 CURVE SMOOTH",
"379 169 OFFCURVE",
"427 238.333 OFFCURVE",
"427 265 CURVE SMOOTH",
"427 275 OFFCURVE",
"423 286.667 OFFCURVE",
"415 298 CURVE",
"416 302 OFFCURVE",
"417 308 OFFCURVE",
"417 316 CURVE SMOOTH",
"417 396 OFFCURVE",
"381 491 OFFCURVE",
"301 491 CURVE SMOOTH",
"166 491 OFFCURVE",
"24 238 OFFCURVE",
"24 126.5 CURVE SMOOTH",
"24 56.5 OFFCURVE",
"79.667 -5 OFFCURVE",
"145 -5 CURVE SMOOTH",
"177.667 -5 OFFCURVE",
"220 14.333 OFFCURVE",
"272 53 CURVE",
"254 -11 OFFCURVE",
"229 -199 OFFCURVE",
"143 -199 CURVE SMOOTH",
"79 -199 OFFCURVE",
"39 -104 OFFCURVE",
"14.5 -104 CURVE SMOOTH",
"1 -104 OFFCURVE",
"-15 -130.667 OFFCURVE",
"-15 -152 CURVE SMOOTH",
"-15 -202.667 OFFCURVE",
"58.333 -267 OFFCURVE",
"153 -267 CURVE SMOOTH"
);
},
{
closed = 1;
nodes = (
"121 78 OFFCURVE",
"105 93 OFFCURVE",
"105 116 CURVE SMOOTH",
"105 219 OFFCURVE",
"228.332 408 OFFCURVE",
"306 408 CURVE SMOOTH",
"352 408 OFFCURVE",
"347 312 OFFCURVE",
"358 276 CURVE",
"320.667 170.667 OFFCURVE",
"211 78 OFFCURVE",
"144 78 CURVE SMOOTH"
);
}
);
width = 475;
},
{
anchors = (
{
name = bottom;
position = "{299, -225}";
},
{
name = top;
position = "{317, 520}";
}
);
associatedMasterId = "FF2DC345-5101-49B6-97F3-57A040F7C387";
hints = (
{
horizontal = 1;
place = "{0, 0}";
type = Tag;
},
{
horizontal = 1;
place = "{0, 0}";
type = Tag;
},
{
horizontal = 1;
place = "{0, 0}";
type = Tag;
}
);
layerId = "08071856-FAC7-42FA-BC06-280F9CC2A1EF";
name = "Mar 31, 22, 11:27";
paths = (
{
closed = 1;
nodes = (
"415 298 QCURVE",
"416 303 OFFCURVE",
"416 315 QCURVE SMOOTH",
"416 409 OFFCURVE",
"370 460 QCURVE SMOOTH",
"342 491 OFFCURVE",
"301 491 QCURVE SMOOTH",
"237 491 OFFCURVE",
"103 353 OFFCURVE",
"24 179 OFFCURVE",
"24 74 OFFCURVE",
"96 -5 OFFCURVE",
"194 -5 OFFCURVE",
"272 53 QCURVE",
"266 32 OFFCURVE",
"248 -37 OFFCURVE",
"238 -75 OFFCURVE",
"221 -128 OFFCURVE",
"207 -157 OFFCURVE",
"187 -186 OFFCURVE",
"165 -199 OFFCURVE",
"121 -199 OFFCURVE",
"74 -169 OFFCURVE",
"51 -134 OFFCURVE",
"25 -104 OFFCURVE",
"4 -104 OFFCURVE",
"-15 -136 OFFCURVE",
"-15 -152 QCURVE SMOOTH",
"-15 -190 OFFCURVE",
"82 -267 OFFCURVE",
"153 -267 QCURVE SMOOTH",
"240 -267 OFFCURVE",
"282 -165 QCURVE SMOOTH",
"303 -116 OFFCURVE",
"365 113 OFFCURVE",
"392 174 QCURVE",
"427 225 OFFCURVE",
"427 265 QCURVE SMOOTH",
"427 281 OFFCURVE"
);
},
{
closed = 1;
nodes = (
"169 296 OFFCURVE",
"267 408 OFFCURVE",
"306 408 QCURVE SMOOTH",
"322 408 OFFCURVE",
"342 375 OFFCURVE",
"348 343 OFFCURVE",
"354 289 OFFCURVE",
"358 276 QCURVE",
"330 197 OFFCURVE",
"194 78 OFFCURVE",
"144 78 QCURVE SMOOTH",
"127 78 OFFCURVE",
"105 99 OFFCURVE",
"105 116 QCURVE SMOOTH",
"105 158 OFFCURVE"
);
}
);
visible = 1;
width = 475;
}
);
leftKerningGroup = g;
rightKerningGroup = u;
unicode = 0067;
userData = {
com.typemytype.robofont.guides = (
{
angle = 0;
isGlobal = 0;
magnetic = 5;
x = 0;
y = 530;
},
{
angle = 0;
isGlobal = 0;
magnetic = 5;
x = 0;
y = "-220";
},
{
angle = 0;
isGlobal = 0;
magnetic = 5;
x = 0;
y = 288;
},
{
angle = 0;
isGlobal = 0;
magnetic = 5;
x = 0;
y = 232;
},
{
angle = 90;
isGlobal = 0;
magnetic = 5;
x = 56;
y = 0;
},
{
angle = 90;
isGlobal = 0;
magnetic = 5;
x = 270;
y = 0;
}
);
};
},
{
color = 5;
glyphname = h;
layers = (
{
anchors = (
{
name = bottom;
position = "{275, 0}";
},
{
name = center;
position = "{151, 597}";
},
{
name = top;
position = "{426, 675}";
}
);
layerId = "FF2DC345-5101-49B6-97F3-57A040F7C387";
paths = (
{
closed = 1;
nodes = (
"59 -5 OFFCURVE",
"23 32 OFFCURVE",
"23 57 CURVE SMOOTH",
"23 71 OFFCURVE",
"27 87 OFFCURVE",
"34 114 CURVE SMOOTH",
"71 257 OFFCURVE",
"149 588 OFFCURVE",
"149 732 CURVE SMOOTH",
"149 758 OFFCURVE",
"157 771 OFFCURVE",
"173 771 CURVE SMOOTH",
"198.333 771 OFFCURVE",
"235 720 OFFCURVE",
"235 683 CURVE SMOOTH",
"235 596 OFFCURVE",
"187.333 357 OFFCURVE",
"118 149 CURVE",
"305 482 OFFCURVE",
"369 491 OFFCURVE",
"401 491 CURVE SMOOTH",
"435.667 491 OFFCURVE",
"496 416 OFFCURVE",
"496 356 CURVE SMOOTH",
"496 294 OFFCURVE",
"424 -5 OFFCURVE",
"354 -5 CURVE SMOOTH",
"339 -5 OFFCURVE",
"332 5 OFFCURVE",
"332 25 CURVE SMOOTH",
"332 88 OFFCURVE",
"409 249 OFFCURVE",
"409 335 CURVE SMOOTH",
"409 363 OFFCURVE",
"395 377 OFFCURVE",
"376 377 CURVE SMOOTH",
"299 377 OFFCURVE",
"115 -5 OFFCURVE",
"75 -5 CURVE SMOOTH"
);
}
);
width = 536;
},
{
anchors = (
{
name = bottom;
position = "{275, 0}";
},
{
name = center;
position = "{151, 597}";
},
{
name = top;
position = "{426, 675}";
}
);
associatedMasterId = "FF2DC345-5101-49B6-97F3-57A040F7C387";
layerId = "E5E8C182-DDD1-43B1-93A3-6937EE88A897";
name = "Mar 31, 22, 11:33";
paths = (
{
closed = 1;
nodes = (
"97 377 QCURVE SMOOTH",
"84 306 OFFCURVE",
"34 114 QCURVE SMOOTH",
"23 71 OFFCURVE",
"23 40 OFFCURVE",
"63 -5 OFFCURVE",
"87 -5 OFFCURVE",
"110 28 QCURVE SMOOTH",
"123 45 OFFCURVE",
"141 74 OFFCURVE",
"178 134 OFFCURVE",
"193 157 OFFCURVE",
"266 269 OFFCURVE",
"300 314 QCURVE SMOOTH",
"327 349 OFFCURVE",
"365 377 OFFCURVE",
"391 377 OFFCURVE",
"409 353 OFFCURVE",
"409 335 QCURVE SMOOTH",
"409 281 OFFCURVE",
"356 126 QCURVE SMOOTH",
"332 55 OFFCURVE",
"332 -5 OFFCURVE",
"354 -5 QCURVE SMOOTH",
"409 -5 OFFCURVE",
"471 221 QCURVE SMOOTH",
"496 311 OFFCURVE",
"496 401 OFFCURVE",
"427 491 OFFCURVE",
"401 491 QCURVE SMOOTH",
"353 491 OFFCURVE",
"218 330 OFFCURVE",
"118 149 QCURVE",
"170 305 OFFCURVE",
"235 618 OFFCURVE",
"235 683 QCURVE SMOOTH",
"235 711 OFFCURVE",
"192 771 OFFCURVE",
"173 771 QCURVE SMOOTH",
"149 771 OFFCURVE",
"149 732 QCURVE SMOOTH",
"149 637 OFFCURVE"
);
}
);
visible = 1;
width = 536;
}
);
leftKerningGroup = h;
rightKerningGroup = n;
unicode = 0068;
userData = {
com.typemytype.robofont.guides = (
{
angle = 0;
isGlobal = 0;
magnetic = 5;
x = 0;
y = 9;
},
{
angle = 0;
isGlobal = 0;
magnetic = 5;
x = 0;
y = 301;
},
{
angle = 0;
isGlobal = 0;
magnetic = 5;
x = 0;
y = 414;
},
{
angle = 0;
isGlobal = 0;
magnetic = 5;
x = 0;
y = 710;
},
{
angle = 90;
isGlobal = 0;
magnetic = 5;
x = 79;
y = 0;
},
{
angle = 90;
isGlobal = 0;
magnetic = 5;
x = 291;
y = 0;
}
);
};
},
{
color = 5;
glyphname = i;
layers = (
{
anchors = (
{
name = bottom;
position = "{121, 0}";
},
{
name = top;
position = "{122, 722}";
}
);
hints = (
{
horizontal = 1;
place = "{0, 0}";
type = Tag;
}
);
layerId = "FF2DC345-5101-49B6-97F3-57A040F7C387";
paths = (
{
closed = 1;
nodes = (
"210 555 OFFCURVE",
"159 606 OFFCURVE",
"159 633 CURVE SMOOTH",
"159 660 OFFCURVE",
"186 689 OFFCURVE",
"207.5 689 CURVE SMOOTH",
"229 689 OFFCURVE",
"270 617 OFFCURVE",
"270 581 CURVE SMOOTH",
"270 568 OFFCURVE",
"255 555 OFFCURVE",
"242 555 CURVE SMOOTH"
);
},
{
closed = 1;
nodes = (
"43 -4 OFFCURVE",
"28 14 OFFCURVE",
"28 33.5 CURVE SMOOTH",
"28 50 OFFCURVE",
"97.996 341.699 OFFCURVE",
"125 442 CURVE SMOOTH",
"134.333 474.667 OFFCURVE",
"144 491 OFFCURVE",
"154 491 CURVE SMOOTH",
"179 491 OFFCURVE",
"207 452 OFFCURVE",
"207 423 CURVE SMOOTH",
"207 367 OFFCURVE",
"160.722 218.231 OFFCURVE",
"105 46 CURVE SMOOTH",
"93.667 12.667 OFFCURVE",
"79 -4 OFFCURVE",
"62 -4 CURVE SMOOTH"
);
}
);
width = 238;
},
{
anchors = (
{
name = bottom;
position = "{121, 0}";
},
{
name = top;
position = "{122, 722}";
}
);
associatedMasterId = "FF2DC345-5101-49B6-97F3-57A040F7C387";
hints = (
{
horizontal = 1;
place = "{0, 0}";
type = Tag;
}
);
layerId = "70E23E75-AE6B-4196-B670-44DFAE9269D1";
name = "Mar 31, 22, 11:57";
paths = (
{
closed = 1;
nodes = (
"270 617 OFFCURVE",
"229.5 689 OFFCURVE",
"207.5 689 CURVE SMOOTH",
"185.5 689 OFFCURVE",
"159 659.667 OFFCURVE",
"159 633 CURVE SMOOTH",
"159 606.333 OFFCURVE",
"210 555 OFFCURVE",
"242 555 CURVE SMOOTH",
"255.333 555 OFFCURVE",
"270 567.667 OFFCURVE",
"270 581 CURVE SMOOTH"
);
},
{
closed = 1;
nodes = (
"79 -4 OFFCURVE",
"93.667 12.667 OFFCURVE",
"105 46 CURVE SMOOTH",
"160.722 218.231 OFFCURVE",
"207 366.959 OFFCURVE",
"207 423 CURVE SMOOTH",
"207 452.333 OFFCURVE",
"179.333 491 OFFCURVE",
"154 491 CURVE SMOOTH",
"144 491 OFFCURVE",
"134.333 474.667 OFFCURVE",
"125 442 CURVE SMOOTH",
"97.996 341.699 OFFCURVE",
"28 43 OFFCURVE",
"28 33.5 CURVE SMOOTH",
"28 14 OFFCURVE",
"43 -4 OFFCURVE",
"62 -4 CURVE SMOOTH"
);
}
);
visible = 1;
width = 238;
}
);
leftKerningGroup = i;
rightKerningGroup = i;
unicode = 0069;
userData = {
com.typemytype.robofont.guides = (
{
angle = 0;
isGlobal = 0;
magnetic = 5;
x = 0;
y = 510;
},
{
angle = 0;
isGlobal = 0;
magnetic = 5;
x = 0;
y = 22;
},
{
angle = 0;
isGlobal = 0;
magnetic = 5;
x = 0;
y = 627;
},
{
angle = 90;
isGlobal = 0;
magnetic = 5;
x = 79;
y = 0;
},
{
angle = 90;
isGlobal = 0;
magnetic = 5;
x = 121;
y = 0;
},
{
angle = 90;
isGlobal = 0;
magnetic = 5;
x = 70;
y = 0;
},
{
angle = 90;
isGlobal = 0;
magnetic = 5;
x = 131;
y = 0;
}
);
};
},
{
color = 5;
glyphname = idotless;
layers = (
{
anchors = (
{
name = bottom;
position = "{121, 0}";
},
{
name = ogonek;
position = "{169, 48}";
},
{
name = top;
position = "{171, 520}";
}
);
hints = (
{
horizontal = 1;
place = "{0, 0}";
type = Tag;
}
);
layerId = "FF2DC345-5101-49B6-97F3-57A040F7C387";
paths = (
{
closed = 1;
nodes = (
"43 -4 OFFCURVE",
"28 14 OFFCURVE",
"28 33.5 CURVE SMOOTH",
"28 50 OFFCURVE",
"99 342 OFFCURVE",
"125 442 CURVE SMOOTH",
"134 475 OFFCURVE",
"144 491 OFFCURVE",
"154 491 CURVE SMOOTH",
"179 491 OFFCURVE",
"207 452 OFFCURVE",
"207 423 CURVE SMOOTH",
"207 367 OFFCURVE",
"157 219 OFFCURVE",
"105 46 CURVE SMOOTH",
"95 13 OFFCURVE",
"79 -4 OFFCURVE",
"62 -4 CURVE SMOOTH"
);
}
);
width = 238;
}
);
leftKerningGroup = i;
rightKerningGroup = i;
unicode = 0131;
},
{
color = 5;
glyphname = j;
layers = (
{
anchors = (
{
name = top;
position = "{131, 722}";
}
);
layerId = "FF2DC345-5101-49B6-97F3-57A040F7C387";
paths = (
{
closed = 1;
nodes = (
"-144 -265 OFFCURVE",
"-221 -191 OFFCURVE",
"-221 -151 CURVE SMOOTH",
"-221 -133 OFFCURVE",
"-203 -103 OFFCURVE",
"-191 -103 CURVE SMOOTH",
"-175 -103 OFFCURVE",
"-158 -128 OFFCURVE",
"-149 -141 CURVE SMOOTH",
"-78 -244 OFFCURVE",
"-30.153 -201.049 OFFCURVE",
"6 -71.5 CURVE SMOOTH",
"50.724 88.76 OFFCURVE",
"76.25 238.97 OFFCURVE",
"131 442 CURVE SMOOTH",
"141 474.667 OFFCURVE",
"150.667 491 OFFCURVE",
"160 491 CURVE SMOOTH",
"182.667 491 OFFCURVE",
"213 456.333 OFFCURVE",
"213 423 CURVE SMOOTH",
"213 304.991 OFFCURVE",
"132.099 93.6 OFFCURVE",
"80 -108 CURVE SMOOTH",
"51.333 -212.667 OFFCURVE",
"0 -265 OFFCURVE",
"-76 -265 CURVE SMOOTH"
);
},
{
closed = 1;
nodes = (
"224 555 OFFCURVE",
"172 605 OFFCURVE",
"172 633 CURVE SMOOTH",
"172 661 OFFCURVE",
"197 689 OFFCURVE",
"221 689 CURVE SMOOTH",
"245 689 OFFCURVE",
"283 617 OFFCURVE",
"283 581 CURVE SMOOTH",
"283 567 OFFCURVE",
"268 555 OFFCURVE",
"256 555 CURVE SMOOTH"
);
}
);
width = 254;
},
{
anchors = (
{
name = top;
position = "{131, 722}";
}
);
associatedMasterId = "FF2DC345-5101-49B6-97F3-57A040F7C387";
layerId = "A17F575A-4962-40A9-B40A-0BE06482C44C";
name = "Mar 31, 22, 13:32";
paths = (
{
closed = 1;
nodes = (
"-180 -103 OFFCURVE",
"-191 -103 QCURVE SMOOTH",
"-200 -103 OFFCURVE",
"-221 -138 OFFCURVE",
"-221 -151 QCURVE SMOOTH",
"-221 -181 OFFCURVE",
"-126 -265 OFFCURVE",
"-76 -265 QCURVE SMOOTH",
"37 -265 OFFCURVE",
"80 -108 QCURVE SMOOTH",
"103 -19 OFFCURVE",
"151 167 OFFCURVE",
"213 400 OFFCURVE",
"213 423 QCURVE SMOOTH",
"213 448 OFFCURVE",
"177 491 OFFCURVE",
"160 491 QCURVE SMOOTH",
"146 491 OFFCURVE",
"131 442 QCURVE SMOOTH",
"107 353 OFFCURVE",
"56 129 OFFCURVE",
"24 -7 OFFCURVE",
"-12 -136 OFFCURVE",
"-50 -196 OFFCURVE",
"-106 -196 OFFCURVE",
"-149 -141 QCURVE SMOOTH",
"-156 -132 OFFCURVE"
);
},
{
closed = 1;
nodes = (
"232 555 OFFCURVE",
"256 555 QCURVE SMOOTH",
"265 555 OFFCURVE",
"283 571 OFFCURVE",
"283 581 QCURVE SMOOTH",
"283 608 OFFCURVE",
"238 689 OFFCURVE",
"204 689 OFFCURVE",
"172 653 OFFCURVE",
"172 613 OFFCURVE"
);
}
);
visible = 1;
width = 254;
}
);
rightKerningGroup = i;
unicode = 006A;
userData = {
com.typemytype.robofont.guides = (
{
angle = 0;
isGlobal = 0;
magnetic = 5;
x = 0;
y = 740;
},
{
angle = 0;
isGlobal = 0;
magnetic = 5;
x = 0;
y = "-190";
},
{
angle = 90;
isGlobal = 0;
magnetic = 5;
x = "-46";
y = 0;
}
);
};
},
{
color = 5;
glyphname = k;
layers = (
{
anchors = (
{
name = bottom;
position = "{259, 0}";
},
{
name = top;
position = "{259, 750}";
}
);
hints = (
{
horizontal = 1;
place = "{0, 0}";
type = Tag;
}
);
layerId = "FF2DC345-5101-49B6-97F3-57A040F7C387";
paths = (
{
closed = 1;
nodes = (
"60 -5 OFFCURVE",
"29 37 OFFCURVE",
"29 58 CURVE SMOOTH",
"29 77 OFFCURVE",
"40 111 OFFCURVE",
"62 187 CURVE SMOOTH",
"105 338 OFFCURVE",
"159 576 OFFCURVE",
"159 743 CURVE SMOOTH",
"159 764 OFFCURVE",
"163 771 OFFCURVE",
"183 771 CURVE SMOOTH",
"203 771 OFFCURVE",
"242 721 OFFCURVE",
"242 684 CURVE SMOOTH",
"242 565 OFFCURVE",
"187 323 OFFCURVE",
"120 131 CURVE",
"195 238 OFFCURVE",
"380 491 OFFCURVE",
"418 491 CURVE SMOOTH",
"444 491 OFFCURVE",
"473 458 OFFCURVE",
"473 443 CURVE SMOOTH",
"473 411 OFFCURVE",
"296 290 OFFCURVE",
"296 193 CURVE SMOOTH",
"296 167 OFFCURVE",
"302 144 OFFCURVE",
"318 122 CURVE SMOOTH",
"353 71 OFFCURVE",
"433 44 OFFCURVE",
"433 20 CURVE SMOOTH",
"433 3 OFFCURVE",
"420 -5 OFFCURVE",
"394 -5 CURVE SMOOTH",
"376 -5 OFFCURVE",
"267 14 OFFCURVE",
"224 158 CURVE",
"180 97 OFFCURVE",
"145 54 OFFCURVE",
"126 30 CURVE SMOOTH",
"106 6 OFFCURVE",
"90 -5 OFFCURVE",
"80 -5 CURVE SMOOTH"
);
}
);
width = 469;
},
{
anchors = (
{
name = bottom;
position = "{259, 0}";
},
{
name = top;
position = "{259, 750}";
}
);
associatedMasterId = "FF2DC345-5101-49B6-97F3-57A040F7C387";
hints = (
{
horizontal = 1;
place = "{0, 0}";
type = Tag;
}
);
layerId = "CB20BECF-4292-40DB-9E91-616BB1D19DBF";
name = "Mar 31, 22, 13:36";
paths = (
{
closed = 1;
nodes = (
"437 491 OFFCURVE",
"398 491 OFFCURVE",
"233 292 OFFCURVE",
"120 131 QCURVE",
"170 275 OFFCURVE",
"242 595 OFFCURVE",
"242 684 QCURVE SMOOTH",
"242 712 OFFCURVE",
"198 771 OFFCURVE",
"168 771 OFFCURVE",
"159 759 OFFCURVE",
"159 743 QCURVE SMOOTH",
"159 618 OFFCURVE",
"94 300 OFFCURVE",
"29 73 OFFCURVE",
"29 42 OFFCURVE",
"65 -5 OFFCURVE",
"95 -5 OFFCURVE",
"156 66 OFFCURVE",
"224 158 QCURVE",
"227 149 OFFCURVE",
"232 139 QCURVE",
"245 84 OFFCURVE",
"354 -5 OFFCURVE",
"433 -5 OFFCURVE",
"433 20 QCURVE SMOOTH",
"433 30 OFFCURVE",
"390 60 OFFCURVE",
"339 91 OFFCURVE",
"296 152 OFFCURVE",
"296 224 OFFCURVE",
"351 311 OFFCURVE",
"384 343 QCURVE SMOOTH",
"473 428 OFFCURVE",
"473 437 QCURVE SMOOTH",
"473 453 OFFCURVE"
);
}
);
visible = 1;
width = 469;
}
);
leftKerningGroup = h;
rightKerningGroup = k;
unicode = 006B;
userData = {
com.typemytype.robofont.guides = (
{
angle = 0;
isGlobal = 0;
magnetic = 5;
x = 0;
y = 520;
},
{
angle = 0;
isGlobal = 0;
magnetic = 5;
x = 0;
y = 710;
},
{
angle = 0;
isGlobal = 0;
magnetic = 5;
x = 0;
y = 260;
},
{
angle = 90;
isGlobal = 0;
magnetic = 5;
x = 460;
y = 0;
},
{
angle = 90;
isGlobal = 0;
magnetic = 5;
x = 430;
y = 0;
}
);
};
},
{
color = 5;
glyphname = l;
layers = (
{
anchors = (
{
name = bottom;
position = "{122, 0}";
},
{
name = center;
position = "{122, 375}";
},
{
name = top;
position = "{122, 676}";
},
{
name = topright;
position = "{253, 710}";
}
);
layerId = "FF2DC345-5101-49B6-97F3-57A040F7C387";
paths = (
{
closed = 1;
nodes = (
"103 -5 OFFCURVE",
"228 412 OFFCURVE",
"228 687 CURVE SMOOTH",
"228 723 OFFCURVE",
"183 771 OFFCURVE",
"166 771 CURVE SMOOTH",
"149 771 OFFCURVE",
"145 764 OFFCURVE",
"145 745 CURVE SMOOTH",
"145 480 OFFCURVE",
"29 69 OFFCURVE",
"29 51 CURVE SMOOTH",
"29 35 OFFCURVE",
"61 -5 OFFCURVE",
"80 -5 CURVE SMOOTH"
);
}
);
width = 245;
},
{
anchors = (
{
name = bottom;
position = "{122, 0}";
},
{
name = center;
position = "{122, 375}";
},
{
name = top;
position = "{122, 676}";
},
{
name = topright;
position = "{253, 710}";
}
);
associatedMasterId = "FF2DC345-5101-49B6-97F3-57A040F7C387";
layerId = "6AC0D68A-F371-4DCA-B76C-802B5F7C9653";
name = "Mar 31, 22, 13:48";
paths = (
{
closed = 1;
nodes = (
"179 771 OFFCURVE",
"153 771 OFFCURVE",
"145 759 OFFCURVE",
"145 745 QCURVE SMOOTH",
"145 614 OFFCURVE",
"87 287 OFFCURVE",
"29 63 OFFCURVE",
"29 39 OFFCURVE",
"66 -5 OFFCURVE",
"80 -5 QCURVE SMOOTH",
"100 -5 OFFCURVE",
"150 199 QCURVE SMOOTH",
"228 499 OFFCURVE",
"228 687 QCURVE SMOOTH",
"228 714 OFFCURVE"
);
}
);
visible = 1;
width = 245;
}
);
leftKerningGroup = l;
rightKerningGroup = l;
unicode = 006C;
userData = {
com.typemytype.robofont.guides = (
{
angle = 0;
isGlobal = 0;
magnetic = 5;
x = 0;
y = 9;
},
{
angle = 0;
isGlobal = 0;
magnetic = 5;
x = 0;
y = 710;
}
);
};
},
{
color = 5;
glyphname = m;
layers = (
{
anchors = (
{
name = bottom;
position = "{445, 0}";
},
{
name = top;
position = "{495, 520}";
}
);
hints = (
{
horizontal = 1;
place = "{0, 0}";
type = Tag;
},
{
horizontal = 1;
place = "{0, 0}";
type = Tag;
}
);
layerId = "FF2DC345-5101-49B6-97F3-57A040F7C387";
paths = (
{
closed = 1;
nodes = (
"58 -5 OFFCURVE",
"22 36 OFFCURVE",
"22 52 CURVE SMOOTH",
"22 111 OFFCURVE",
"96 249 OFFCURVE",
"96 442 CURVE SMOOTH",
"96 483 OFFCURVE",
"104 495 OFFCURVE",
"117 495 CURVE SMOOTH",
"146 495 OFFCURVE",
"181 457 OFFCURVE",
"181 426 CURVE SMOOTH",
"181 367 OFFCURVE",
"159 271 OFFCURVE",
"115 136 CURVE",
"242 392 OFFCURVE",
"320 491 OFFCURVE",
"385 491 CURVE SMOOTH",
"423 491 OFFCURVE",
"476 423 OFFCURVE",
"476 359 CURVE SMOOTH",
"476 329 OFFCURVE",
"473 297 OFFCURVE",
"464 262 CURVE",
"543 415 OFFCURVE",
"614 491 OFFCURVE",
"678 491 CURVE SMOOTH",
"718 491 OFFCURVE",
"755 426 OFFCURVE",
"755 356 CURVE SMOOTH",
"755 267 OFFCURVE",
"693 -5 OFFCURVE",
"626 -5 CURVE SMOOTH",
"610 -5 OFFCURVE",
"606 5 OFFCURVE",
"606 26 CURVE SMOOTH",
"606 95 OFFCURVE",
"673 208 OFFCURVE",
"674 337 CURVE SMOOTH",
"674 371 OFFCURVE",
"668 392 OFFCURVE",
"654 392 CURVE SMOOTH",
"564 392 OFFCURVE",
"424 -4 OFFCURVE",
"373 -4 CURVE SMOOTH",
"355 -4 OFFCURVE",
"330 22 OFFCURVE",
"330 43 CURVE SMOOTH",
"330 87 OFFCURVE",
"400 169 OFFCURVE",
"400 342 CURVE SMOOTH",
"400 370 OFFCURVE",
"386 392 OFFCURVE",
"371 392 CURVE SMOOTH",
"323 392 OFFCURVE",
"235 207 OFFCURVE",
"114 32 CURVE SMOOTH",
"97 7 OFFCURVE",
"85 -5 OFFCURVE",
"75 -5 CURVE SMOOTH"
);
}
);
width = 796;
},
{
anchors = (
{
name = bottom;
position = "{445, 0}";
},
{
name = top;
position = "{445, 520}";
}
);
associatedMasterId = "FF2DC345-5101-49B6-97F3-57A040F7C387";
hints = (
{
horizontal = 1;
place = "{0, 0}";
type = Tag;
},
{
horizontal = 1;
place = "{0, 0}";
type = Tag;
}
);
layerId = "8649ED01-B4E3-49D8-9BCE-DB8766896CF7";
name = "Mar 31, 22, 13:50";
paths = (
{
closed = 1;
nodes = (
"464 262 QCURVE",
"476 324 OFFCURVE",
"476 408 OFFCURVE",
"409 491 OFFCURVE",
"385 491 QCURVE SMOOTH",
"345 491 OFFCURVE",
"306 448 QCURVE SMOOTH",
"285 424 OFFCURVE",
"227 346 OFFCURVE",
"115 136 QCURVE",
"181 338 OFFCURVE",
"181 426 QCURVE SMOOTH",
"181 449 OFFCURVE",
"138 495 OFFCURVE",
"116 495 QCURVE SMOOTH",
"102 495 OFFCURVE",
"96 426 OFFCURVE",
"83 277 OFFCURVE",
"58 192 OFFCURVE",
"39 129 OFFCURVE",
"30 97 OFFCURVE",
"22 63 OFFCURVE",
"22 40 OFFCURVE",
"62 -5 OFFCURVE",
"87 -5 OFFCURVE",
"114 32 QCURVE SMOOTH",
"127 51 OFFCURVE",
"148 83 OFFCURVE",
"186 142 OFFCURVE",
"215 187 OFFCURVE",
"272 280 OFFCURVE",
"300 324 OFFCURVE",
"336 373 OFFCURVE",
"360 392 OFFCURVE",
"382 392 OFFCURVE",
"400 363 OFFCURVE",
"400 342 QCURVE SMOOTH",
"400 230 OFFCURVE",
"348 100 QCURVE SMOOTH",
"330 56 OFFCURVE",
"330 28 OFFCURVE",
"360 -4 OFFCURVE",
"385 -4 OFFCURVE",
"419 47 OFFCURVE",
"464 137 OFFCURVE",
"475 155 OFFCURVE",
"484 171 OFFCURVE",
"490 180 OFFCURVE",
"564 304 OFFCURVE",
"629 392 OFFCURVE",
"654 392 QCURVE SMOOTH",
"674 392 OFFCURVE",
"674 265 OFFCURVE",
"605 50 OFFCURVE",
"605 -5 OFFCURVE",
"626 -5 QCURVE SMOOTH",
"656 -5 OFFCURVE",
"718 135 OFFCURVE",
"755 303 OFFCURVE",
"755 408 OFFCURVE",
"708 491 OFFCURVE",
"678 491 QCURVE SMOOTH",
"582 491 OFFCURVE"
);
}
);
visible = 1;
width = 796;
}
);
leftKerningGroup = n;
rightKerningGroup = n;
unicode = 006D;
},
{
color = 5;
glyphname = n;
layers = (
{
anchors = (
{
name = bottom;
position = "{266, 0}";
},
{
name = top;
position = "{301, 520}";
}
);
hints = (
{
horizontal = 1;
place = "{0, 0}";
type = Tag;
},
{
horizontal = 1;
place = "{0, 0}";
type = Tag;
}
);
layerId = "FF2DC345-5101-49B6-97F3-57A040F7C387";
paths = (
{
closed = 1;
nodes = (
"56 -5 OFFCURVE",
"23 34 OFFCURVE",
"23 57 CURVE SMOOTH",
"23 75 OFFCURVE",
"97 245 OFFCURVE",
"97 422 CURVE SMOOTH",
"97 471 OFFCURVE",
"106 495 OFFCURVE",
"118 495 CURVE SMOOTH",
"147 495 OFFCURVE",
"184 458 OFFCURVE",
"184 422 CURVE SMOOTH",
"184 385 OFFCURVE",
"158 260 OFFCURVE",
"129 169 CURVE",
"306 474 OFFCURVE",
"356 491 OFFCURVE",
"385 491 CURVE SMOOTH",
"436 491 OFFCURVE",
"492 424 OFFCURVE",
"492 363 CURVE SMOOTH",
"492 280 OFFCURVE",
"421 -5 OFFCURVE",
"351 -5 CURVE SMOOTH",
"336 -5 OFFCURVE",
"329 5 OFFCURVE",
"329 25 CURVE SMOOTH",
"329 89 OFFCURVE",
"409 239 OFFCURVE",
"409 332 CURVE SMOOTH",
"409 356 OFFCURVE",
"401 393 OFFCURVE",
"381 393 CURVE SMOOTH",
"351 393 OFFCURVE",
"330 375 OFFCURVE",
"115 32 CURVE SMOOTH",
"98 5 OFFCURVE",
"85 -5 OFFCURVE",
"76 -5 CURVE SMOOTH"
);
}
);
width = 533;
},
{
anchors = (
{
name = bottom;
position = "{266, 0}";
},
{
name = top;
position = "{301, 520}";
}
);
associatedMasterId = "FF2DC345-5101-49B6-97F3-57A040F7C387";
hints = (
{
horizontal = 1;
place = "{0, 0}";
type = Tag;
},
{
horizontal = 1;
place = "{0, 0}";
type = Tag;
}
);
layerId = "76E2ED42-9886-480C-9536-091712FA398B";
name = "Mar 31, 22, 14:31";
paths = (
{
closed = 1;
nodes = (
"151 237 OFFCURVE",
"184 394 OFFCURVE",
"184 449 OFFCURVE",
"140 495 OFFCURVE",
"118 495 QCURVE SMOOTH",
"100 495 OFFCURVE",
"97 422 QCURVE SMOOTH",
"95 313 OFFCURVE",
"49 142 OFFCURVE",
"30 84 QCURVE SMOOTH",
"23 62 OFFCURVE",
"23 57 QCURVE SMOOTH",
"23 40 OFFCURVE",
"61 -5 OFFCURVE",
"90 -5 OFFCURVE",
"115 32 QCURVE SMOOTH",
"128 51 OFFCURVE",
"149 83 OFFCURVE",
"185 141 OFFCURVE",
"207 175 OFFCURVE",
"249 241 OFFCURVE",
"271 276 OFFCURVE",
"304 326 OFFCURVE",
"326 353 OFFCURVE",
"351 381 OFFCURVE",
"371 393 OFFCURVE",
"390 393 OFFCURVE",
"409 363 OFFCURVE",
"409 300 OFFCURVE",
"372 175 OFFCURVE",
"329 46 OFFCURVE",
"329 25 QCURVE SMOOTH",
"329 -5 OFFCURVE",
"351 -5 QCURVE SMOOTH",
"399 -5 OFFCURVE",
"459 187 QCURVE SMOOTH",
"492 291 OFFCURVE",
"492 363 QCURVE SMOOTH",
"492 409 OFFCURVE",
"423 491 OFFCURVE",
"346 491 OFFCURVE",
"225 332 OFFCURVE",
"129 169 QCURVE"
);
}
);
visible = 1;
width = 533;
}
);
leftKerningGroup = n;
rightKerningGroup = n;
unicode = 006E;
userData = {
com.typemytype.robofont.guides = (
{
angle = 0;
isGlobal = 0;
magnetic = 5;
x = 0;
y = 530;
},
{
angle = 0;
isGlobal = 0;
magnetic = 5;
x = 0;
y = 301;
},
{
angle = 0;
isGlobal = 0;
magnetic = 5;
x = 0;
y = 650;
},
{
angle = 0;
isGlobal = 0;
magnetic = 5;
x = 0;
y = 407;
},
{
angle = 0;
isGlobal = 0;
magnetic = 5;
x = 0;
y = 451;
},
{
angle = 90;
isGlobal = 0;
magnetic = 5;
x = 291;
y = 0;
},
{
angle = 90;
isGlobal = 0;
magnetic = 5;
x = 131;
y = 0;
}
);
};
},
{
color = 5;
glyphname = o;
layers = (
{
anchors = (
{
name = bottom;
position = "{87, 0}";
},
{
name = center;
position = "{227, 260}";
},
{
name = ogonek;
position = "{236, 10}";
},
{
name = top;
position = "{307, 520}";
},
{
name = topright;
position = "{394, 520}";
}
);
hints = (
{
horizontal = 1;
place = "{0, 0}";
type = Tag;
}
);
layerId = "FF2DC345-5101-49B6-97F3-57A040F7C387";
paths = (
{
closed = 1;
nodes = (
"243 63 OFFCURVE",
"333 221 OFFCURVE",
"333 321 CURVE SMOOTH",
"333 366 OFFCURVE",
"310 428 OFFCURVE",
"290 428 CURVE SMOOTH",
"210 428 OFFCURVE",
"121 249 OFFCURVE",
"121 154 CURVE SMOOTH",
"121 111 OFFCURVE",
"137 63 OFFCURVE",
"160 63 CURVE SMOOTH"
);
},
{
closed = 1;
nodes = (
"87 -5 OFFCURVE",
"36 64.833 OFFCURVE",
"36 161.5 CURVE SMOOTH",
"36 292 OFFCURVE",
"141 491 OFFCURVE",
"277.5 491 CURVE SMOOTH",
"356.833 491 OFFCURVE",
"417 414.167 OFFCURVE",
"417 317.5 CURVE SMOOTH",
"417 147.445 OFFCURVE",
"287.736 -5 OFFCURVE",
"155 -5 CURVE SMOOTH"
);
}
);
width = 453;
},
{
anchors = (
{
name = bottom;
position = "{87, 0}";
},
{
name = center;
position = "{227, 260}";
},
{
name = ogonek;
position = "{236, 10}";
},
{
name = top;
position = "{287, 520}";
},
{
name = topright;
position = "{394, 520}";
}
);
associatedMasterId = "FF2DC345-5101-49B6-97F3-57A040F7C387";
hints = (
{
horizontal = 1;
place = "{0, 0}";
type = Tag;
}
);
layerId = "7966A838-390C-49A5-896A-623839AF1E60";
name = "Mar 31, 22, 14:35";
paths = (
{
closed = 1;
nodes = (
"232 77 OFFCURVE",
"160 63 QCURVE",
"122 82 OFFCURVE",
"122 236 OFFCURVE",
"221 411 OFFCURVE",
"290 430 QCURVE",
"311 416 OFFCURVE",
"333 355 OFFCURVE",
"333 321 QCURVE SMOOTH",
"333 246 OFFCURVE"
);
},
{
closed = 1;
nodes = (
"36 89 OFFCURVE",
"104 -5 OFFCURVE",
"155 -5 QCURVE SMOOTH",
"224 -5 OFFCURVE",
"347 94 OFFCURVE",
"417 245 OFFCURVE",
"417 390 OFFCURVE",
"337 491 OFFCURVE",
"218 491 OFFCURVE",
"105 390 OFFCURVE",
"36 234 OFFCURVE"
);
}
);
visible = 1;
width = 453;
}
);
leftKerningGroup = o;
rightKerningGroup = o;
unicode = 006F;
userData = {
com.typemytype.robofont.guides = (
{
angle = 0;
isGlobal = 0;
magnetic = 5;
x = 0;
y = 302;
},
{
angle = 0;
isGlobal = 0;
magnetic = 5;
x = 0;
y = 218;
},
{
angle = 0;
isGlobal = 0;
magnetic = 5;
x = 0;
y = 411;
},
{
angle = 0;
isGlobal = 0;
magnetic = 5;
x = 0;
y = 109;
},
{
angle = 90;
isGlobal = 0;
magnetic = 5;
x = 278;
y = 0;
},
{
angle = 90;
isGlobal = 0;
magnetic = 5;
x = 56;
y = 0;
},
{
angle = 90;
isGlobal = 0;
magnetic = 5;
x = 500;
y = 0;
}
);
};
},
{
color = 5;
glyphname = oe;
layers = (
{
anchors = (
{
name = bottom;
position = "{469, 0}";
},
{
name = top;
position = "{469, 520}";
}
);
hints = (
{
horizontal = 1;
place = "{0, 0}";
type = Tag;
},
{
horizontal = 1;
place = "{0, 0}";
type = Tag;
},
{
horizontal = 1;
place = "{0, 0}";
type = Tag;
},
{
horizontal = 1;
place = "{0, 0}";
type = Tag;
}
);
layerId = "FF2DC345-5101-49B6-97F3-57A040F7C387";
paths = (
{
closed = 1;
nodes = (
"379 -10 OFFCURVE",
"442 27 OFFCURVE",
"477 86 CURVE",
"515 26 OFFCURVE",
"578 -10 OFFCURVE",
"661 -10 CURVE SMOOTH",
"794 -10 OFFCURVE",
"872 77 OFFCURVE",
"875 117 CURVE SMOOTH",
"876 130 OFFCURVE",
"866 138 OFFCURVE",
"853 138 CURVE SMOOTH",
"805 138 LINE SMOOTH",
"790 138 OFFCURVE",
"786 137 OFFCURVE",
"774 121 CURVE SMOOTH",
"763 105 OFFCURVE",
"727 64 OFFCURVE",
"660 64 CURVE SMOOTH",
"576 64 OFFCURVE",
"528 138 OFFCURVE",
"524 220 CURVE SMOOTH",
"524 229 LINE",
"870 229 LINE SMOOTH",
"883 229 OFFCURVE",
"893 238 OFFCURVE",
"893 252 CURVE SMOOTH",
"893 269 LINE SMOOTH",
"893 427 OFFCURVE",
"810 530 OFFCURVE",
"660 530 CURVE SMOOTH",
"577 530 OFFCURVE",
"515 493 OFFCURVE",
"478 432 CURVE",
"442 492 OFFCURVE",
"378 530 OFFCURVE",
"288 530 CURVE SMOOTH",
"138 530 OFFCURVE",
"58 435 OFFCURVE",
"53 303 CURVE SMOOTH",
"52 281 OFFCURVE",
"52 239 OFFCURVE",
"53 217 CURVE SMOOTH",
"58 85 OFFCURVE",
"136 -10 OFFCURVE",
"288 -10 CURVE SMOOTH"
);
},
{
closed = 1;
nodes = (
"205 67 OFFCURVE",
"152 121 OFFCURVE",
"148 222 CURVE SMOOTH",
"147 242 OFFCURVE",
"147 278 OFFCURVE",
"148 298 CURVE SMOOTH",
"152 399 OFFCURVE",
"205 453 OFFCURVE",
"288 453 CURVE SMOOTH",
"370 453 OFFCURVE",
"423 399 OFFCURVE",
"427 298 CURVE SMOOTH",
"428 278 OFFCURVE",
"428 242 OFFCURVE",
"427 222 CURVE SMOOTH",
"423 121 OFFCURVE",
"370 67 OFFCURVE",
"288 67 CURVE SMOOTH"
);
},
{
closed = 1;
nodes = (
"524 301 LINE SMOOTH",
"524 391 OFFCURVE",
"574 457 OFFCURVE",
"660 457 CURVE SMOOTH",
"746 457 OFFCURVE",
"798 391 OFFCURVE",
"798 301 CURVE SMOOTH",
"798 298 LINE",
"524 298 LINE"
);
}
);
width = 937;
}
);
leftKerningGroup = o;
rightKerningGroup = e;
unicode = 0153;
userData = {
com.typemytype.robofont.guides = (
{
angle = 90;
isGlobal = 0;
magnetic = 5;
x = 51;
y = 0;
},
{
angle = 90;
isGlobal = 0;
magnetic = 5;
x = 495;
y = 0;
}
);
};
},
{
color = 5;
glyphname = p;
layers = (
{
anchors = (
{
name = bottom;
position = "{299, 0}";
},
{
name = top;
position = "{299, 520}";
}
);
hints = (
{
horizontal = 1;
place = "{0, 0}";
type = Tag;
},
{
horizontal = 1;
place = "{0, 0}";
type = Tag;
}
);
layerId = "FF2DC345-5101-49B6-97F3-57A040F7C387";
paths = (
{
closed = 1;
nodes = (
"-10 -262 OFFCURVE",
"-38 -223 OFFCURVE",
"-38 -202 CURVE SMOOTH",
"-38 -189 OFFCURVE",
"-27 -142 OFFCURVE",
"-6 -56 CURVE SMOOTH",
"58 203 OFFCURVE",
"90 378 OFFCURVE",
"90 468 CURVE SMOOTH",
"90 488 OFFCURVE",
"97 498 OFFCURVE",
"112 498 CURVE SMOOTH",
"136 498 OFFCURVE",
"181 456 OFFCURVE",
"181 413 CURVE SMOOTH",
"181 402 OFFCURVE",
"180 391 OFFCURVE",
"177 378 CURVE",
"236 455 OFFCURVE",
"297 494 OFFCURVE",
"358 494 CURVE SMOOTH",
"424 494 OFFCURVE",
"465 389 OFFCURVE",
"465 326 CURVE SMOOTH",
"466 178 OFFCURVE",
"266 -3 OFFCURVE",
"124 -3 CURVE SMOOTH",
"111 -3 OFFCURVE",
"98 -1 OFFCURVE",
"86 2 CURVE",
"64 -90 OFFCURVE",
"56 -132 OFFCURVE",
"39 -194 CURVE SMOOTH",
"26 -242 OFFCURVE",
"16 -262 OFFCURVE",
"3 -262 CURVE SMOOTH"
);
},
{
closed = 1;
nodes = (
"240 75 OFFCURVE",
"377 211 OFFCURVE",
"377 325 CURVE SMOOTH",
"377 380 OFFCURVE",
"364 408 OFFCURVE",
"338 408 CURVE SMOOTH",
"286 408 OFFCURVE",
"158 292 OFFCURVE",
"122 147 CURVE SMOOTH",
"104 75 LINE"
);
}
);
width = 478;
},
{
anchors = (
{
name = bottom;
position = "{299, 0}";
},
{
name = top;
position = "{299, 520}";
}
);
associatedMasterId = "FF2DC345-5101-49B6-97F3-57A040F7C387";
hints = (
{
horizontal = 1;
place = "{0, 0}";
type = Tag;
},
{
horizontal = 1;
place = "{0, 0}";
type = Tag;
}
);
layerId = "1F524C74-AD40-4185-9146-9A4390F6A69E";
name = "Mar 31, 22, 14:39";
paths = (
{
closed = 1;
nodes = (
"177 378 QCURVE",
"181 397 OFFCURVE",
"181 413 QCURVE SMOOTH",
"181 445 OFFCURVE",
"130 498 OFFCURVE",
"112 498 QCURVE SMOOTH",
"90 498 OFFCURVE",
"90 468 QCURVE SMOOTH",
"90 333 OFFCURVE",
"-6 -56 QCURVE SMOOTH",
"-38 -185 OFFCURVE",
"-38 -219 OFFCURVE",
"-7 -262 OFFCURVE",
"21 -262 OFFCURVE",
"39 -194 QCURVE SMOOTH",
"48 -161 OFFCURVE",
"62 -103 OFFCURVE",
"82 -15 OFFCURVE",
"86 2 QCURVE",
"104 -3 OFFCURVE",
"124 -3 QCURVE SMOOTH",
"175 -3 OFFCURVE",
"296 58 OFFCURVE",
"396 150 OFFCURVE",
"464 267 OFFCURVE",
"464 384 OFFCURVE",
"401 494 OFFCURVE",
"358 494 QCURVE SMOOTH",
"266 494 OFFCURVE"
);
},
{
closed = 1;
nodes = (
"127 167 LINE",
"166 274 OFFCURVE",
"299 408 OFFCURVE",
"377 408 OFFCURVE",
"377 325 QCURVE SMOOTH",
"377 266 OFFCURVE",
"290 147 OFFCURVE",
"167 75 OFFCURVE",
"114 75 QCURVE SMOOTH",
"104 75 LINE"
);
}
);
visible = 1;
width = 478;
}
);
leftKerningGroup = n;
rightKerningGroup = b;
unicode = 0070;
userData = {
com.typemytype.robofont.guides = (
{
angle = 0;
isGlobal = 0;
magnetic = 5;
x = 0;
y = 530;
},
{
angle = 0;
isGlobal = 0;
magnetic = 5;
x = 0;
y = "-10";
},
{
angle = 0;
isGlobal = 0;
magnetic = 5;
x = 0;
y = 422;
},
{
angle = 0;
isGlobal = 0;
magnetic = 5;
x = 0;
y = "-190";
},
{
angle = 90;
isGlobal = 0;
magnetic = 5;
x = 419;
y = 0;
},
{
angle = 90;
isGlobal = 0;
magnetic = 5;
x = "-609";
y = 0;
},
{
angle = 90;
isGlobal = 0;
magnetic = 5;
x = 79;
y = 0;
},
{
angle = 90;
isGlobal = 0;
magnetic = 5;
x = 122;
y = 0;
},
{
angle = 90;
isGlobal = 0;
magnetic = 5;
x = 291;
y = 0;
}
);
};
},
{
color = 5;
glyphname = thorn;
layers = (
{
anchors = (
{
name = bottom;
position = "{299, 0}";
},
{
name = top;
position = "{299, 520}";
}
);
hints = (
{
horizontal = 1;
place = "{0, 0}";
type = Tag;
}
);
layerId = "FF2DC345-5101-49B6-97F3-57A040F7C387";
paths = (
{
closed = 1;
nodes = (
"147 -190 LINE SMOOTH",
"160 -190 OFFCURVE",
"170 -180 OFFCURVE",
"170 -167 CURVE SMOOTH",
"170 65 LINE",
"202 22 OFFCURVE",
"253 -10 OFFCURVE",
"331 -10 CURVE SMOOTH",
"480 -10 OFFCURVE",
"540 101 OFFCURVE",
"545 226 CURVE SMOOTH",
"546 248 OFFCURVE",
"546 272 OFFCURVE",
"545 294 CURVE SMOOTH",
"540 421 OFFCURVE",
"480 530 OFFCURVE",
"331 530 CURVE SMOOTH",
"251 530 OFFCURVE",
"202 499 OFFCURVE",
"170 455 CURVE",
"170 687 LINE SMOOTH",
"170 700 OFFCURVE",
"160 710 OFFCURVE",
"147 710 CURVE SMOOTH",
"98 710 LINE SMOOTH",
"85 710 OFFCURVE",
"75 700 OFFCURVE",
"75 687 CURVE SMOOTH",
"75 -167 LINE SMOOTH",
"75 -180 OFFCURVE",
"85 -190 OFFCURVE",
"98 -190 CURVE SMOOTH"
);
},
{
closed = 1;
nodes = (
"214 71 OFFCURVE",
"172 147 OFFCURVE",
"170 218 CURVE SMOOTH",
"168 240 OFFCURVE",
"168 274 OFFCURVE",
"170 295 CURVE SMOOTH",
"172 369 OFFCURVE",
"211 449 OFFCURVE",
"311 449 CURVE SMOOTH",
"413 449 OFFCURVE",
"445 374 OFFCURVE",
"449 289 CURVE SMOOTH",
"450 269 OFFCURVE",
"450 251 OFFCURVE",
"449 231 CURVE SMOOTH",
"445 146 OFFCURVE",
"413 71 OFFCURVE",
"311 71 CURVE SMOOTH"
);
}
);
width = 596.1875;
}
);
leftKerningGroup = h;
rightKerningGroup = b;
unicode = 00FE;
userData = {
com.typemytype.robofont.guides = (
{
angle = 0;
isGlobal = 0;
magnetic = 5;
x = 0;
y = 710;
}
);
};
},
{
color = 5;
glyphname = q;
layers = (
{
anchors = (
{
name = bottom;
position = "{299, 0}";
},
{
name = top;
position = "{299, 520}";
}
);
hints = (
{
horizontal = 1;
place = "{0, 0}";
type = Tag;
},
{
horizontal = 1;
place = "{0, 0}";
type = Tag;
}
);
layerId = "FF2DC345-5101-49B6-97F3-57A040F7C387";
paths = (
{
closed = 1;
nodes = (
"207 -265 OFFCURVE",
"185 -226 OFFCURVE",
"185 -210 CURVE SMOOTH",
"185 -166 OFFCURVE",
"260 18 OFFCURVE",
"278 67 CURVE",
"233 23 OFFCURVE",
"176 -5 OFFCURVE",
"129 -5 CURVE SMOOTH",
"82 -5 OFFCURVE",
"16 65 OFFCURVE",
"16 123 CURVE SMOOTH",
"16 248 OFFCURVE",
"183 491 OFFCURVE",
"310 491 CURVE SMOOTH",
"377 491 OFFCURVE",
"430 420 OFFCURVE",
"430 389 CURVE SMOOTH",
"430 375 OFFCURVE",
"422 366 OFFCURVE",
"412 366 CURVE SMOOTH",
"389 366 OFFCURVE",
"359 411 OFFCURVE",
"327 411 CURVE SMOOTH",
"235 411 OFFCURVE",
"94 204 OFFCURVE",
"94 116 CURVE SMOOTH",
"94 95 OFFCURVE",
"111 78 OFFCURVE",
"132 78 CURVE SMOOTH",
"205 78 OFFCURVE",
"319 170 OFFCURVE",
"352 299 CURVE SMOOTH",
"354 308 OFFCURVE",
"362 314 OFFCURVE",
"373 314 CURVE SMOOTH",
"397 314 OFFCURVE",
"431 287 OFFCURVE",
"431 269 CURVE SMOOTH",
"431 224 OFFCURVE",
"352 49 OFFCURVE",
"283 -147 CURVE",
"332 -114 OFFCURVE",
"369 -98 OFFCURVE",
"396 -98 CURVE SMOOTH",
"409 -98 OFFCURVE",
"424 -112 OFFCURVE",
"424 -125 CURVE SMOOTH",
"424 -159 OFFCURVE",
"246 -265 OFFCURVE",
"223 -265 CURVE SMOOTH"
);
}
);
width = 474;
},
{
anchors = (
{
name = bottom;
position = "{299, 0}";
},
{
name = top;
position = "{299, 520}";
}
);
associatedMasterId = "FF2DC345-5101-49B6-97F3-57A040F7C387";
hints = (
{
horizontal = 1;
place = "{0, 0}";
type = Tag;
},
{
horizontal = 1;
place = "{0, 0}";
type = Tag;
}
);
layerId = "12AC592B-18DA-428D-AE0B-05C6F3BF4C80";
name = "Mar 31, 22, 14:42";
paths = (
{
closed = 1;
nodes = (
"283 -147 QCURVE",
"314 -59 OFFCURVE",
"397 159 OFFCURVE",
"431 254 OFFCURVE",
"431 283 OFFCURVE",
"388 314 OFFCURVE",
"356 314 OFFCURVE",
"352 299 QCURVE SMOOTH",
"327 202 OFFCURVE",
"187 78 OFFCURVE",
"132 78 QCURVE SMOOTH",
"116 78 OFFCURVE",
"94 100 OFFCURVE",
"94 116 QCURVE SMOOTH",
"94 158 OFFCURVE",
"170 298 OFFCURVE",
"283 411 OFFCURVE",
"327 411 QCURVE SMOOTH",
"347 411 OFFCURVE",
"400 366 OFFCURVE",
"412 366 QCURVE SMOOTH",
"429 366 OFFCURVE",
"429 417 OFFCURVE",
"355 491 OFFCURVE",
"264 491 OFFCURVE",
"153 409 OFFCURVE",
"71 293 OFFCURVE",
"16 166 OFFCURVE",
"16 79 OFFCURVE",
"94 -5 OFFCURVE",
"164 -5 OFFCURVE",
"244 34 OFFCURVE",
"278 67 QCURVE",
"266 35 OFFCURVE",
"239 -39 OFFCURVE",
"223 -82 OFFCURVE",
"206 -130 OFFCURVE",
"196 -157 OFFCURVE",
"188 -183 OFFCURVE",
"185 -198 OFFCURVE",
"185 -222 OFFCURVE",
"211 -265 OFFCURVE",
"235 -265 OFFCURVE",
"275 -238 OFFCURVE",
"345 -188 OFFCURVE",
"424 -141 OFFCURVE",
"424 -125 QCURVE SMOOTH",
"424 -115 OFFCURVE",
"406 -98 OFFCURVE",
"396 -98 QCURVE SMOOTH",
"356 -98 OFFCURVE"
);
}
);
visible = 1;
width = 474;
}
);
leftKerningGroup = d;
rightKerningGroup = u;
unicode = 0071;
userData = {
com.typemytype.robofont.guides = (
{
angle = 0;
isGlobal = 0;
magnetic = 5;
x = 0;
y = 530;
},
{
angle = 0;
isGlobal = 0;
magnetic = 5;
x = 0;
y = "-10";
},
{
angle = 0;
isGlobal = 0;
magnetic = 5;
x = 0;
y = "-190";
}
);
};
},
{
color = 5;
glyphname = r;
layers = (
{
anchors = (
{
name = bottom;
position = "{122, 0}";
},
{
name = top;
position = "{207, 520}";
}
);
hints = (
{
horizontal = 1;
place = "{0, 0}";
type = Tag;
}
);
layerId = "FF2DC345-5101-49B6-97F3-57A040F7C387";
paths = (
{
closed = 1;
nodes = (
"47 -7 OFFCURVE",
"33 28 OFFCURVE",
"33 48 CURVE SMOOTH",
"33 110 OFFCURVE",
"91 193 OFFCURVE",
"91 369 CURVE SMOOTH",
"91 394 OFFCURVE",
"88 429 OFFCURVE",
"88 454 CURVE SMOOTH",
"88 474 OFFCURVE",
"95 491 OFFCURVE",
"110 491 CURVE SMOOTH",
"142 491 OFFCURVE",
"165 445 OFFCURVE",
"165 403 CURVE SMOOTH",
"165 387 OFFCURVE",
"164 371 OFFCURVE",
"162 358 CURVE",
"220 446 OFFCURVE",
"275 490 OFFCURVE",
"327 490 CURVE SMOOTH",
"360 490 OFFCURVE",
"376 482 OFFCURVE",
"376 466 CURVE SMOOTH",
"376 450 OFFCURVE",
"363 436 OFFCURVE",
"330 421 CURVE SMOOTH",
"238 379 OFFCURVE",
"188 303 OFFCURVE",
"108 33 CURVE SMOOTH",
"100 6 OFFCURVE",
"85 -7 OFFCURVE",
"71 -7 CURVE SMOOTH"
);
}
);
width = 331;
},
{
anchors = (
{
name = bottom;
position = "{122, 0}";
},
{
name = top;
position = "{207, 520}";
}
);
associatedMasterId = "FF2DC345-5101-49B6-97F3-57A040F7C387";
hints = (
{
horizontal = 1;
place = "{0, 0}";
type = Tag;
}
);
layerId = "0181D0F5-866B-419A-A4F1-F1CDA8FC0F50";
name = "Mar 31, 22, 15:04";
paths = (
{
closed = 1;
nodes = (
"50 124 QCURVE SMOOTH",
"33 69 OFFCURVE",
"33 32 OFFCURVE",
"54 -7 OFFCURVE",
"71 -7 QCURVE SMOOTH",
"92 -7 OFFCURVE",
"108 33 QCURVE SMOOTH",
"117 55 OFFCURVE",
"131 101 OFFCURVE",
"158 183 OFFCURVE",
"204 303 OFFCURVE",
"277 398 OFFCURVE",
"330 421 QCURVE",
"354 434 OFFCURVE",
"376 454 OFFCURVE",
"376 466 QCURVE SMOOTH",
"376 490 OFFCURVE",
"327 490 QCURVE SMOOTH",
"249 490 OFFCURVE",
"162 358 QCURVE",
"164 375 OFFCURVE",
"164 442 OFFCURVE",
"129 491 OFFCURVE",
"110 491 QCURVE SMOOTH",
"88 491 OFFCURVE",
"88 444 QCURVE SMOOTH",
"91 369 LINE SMOOTH",
"91 250 OFFCURVE"
);
}
);
visible = 1;
width = 331;
}
);
leftKerningGroup = n;
rightKerningGroup = r;
unicode = 0072;
userData = {
com.typemytype.robofont.guides = (
{
angle = 0;
isGlobal = 0;
magnetic = 5;
x = 0;
y = 462;
}
);
};
},
{
color = 5;
glyphname = s;
layers = (
{
anchors = (
{
name = bottom;
position = "{255, 0}";
},
{
name = top;
position = "{283, 520}";
}
);
hints = (
{
horizontal = 1;
place = "{0, 0}";
type = Tag;
},
{
horizontal = 1;
place = "{0, 0}";
type = Tag;
}
);
layerId = "FF2DC345-5101-49B6-97F3-57A040F7C387";
paths = (
{
closed = 1;
nodes = (
"93 -5 OFFCURVE",
"6 55 OFFCURVE",
"6 96 CURVE SMOOTH",
"6 109 OFFCURVE",
"13 124 OFFCURVE",
"27 124 CURVE SMOOTH",
"56 124 OFFCURVE",
"82 72 OFFCURVE",
"170 72 CURVE SMOOTH",
"241 72 OFFCURVE",
"280 89 OFFCURVE",
"280 122 CURVE SMOOTH",
"280 152 OFFCURVE",
"234 188 OFFCURVE",
"188 215 CURVE SMOOTH",
"142 242 OFFCURVE",
"95 283 OFFCURVE",
"95 323 CURVE SMOOTH",
"95 394 OFFCURVE",
"244 491 OFFCURVE",
"317 491 CURVE SMOOTH",
"362 491 OFFCURVE",
"411 425 OFFCURVE",
"411 388 CURVE SMOOTH",
"411 377 OFFCURVE",
"406 371 OFFCURVE",
"395 371 CURVE SMOOTH",
"373 371 OFFCURVE",
"348 406 OFFCURVE",
"314 406 CURVE SMOOTH",
"282 406 OFFCURVE",
"187 360 OFFCURVE",
"187 319 CURVE SMOOTH",
"187 304 OFFCURVE",
"218 277 OFFCURVE",
"279 240 CURVE SMOOTH",
"326 211 OFFCURVE",
"371 162 OFFCURVE",
"371 110 CURVE SMOOTH",
"371 57 OFFCURVE",
"286 -5 OFFCURVE",
"190 -5 CURVE SMOOTH"
);
}
);
width = 426;
},
{
anchors = (
{
name = bottom;
position = "{255, 0}";
},
{
name = top;
position = "{283, 520}";
}
);
associatedMasterId = "FF2DC345-5101-49B6-97F3-57A040F7C387";
hints = (
{
horizontal = 1;
place = "{0, 0}";
type = Tag;
},
{
horizontal = 1;
place = "{0, 0}";
type = Tag;
}
);
layerId = "9766FC10-2320-41C1-8A27-DF54C4EF37B7";
name = "Mar 31, 22, 15:08";
paths = (
{
closed = 1;
nodes = (
"95 376 OFFCURVE",
"95 323 QCURVE SMOOTH",
"95 293 OFFCURVE",
"153 235 OFFCURVE",
"222 195 OFFCURVE",
"280 144 OFFCURVE",
"280 99 OFFCURVE",
"228 72 OFFCURVE",
"111 72 OFFCURVE",
"57 111 QCURVE SMOOTH",
"39 124 OFFCURVE",
"19 124 OFFCURVE",
"6 109 OFFCURVE",
"6 96 QCURVE SMOOTH",
"6 65 OFFCURVE",
"117 -5 OFFCURVE",
"262 -5 OFFCURVE",
"371 70 OFFCURVE",
"371 149 OFFCURVE",
"314 218 OFFCURVE",
"279 240 QCURVE SMOOTH",
"187 296 OFFCURVE",
"187 319 QCURVE SMOOTH",
"187 350 OFFCURVE",
"290 406 OFFCURVE",
"338 406 OFFCURVE",
"384 371 OFFCURVE",
"395 371 QCURVE SMOOTH",
"411 371 OFFCURVE",
"411 388 QCURVE SMOOTH",
"411 416 OFFCURVE",
"351 491 OFFCURVE",
"317 491 QCURVE SMOOTH",
"262 491 OFFCURVE"
);
}
);
visible = 1;
width = 426;
}
);
leftKerningGroup = s;
rightKerningGroup = s;
unicode = 0073;
userData = {
com.typemytype.robofont.guides = (
{
angle = 0;
isGlobal = 0;
magnetic = 5;
x = 0;
y = 265;
},
{
angle = 0;
isGlobal = 0;
magnetic = 5;
x = 0;
y = 139;
},
{
angle = 90;
isGlobal = 0;
magnetic = 5;
x = 250;
y = 0;
}
);
};
},
{
color = 5;
glyphname = germandbls;
layers = (
{
anchors = (
{
name = bottom;
position = "{295, 0}";
},
{
name = top;
position = "{295, 520}";
}
);
hints = (
{
horizontal = 1;
place = "{0, 0}";
type = Tag;
}
);
layerId = "FF2DC345-5101-49B6-97F3-57A040F7C387";
paths = (
{
closed = 1;
nodes = (
"145 0 LINE SMOOTH",
"159 0 OFFCURVE",
"168 10 OFFCURVE",
"168 23 CURVE SMOOTH",
"168 490 LINE SMOOTH",
"168 585 OFFCURVE",
"218 631 OFFCURVE",
"295 631 CURVE SMOOTH",
"371 631 OFFCURVE",
"422 585 OFFCURVE",
"422 521 CURVE SMOOTH",
"422 451 OFFCURVE",
"378 412 OFFCURVE",
"291 411 CURVE SMOOTH",
"246 411 LINE SMOOTH",
"231 411 OFFCURVE",
"223 402 OFFCURVE",
"223 388 CURVE SMOOTH",
"223 359 LINE SMOOTH",
"223 345 OFFCURVE",
"231 336 OFFCURVE",
"246 336 CURVE SMOOTH",
"299 336 LINE SMOOTH",
"396 336 OFFCURVE",
"446 279 OFFCURVE",
"446 207 CURVE SMOOTH",
"446 135 OFFCURVE",
"395 79 OFFCURVE",
"300 79 CURVE",
"247 79 LINE SMOOTH",
"232 79 OFFCURVE",
"223 69 OFFCURVE",
"223 56 CURVE SMOOTH",
"223 23 LINE SMOOTH",
"223 10 OFFCURVE",
"232 0 OFFCURVE",
"247 0 CURVE SMOOTH",
"314 0 LINE SMOOTH",
"477 0 OFFCURVE",
"542 113 OFFCURVE",
"542 205 CURVE SMOOTH",
"542 278 OFFCURVE",
"516 347 OFFCURVE",
"429 377 CURVE",
"469 397 OFFCURVE",
"513 443 OFFCURVE",
"513 523 CURVE SMOOTH",
"513 612 OFFCURVE",
"451 710 OFFCURVE",
"295 710 CURVE SMOOTH",
"138 710 OFFCURVE",
"75 609 OFFCURVE",
"75 493 CURVE SMOOTH",
"75 23 LINE SMOOTH",
"75 10 OFFCURVE",
"85 0 OFFCURVE",
"98 0 CURVE SMOOTH"
);
}
);
width = 589.375;
}
);
leftKerningGroup = h;
unicode = 00DF;
userData = {
com.typemytype.robofont.guides = (
{
angle = 0;
isGlobal = 0;
magnetic = 5;
x = 0;
y = 527;
},
{
angle = 0;
isGlobal = 0;
magnetic = 5;
x = 0;
y = 601;
},
{
angle = 90;
isGlobal = 0;
magnetic = 5;
x = 267;
y = 0;
},
{
angle = 90;
isGlobal = 0;
magnetic = 5;
x = 499;
y = 0;
}
);
};
},
{
color = 5;
glyphname = t;
layers = (
{
anchors = (
{
name = bottom;
position = "{245, 0}";
},
{
name = center;
position = "{192, 260}";
},
{
name = top;
position = "{196, 520}";
},
{
name = topright;
position = "{311, 686}";
}
);
hints = (
{
horizontal = 1;
place = "{0, 0}";
type = Tag;
}
);
layerId = "FF2DC345-5101-49B6-97F3-57A040F7C387";
paths = (
{
closed = 1;
nodes = (
"104 -5 OFFCURVE",
"56 39 OFFCURVE",
"56 76 CURVE SMOOTH",
"56 134 OFFCURVE",
"97 233 OFFCURVE",
"138 381 CURVE",
"107 374 OFFCURVE",
"86 370 OFFCURVE",
"75 370 CURVE SMOOTH",
"54 370 OFFCURVE",
"28 398 OFFCURVE",
"28 418 CURVE SMOOTH",
"28 434 OFFCURVE",
"71 449 OFFCURVE",
"158 464 CURVE",
"170 519 OFFCURVE",
"176 568 OFFCURVE",
"176 611 CURVE SMOOTH",
"176 631 OFFCURVE",
"183 641 OFFCURVE",
"196 641 CURVE SMOOTH",
"211 641 OFFCURVE",
"262 618 OFFCURVE",
"263 568 CURVE SMOOTH",
"263 546 OFFCURVE",
"256 517 OFFCURVE",
"246 476 CURVE",
"284 479 OFFCURVE",
"314 482 OFFCURVE",
"337 482 CURVE SMOOTH",
"377 482 OFFCURVE",
"397 472 OFFCURVE",
"397 455 CURVE SMOOTH",
"397 445 OFFCURVE",
"375 424 OFFCURVE",
"228 399 CURVE",
"214 346 OFFCURVE",
"143 110 OFFCURVE",
"143 95 CURVE SMOOTH",
"143 82 OFFCURVE",
"150 76 OFFCURVE",
"165 76 CURVE SMOOTH",
"220 76 OFFCURVE",
"304 119 OFFCURVE",
"318 119 CURVE SMOOTH",
"330 119 OFFCURVE",
"336 113 OFFCURVE",
"336 100 CURVE SMOOTH",
"336 61 OFFCURVE",
"233 -5 OFFCURVE",
"169 -5 CURVE SMOOTH"
);
}
);
width = 387;
},
{
anchors = (
{
name = bottom;
position = "{245, 0}";
},
{
name = center;
position = "{192, 260}";
},
{
name = top;
position = "{196, 520}";
},
{
name = topright;
position = "{319, 778}";
}
);
associatedMasterId = "FF2DC345-5101-49B6-97F3-57A040F7C387";
hints = (
{
horizontal = 1;
place = "{0, 0}";
type = Tag;
}
);
layerId = "C4E0DB2F-EC9D-4C76-B945-DAF4E411F198";
name = "Mar 31, 22, 15:11";
paths = (
{
closed = 1;
nodes = (
"104 -5 OFFCURVE",
"56 38.667 OFFCURVE",
"56 76 CURVE SMOOTH",
"56 134.415 OFFCURVE",
"97.054 232.965 OFFCURVE",
"138 381 CURVE",
"106.667 373.667 OFFCURVE",
"85.667 370 OFFCURVE",
"75 370 CURVE SMOOTH",
"53.667 370 OFFCURVE",
"28 398 OFFCURVE",
"28 418 CURVE SMOOTH",
"28 434 OFFCURVE",
"71.333 449.333 OFFCURVE",
"158 464 CURVE",
"170 519.333 OFFCURVE",
"176 568.333 OFFCURVE",
"176 611 CURVE SMOOTH",
"176 631 OFFCURVE",
"182.667 641 OFFCURVE",
"196 641 CURVE SMOOTH",
"207.333 641 OFFCURVE",
"221.333 633.833 OFFCURVE",
"238 619.5 CURVE SMOOTH",
"272.817 589.558 OFFCURVE",
"266.319 557.276 OFFCURVE",
"246 476 CURVE",
"284 479.333 OFFCURVE",
"314.333 481 OFFCURVE",
"337 481 CURVE SMOOTH",
"377 481 OFFCURVE",
"397 472.333 OFFCURVE",
"397 455 CURVE SMOOTH",
"397 445 OFFCURVE",
"386.167 436.667 OFFCURVE",
"364.5 430 CURVE SMOOTH",
"342.833 423.333 OFFCURVE",
"297.333 413 OFFCURVE",
"228 399 CURVE",
"214 346.333 OFFCURVE",
"196.333 286.167 OFFCURVE",
"175 218.5 CURVE SMOOTH",
"153.667 150.833 OFFCURVE",
"143 109.667 OFFCURVE",
"143 95 CURVE SMOOTH",
"143 82.333 OFFCURVE",
"150.333 76 OFFCURVE",
"165 76 CURVE SMOOTH",
"190.333 76 OFFCURVE",
"221.167 83.167 OFFCURVE",
"257.5 97.5 CURVE SMOOTH",
"293.833 111.833 OFFCURVE",
"314 119 OFFCURVE",
"318 119 CURVE SMOOTH",
"330 119 OFFCURVE",
"336 112.667 OFFCURVE",
"336 100 CURVE SMOOTH",
"336 61.333 OFFCURVE",
"233 -5 OFFCURVE",
"168.5 -5 CURVE SMOOTH"
);
}
);
visible = 1;
width = 387;
}
);
leftKerningGroup = t;
rightKerningGroup = t;
unicode = 0074;
userData = {
com.typemytype.robofont.guides = (
{
angle = 0;
isGlobal = 0;
magnetic = 5;
x = 0;
y = 175;
},
{
angle = 90;
isGlobal = 0;
magnetic = 5;
x = 342;
y = 0;
},
{
angle = 90;
isGlobal = 0;
magnetic = 5;
x = 35;
y = 0;
}
);
};
},
{
color = 5;
glyphname = u;
layers = (
{
anchors = (
{
name = bottom;
position = "{301, 0}";
},
{
name = ogonek;
position = "{523, 48}";
},
{
name = top;
position = "{298, 520}";
},
{
name = topright;
position = "{582, 520}";
}
);
hints = (
{
horizontal = 1;
place = "{0, 2147483647}";
type = Tag;
},
{
horizontal = 1;
place = "{71, 2147483647}";
type = Tag;
}
);
layerId = "FF2DC345-5101-49B6-97F3-57A040F7C387";
paths = (
{
closed = 1;
nodes = (
"65 -5 OFFCURVE",
"16 58 OFFCURVE",
"16 111 CURVE SMOOTH",
"16 238 OFFCURVE",
"112 491 OFFCURVE",
"164 491 CURVE SMOOTH",
"188 491 OFFCURVE",
"209 465 OFFCURVE",
"209 437 CURVE SMOOTH",
"209 431 OFFCURVE",
"200 410 OFFCURVE",
"182 373 CURVE SMOOTH",
"146 299 OFFCURVE",
"101 187 OFFCURVE",
"101 112 CURVE SMOOTH",
"101 91 OFFCURVE",
"116 75 OFFCURVE",
"135 75 CURVE SMOOTH",
"160 75 OFFCURVE",
"191 97 OFFCURVE",
"226 142 CURVE SMOOTH",
"296 231 OFFCURVE",
"357 362 OFFCURVE",
"385 463 CURVE SMOOTH",
"390 484 OFFCURVE",
"393 491 OFFCURVE",
"411 491 CURVE SMOOTH",
"429 491 OFFCURVE",
"463 447 OFFCURVE",
"463 415 CURVE SMOOTH",
"463 396 OFFCURVE",
"367 92 OFFCURVE",
"351 37 CURVE SMOOTH",
"343 9 OFFCURVE",
"332 -5 OFFCURVE",
"317 -5 CURVE SMOOTH",
"294 -5 OFFCURVE",
"285 17 OFFCURVE",
"285 44 CURVE SMOOTH",
"285 66 OFFCURVE",
"298 114 OFFCURVE",
"309 151 CURVE",
"253 60 OFFCURVE",
"183 -5 OFFCURVE",
"129 -5 CURVE SMOOTH"
);
}
);
width = 481;
},
{
anchors = (
{
name = bottom;
position = "{301, 0}";
},
{
name = ogonek;
position = "{523, 48}";
},
{
name = top;
position = "{298, 520}";
},
{
name = topright;
position = "{582, 520}";
}
);
associatedMasterId = "FF2DC345-5101-49B6-97F3-57A040F7C387";
hints = (
{
horizontal = 1;
place = "{0, 2147483647}";
type = Tag;
},
{
horizontal = 1;
place = "{71, 2147483647}";
type = Tag;
}
);
layerId = "33230506-594A-4A82-922E-048C5A557ADC";
name = "Mar 31, 22, 18:46";
paths = (
{
closed = 1;
nodes = (
"364 387 OFFCURVE",
"278 209 OFFCURVE",
"173 75 OFFCURVE",
"135 75 QCURVE SMOOTH",
"121 75 OFFCURVE",
"101 96 OFFCURVE",
"101 112 QCURVE SMOOTH",
"101 168 OFFCURVE",
"155 317 OFFCURVE",
"209 428 OFFCURVE",
"209 437 QCURVE SMOOTH",
"209 458 OFFCURVE",
"182 491 OFFCURVE",
"164 491 QCURVE SMOOTH",
"127 491 OFFCURVE",
"16 206 OFFCURVE",
"16 111 QCURVE SMOOTH",
"16 71 OFFCURVE",
"88 -5 OFFCURVE",
"169 -5 OFFCURVE",
"267 83 OFFCURVE",
"309 151 QCURVE",
"286 75 OFFCURVE",
"286 17 OFFCURVE",
"304 -5 OFFCURVE",
"317 -5 QCURVE SMOOTH",
"339 -5 OFFCURVE",
"351 37 QCURVE SMOOTH",
"375 120 OFFCURVE",
"463 402 OFFCURVE",
"463 415 QCURVE SMOOTH",
"463 439 OFFCURVE",
"424 491 OFFCURVE",
"397 491 OFFCURVE",
"389 479 OFFCURVE",
"385 463 QCURVE SMOOTH"
);
}
);
visible = 1;
width = 481;
}
);
leftKerningGroup = u;
rightKerningGroup = u;
unicode = 0075;
userData = {
com.typemytype.robofont.guides = (
{
angle = 0;
isGlobal = 0;
magnetic = 5;
x = 0;
y = "-10";
},
{
angle = 90;
isGlobal = 0;
magnetic = 5;
x = 432;
y = 0;
},
{
angle = 90;
isGlobal = 0;
magnetic = 5;
x = 126;
y = 0;
},
{
angle = 90;
isGlobal = 0;
magnetic = 5;
x = 65;
y = 0;
}
);
};
},
{
color = 5;
glyphname = v;
layers = (
{
anchors = (
{
name = bottom;
position = "{277, 0}";
},
{
name = top;
position = "{277, 520}";
}
);
hints = (
{
horizontal = 1;
place = "{0, 2147483647}";
type = Tag;
}
);
layerId = "FF2DC345-5101-49B6-97F3-57A040F7C387";
paths = (
{
closed = 1;
nodes = (
"179 -7 OFFCURVE",
"148 24 OFFCURVE",
"136 53 CURVE SMOOTH",
"100 137 OFFCURVE",
"47 374 OFFCURVE",
"47 461 CURVE SMOOTH",
"47 481 OFFCURVE",
"53 491 OFFCURVE",
"65 491 CURVE SMOOTH",
"94 491 OFFCURVE",
"135 466 OFFCURVE",
"142 426 CURVE SMOOTH",
"155 347 OFFCURVE",
"153 215 OFFCURVE",
"198 103 CURVE",
"245 203 OFFCURVE",
"291 318 OFFCURVE",
"333 426 CURVE SMOOTH",
"346 460 OFFCURVE",
"362 491 OFFCURVE",
"376 491 CURVE SMOOTH",
"399 491 OFFCURVE",
"425 471 OFFCURVE",
"425 451 CURVE SMOOTH",
"425 415 OFFCURVE",
"290 123 OFFCURVE",
"250 49 CURVE SMOOTH",
"229 12 OFFCURVE",
"211 -7 OFFCURVE",
"196 -7 CURVE SMOOTH"
);
}
);
width = 422;
},
{
anchors = (
{
name = bottom;
position = "{277, 0}";
},
{
name = top;
position = "{277, 520}";
}
);
associatedMasterId = "FF2DC345-5101-49B6-97F3-57A040F7C387";
hints = (
{
horizontal = 1;
place = "{0, 2147483647}";
type = Tag;
}
);
layerId = "FBFD17C4-D664-4066-AAC4-EF15EAA21ED3";
name = "Mar 31, 22, 18:57";
paths = (
{
closed = 1;
nodes = (
"309 374 OFFCURVE",
"225 161 OFFCURVE",
"198 103 QCURVE",
"164 188 OFFCURVE",
"150 346 QCURVE SMOOTH",
"145 410 OFFCURVE",
"142 426 QCURVE",
"133 454 OFFCURVE",
"87 491 OFFCURVE",
"65 491 QCURVE SMOOTH",
"47 491 OFFCURVE",
"47 461 QCURVE SMOOTH",
"47 396 OFFCURVE",
"109 116 OFFCURVE",
"136 53 QCURVE SMOOTH",
"145 31 OFFCURVE",
"183 -7 OFFCURVE",
"196 -7 QCURVE SMOOTH",
"219 -7 OFFCURVE",
"280 104 OFFCURVE",
"425 424 OFFCURVE",
"425 451 QCURVE SMOOTH",
"425 466 OFFCURVE",
"393 491 OFFCURVE",
"376 491 QCURVE SMOOTH",
"362 491 OFFCURVE"
);
}
);
visible = 1;
width = 422;
}
);
unicode = 0076;
userData = {
com.typemytype.robofont.guides = (
{
angle = 90;
isGlobal = 0;
magnetic = 5;
x = 267;
y = 0;
}
);
};
},
{
color = 5;
glyphname = w;
layers = (
{
anchors = (
{
name = bottom;
position = "{331, 0}";
},
{
name = top;
position = "{391, 520}";
}
);
hints = (
{
horizontal = 1;
place = "{499, 2147483647}";
type = Tag;
}
);
layerId = "FF2DC345-5101-49B6-97F3-57A040F7C387";
paths = (
{
closed = 1;
nodes = (
"390 515 OFFCURVE",
"357 515 QCURVE SMOOTH",
"335 515 OFFCURVE",
"282 393 OFFCURVE",
"199 179 OFFCURVE",
"158 108 QCURVE",
"142 195 OFFCURVE",
"137 418 OFFCURVE",
"131 467 OFFCURVE",
"94 517 OFFCURVE",
"72 517 QCURVE SMOOTH",
"47 517 OFFCURVE",
"47 476 QCURVE SMOOTH",
"47 412 OFFCURVE",
"78 113 OFFCURVE",
"100 60 QCURVE SMOOTH",
"109 39 OFFCURVE",
"140 13 OFFCURVE",
"154 13 QCURVE SMOOTH",
"185 13 OFFCURVE",
"291 205 OFFCURVE",
"360 393 QCURVE",
"355 312 OFFCURVE",
"359 91 OFFCURVE",
"394 13 OFFCURVE",
"464 13 OFFCURVE",
"590 192 OFFCURVE",
"629 300 QCURVE SMOOTH",
"675 417 OFFCURVE",
"675 468 QCURVE SMOOTH",
"675 488 OFFCURVE",
"645 519 OFFCURVE",
"626 519 QCURVE SMOOTH",
"613 519 OFFCURVE",
"593 465 OFFCURVE",
"570 374 OFFCURVE",
"539 270 OFFCURVE",
"476 149 OFFCURVE",
"433 104 QCURVE",
"423 139 OFFCURVE",
"426 217 QCURVE SMOOTH",
"433 405 LINE SMOOTH",
"435 454 OFFCURVE"
);
}
);
width = 673;
}
);
leftKerningGroup = w;
rightKerningGroup = w;
unicode = 0077;
userData = {
com.typemytype.robofont.guides = (
{
angle = 90;
isGlobal = 0;
magnetic = 5;
x = 45;
y = 0;
},
{
angle = 90;
isGlobal = 0;
magnetic = 5;
x = 737;
y = 0;
}
);
};
},
{
color = 5;
glyphname = x;
layers = (
{
anchors = (
{
name = bottom;
position = "{270, 0}";
},
{
name = top;
position = "{270, 520}";
}
);
hints = (
{
horizontal = 1;
place = "{15, 2147483647}";
type = Tag;
}
);
layerId = "FF2DC345-5101-49B6-97F3-57A040F7C387";
paths = (
{
closed = 1;
nodes = (
"59 -5 OFFCURVE",
"112 49 OFFCURVE",
"199 156 CURVE",
"265 49 OFFCURVE",
"313 -5 OFFCURVE",
"343 -5 CURVE SMOOTH",
"355 -5 OFFCURVE",
"367 2 OFFCURVE",
"367 16 CURVE SMOOTH",
"367 27 OFFCURVE",
"362 37 OFFCURVE",
"351 54 CURVE SMOOTH",
"338 77 OFFCURVE",
"301 128 OFFCURVE",
"250 217 CURVE",
"328 314 OFFCURVE",
"372 374 OFFCURVE",
"413 408 CURVE SMOOTH",
"433 424 OFFCURVE",
"442 432 OFFCURVE",
"442 448 CURVE SMOOTH",
"442 463 OFFCURVE",
"411 491 OFFCURVE",
"386 491 CURVE SMOOTH",
"373 491 OFFCURVE",
"354 476 OFFCURVE",
"328 447 CURVE SMOOTH",
"301 418 OFFCURVE",
"261 367 OFFCURVE",
"207 294 CURVE",
"168 370 OFFCURVE",
"148 422 OFFCURVE",
"148 450 CURVE SMOOTH",
"148 474 OFFCURVE",
"97 491 OFFCURVE",
"75 491 CURVE SMOOTH",
"55 491 OFFCURVE",
"47 488 OFFCURVE",
"47 475 CURVE SMOOTH",
"47 459 OFFCURVE",
"51 435 OFFCURVE",
"79 379 CURVE SMOOTH",
"102 332 OFFCURVE",
"126 282 OFFCURVE",
"157 227 CURVE",
"125 186 OFFCURVE",
"77 134 OFFCURVE",
"12 69 CURVE SMOOTH",
"-3 54 OFFCURVE",
"-10 46 OFFCURVE",
"-10 38 CURVE SMOOTH",
"-10 23 OFFCURVE",
"19 -5 OFFCURVE",
"40 -5 CURVE SMOOTH"
);
}
);
width = 427;
},
{
anchors = (
{
name = bottom;
position = "{270, 0}";
},
{
name = top;
position = "{270, 520}";
}
);
associatedMasterId = "FF2DC345-5101-49B6-97F3-57A040F7C387";
hints = (
{
horizontal = 1;
place = "{15, 2147483647}";
type = Tag;
}
);
layerId = "9F52ED3C-E375-4AC8-B126-545CA6DF6F1B";
name = "Mar 31, 22, 19:07";
paths = (
{
closed = 1;
nodes = (
"148 408 OFFCURVE",
"148 450 QCURVE SMOOTH",
"148 467 OFFCURVE",
"90 491 OFFCURVE",
"50 491 OFFCURVE",
"48 482 QCURVE SMOOTH",
"47 478 OFFCURVE",
"47 449 OFFCURVE",
"111 309 OFFCURVE",
"157 227 QCURVE",
"109 166 OFFCURVE",
"12 69 QCURVE SMOOTH",
"-10 47 OFFCURVE",
"-10 42 QCURVE SMOOTH",
"-10 28 OFFCURVE",
"24 -5 OFFCURVE",
"40 -5 QCURVE SMOOTH",
"68 -5 OFFCURVE",
"199 156 QCURVE",
"298 -5 OFFCURVE",
"343 -5 QCURVE SMOOTH",
"353 -5 OFFCURVE",
"367 8 OFFCURVE",
"367 28 OFFCURVE",
"351 54 QCURVE SMOOTH",
"343 68 OFFCURVE",
"325 95 OFFCURVE",
"298 138 OFFCURVE",
"281 166 OFFCURVE",
"256 208 OFFCURVE",
"250 217 QCURVE",
"269 240 OFFCURVE",
"328 315 OFFCURVE",
"370 366 OFFCURVE",
"397 395 OFFCURVE",
"428 421 OFFCURVE",
"442 436 OFFCURVE",
"442 459 OFFCURVE",
"405 491 OFFCURVE",
"367 491 OFFCURVE",
"288 403 OFFCURVE",
"207 294 QCURVE"
);
}
);
visible = 1;
width = 427;
}
);
unicode = 0078;
userData = {
com.typemytype.robofont.guides = (
{
angle = 90;
isGlobal = 0;
magnetic = 5;
x = 255;
y = 0;
}
);
};
},
{
color = 5;
glyphname = y;
layers = (
{
anchors = (
{
name = bottom;
position = "{276, 0}";
},
{
name = top;
position = "{273, 520}";
}
);
hints = (
{
horizontal = 1;
place = "{-173, 2147483647}";
type = Tag;
}
);
layerId = "FF2DC345-5101-49B6-97F3-57A040F7C387";
paths = (
{
closed = 1;
nodes = (
"66 -265 OFFCURVE",
"-19 -208 OFFCURVE",
"-19 -159 CURVE SMOOTH",
"-19 -142 OFFCURVE",
"2 -111 OFFCURVE",
"15 -111 CURVE SMOOTH",
"23 -111 OFFCURVE",
"31 -119 OFFCURVE",
"44 -133 CURVE SMOOTH",
"83 -177 OFFCURVE",
"116 -199 OFFCURVE",
"143 -199 CURVE SMOOTH",
"184 -199 OFFCURVE",
"212 -133 OFFCURVE",
"284 92 CURVE",
"237 27 OFFCURVE",
"190 -5 OFFCURVE",
"144 -5 CURVE SMOOTH",
"88 -5 OFFCURVE",
"31 55 OFFCURVE",
"31 126 CURVE SMOOTH",
"31 224 OFFCURVE",
"120 491 OFFCURVE",
"175 491 CURVE SMOOTH",
"201 491 OFFCURVE",
"224 465 OFFCURVE",
"224 441 CURVE SMOOTH",
"224 407 OFFCURVE",
"117 234 OFFCURVE",
"117 112 CURVE SMOOTH",
"117 91 OFFCURVE",
"132 75 OFFCURVE",
"151 75 CURVE SMOOTH",
"199 75 OFFCURVE",
"273 174 OFFCURVE",
"329 291 CURVE SMOOTH",
"352 340 OFFCURVE",
"377 403 OFFCURVE",
"402 480 CURVE SMOOTH",
"405 487 OFFCURVE",
"411 491 OFFCURVE",
"422 491 CURVE SMOOTH",
"443 491 OFFCURVE",
"475 454 OFFCURVE",
"475 415 CURVE SMOOTH",
"475 373 OFFCURVE",
"350 39 OFFCURVE",
"292 -122 CURVE SMOOTH",
"258 -217 OFFCURVE",
"209 -265 OFFCURVE",
"142 -265 CURVE SMOOTH"
);
}
);
width = 469;
},
{
anchors = (
{
name = bottom;
position = "{276, 0}";
},
{
name = top;
position = "{273, 520}";
}
);
associatedMasterId = "FF2DC345-5101-49B6-97F3-57A040F7C387";
hints = (
{
horizontal = 1;
place = "{-173, 2147483647}";
type = Tag;
}
);
layerId = "B2F90BBB-09C7-4AE0-9250-1CFBAA53DE27";
name = "Mar 31, 22, 19:20";
paths = (
{
closed = 1;
nodes = (
"402 480 QCURVE SMOOTH",
"364 365 OFFCURVE",
"329 291 QCURVE SMOOTH",
"287 203 OFFCURVE",
"187 75 OFFCURVE",
"151 75 QCURVE SMOOTH",
"137 75 OFFCURVE",
"117 96 OFFCURVE",
"117 112 QCURVE SMOOTH",
"117 204 OFFCURVE",
"198 370 QCURVE SMOOTH",
"224 424 OFFCURVE",
"224 458 OFFCURVE",
"193 491 OFFCURVE",
"175 491 QCURVE SMOOTH",
"153 491 OFFCURVE",
"83 359 OFFCURVE",
"31 179 OFFCURVE",
"31 73 OFFCURVE",
"102 -5 OFFCURVE",
"144 -5 QCURVE SMOOTH",
"213 -5 OFFCURVE",
"284 92 QCURVE",
"281 83 OFFCURVE",
"274 61 OFFCURVE",
"269 47 OFFCURVE",
"224 -90 OFFCURVE",
"174 -199 OFFCURVE",
"143 -199 QCURVE SMOOTH",
"102 -199 OFFCURVE",
"44 -133 QCURVE SMOOTH",
"24 -111 OFFCURVE",
"6 -111 OFFCURVE",
"-19 -145 OFFCURVE",
"-19 -159 QCURVE SMOOTH",
"-19 -196 OFFCURVE",
"85 -265 OFFCURVE",
"142 -265 QCURVE SMOOTH",
"242 -265 OFFCURVE",
"292 -122 QCURVE SMOOTH",
"315 -57 OFFCURVE",
"364 80 OFFCURVE",
"393 163 OFFCURVE",
"475 395 OFFCURVE",
"475 415 QCURVE SMOOTH",
"475 444 OFFCURVE",
"438 491 OFFCURVE",
"406 491 OFFCURVE"
);
}
);
visible = 1;
width = 469;
}
);
leftKerningGroup = y;
rightKerningGroup = y;
unicode = 0079;
},
{
color = 5;
glyphname = z;
layers = (
{
anchors = (
{
name = bottom;
position = "{254, 0}";
},
{
name = center;
position = "{254, 260}";
},
{
name = top;
position = "{255, 520}";
}
);
hints = (
{
horizontal = 1;
place = "{79, 2147483647}";
type = Tag;
}
);
layerId = "FF2DC345-5101-49B6-97F3-57A040F7C387";
paths = (
{
closed = 1;
nodes = (
"61 -5 OFFCURVE",
"3 51 OFFCURVE",
"3 87 CURVE SMOOTH",
"3 123 OFFCURVE",
"84 191 OFFCURVE",
"164 246 CURVE SMOOTH",
"271 321 OFFCURVE",
"325 367 OFFCURVE",
"325 386 CURVE SMOOTH",
"325 399 OFFCURVE",
"291 405 OFFCURVE",
"223 405 CURVE SMOOTH",
"183 405 OFFCURVE",
"139 394 OFFCURVE",
"108 394 CURVE SMOOTH",
"86 394 OFFCURVE",
"54 431 OFFCURVE",
"54 451 CURVE SMOOTH",
"54 480 OFFCURVE",
"157 492 OFFCURVE",
"190 492 CURVE SMOOTH",
"318 492 OFFCURVE",
"403 464 OFFCURVE",
"403 389 CURVE SMOOTH",
"403 338 OFFCURVE",
"328 266 OFFCURVE",
"255 215 CURVE SMOOTH",
"182 165 OFFCURVE",
"107 116 OFFCURVE",
"107 95 CURVE SMOOTH",
"107 84 OFFCURVE",
"116 78 OFFCURVE",
"133 78 CURVE SMOOTH",
"254 78 OFFCURVE",
"331 94 OFFCURVE",
"372 94 CURVE SMOOTH",
"398 94 OFFCURVE",
"411 86 OFFCURVE",
"411 71 CURVE SMOOTH",
"411 28 OFFCURVE",
"242 -5 OFFCURVE",
"118 -5 CURVE SMOOTH"
);
}
);
width = 440;
},
{
anchors = (
{
name = bottom;
position = "{254, 0}";
},
{
name = center;
position = "{254, 260}";
},
{
name = top;
position = "{255, 520}";
}
);
associatedMasterId = "FF2DC345-5101-49B6-97F3-57A040F7C387";
hints = (
{
horizontal = 1;
place = "{79, 2147483647}";
type = Tag;
}
);
layerId = "4F7B93F6-6D8D-4318-9272-B78C711311A2";
name = "Mar 31, 22, 19:55";
paths = (
{
closed = 1;
nodes = (
"54 436 OFFCURVE",
"91 394 OFFCURVE",
"124 394 OFFCURVE",
"198 405 OFFCURVE",
"223 405 QCURVE SMOOTH",
"325 405 OFFCURVE",
"325 386 QCURVE SMOOTH",
"325 358 OFFCURVE",
"164 246 QCURVE SMOOTH",
"104 205 OFFCURVE",
"3 114 OFFCURVE",
"3 60 OFFCURVE",
"75 -5 OFFCURVE",
"118 -5 QCURVE SMOOTH",
"211 -5 OFFCURVE",
"411 39 OFFCURVE",
"411 71 QCURVE SMOOTH",
"411 94 OFFCURVE",
"372 94 QCURVE SMOOTH",
"356 94 OFFCURVE",
"190 78 OFFCURVE",
"133 78 QCURVE SMOOTH",
"107 78 OFFCURVE",
"107 95 QCURVE SMOOTH",
"107 107 OFFCURVE",
"200 177 OFFCURVE",
"310 253 OFFCURVE",
"403 351 OFFCURVE",
"403 389 QCURVE SMOOTH",
"403 407 OFFCURVE",
"366 462 OFFCURVE",
"344 471 QCURVE SMOOTH",
"295 491 OFFCURVE",
"142 491 OFFCURVE",
"54 470 OFFCURVE",
"54 451 QCURVE SMOOTH"
);
}
);
visible = 1;
width = 440;
}
);
leftKerningGroup = z;
rightKerningGroup = z;
unicode = 007A;
userData = {
com.typemytype.robofont.guides = (
{
angle = 0;
isGlobal = 0;
magnetic = 5;
x = 0;
y = 36;
},
{
angle = 90;
isGlobal = 0;
magnetic = 5;
x = 480;
y = 0;
},
{
angle = 90;
isGlobal = 0;
magnetic = 5;
x = 70;
y = 0;
}
);
};
},
{
color = 5;
glyphname = ordfeminine;
layers = (
{
hints = (
{
horizontal = 1;
origin = "{0, 24}";
type = Tag;
}
);
layerId = "FF2DC345-5101-49B6-97F3-57A040F7C387";
paths = (
{
closed = 1;
nodes = (
"181 429 OFFCURVE",
"215 443 OFFCURVE",
"227 463 CURVE",
"227 455 LINE SMOOTH",
"227 443 OFFCURVE",
"235 434 OFFCURVE",
"247 434 CURVE",
"278 434 LINE SMOOTH",
"290 434 OFFCURVE",
"298 443 OFFCURVE",
"298 455 CURVE SMOOTH",
"298 597 LINE SMOOTH",
"298 662 OFFCURVE",
"256 705 OFFCURVE",
"185 705 CURVE SMOOTH",
"114 705 OFFCURVE",
"71 662 OFFCURVE",
"69 641 CURVE SMOOTH",
"68 629 OFFCURVE",
"77 625 OFFCURVE",
"88 625 CURVE SMOOTH",
"119 625 LINE SMOOTH",
"140 625 OFFCURVE",
"143 644 OFFCURVE",
"182 644 CURVE SMOOTH",
"224 644 OFFCURVE",
"226 619 OFFCURVE",
"226 610 CURVE",
"164 601 LINE",
"95 591 OFFCURVE",
"51 558 OFFCURVE",
"51 506 CURVE SMOOTH",
"51 463 OFFCURVE",
"87 429 OFFCURVE",
"146 429 CURVE SMOOTH"
);
},
{
closed = 1;
nodes = (
"139 487 OFFCURVE",
"123 495 OFFCURVE",
"123 509 CURVE SMOOTH",
"123 527 OFFCURVE",
"133 542 OFFCURVE",
"182 549 CURVE SMOOTH",
"226 556 LINE",
"226 518 OFFCURVE",
"207 487 OFFCURVE",
"159 487 CURVE SMOOTH"
);
}
);
width = 364;
}
);
unicode = 00AA;
},
{
color = 5;
glyphname = ordmasculine;
layers = (
{
hints = (
{
horizontal = 1;
origin = "{0, 11}";
type = Tag;
}
);
layerId = "FF2DC345-5101-49B6-97F3-57A040F7C387";
paths = (
{
closed = 1;
nodes = (
"255 429 OFFCURVE",
"301 466 OFFCURVE",
"305 540 CURVE SMOOTH",
"306 550 OFFCURVE",
"306 584 OFFCURVE",
"305 594 CURVE SMOOTH",
"301 668 OFFCURVE",
"249 705 OFFCURVE",
"180 705 CURVE SMOOTH",
"111 705 OFFCURVE",
"58 668 OFFCURVE",
"54 594 CURVE SMOOTH",
"53 584 OFFCURVE",
"53 550 OFFCURVE",
"54 540 CURVE SMOOTH",
"58 466 OFFCURVE",
"105 429 OFFCURVE",
"180 429 CURVE SMOOTH"
);
},
{
closed = 1;
nodes = (
"147 492 OFFCURVE",
"130 509 OFFCURVE",
"128 545 CURVE SMOOTH",
"127 555 OFFCURVE",
"127 579 OFFCURVE",
"128 589 CURVE SMOOTH",
"129 622 OFFCURVE",
"147 643 OFFCURVE",
"180 643 CURVE SMOOTH",
"213 643 OFFCURVE",
"230 622 OFFCURVE",
"232 589 CURVE SMOOTH",
"233 579 OFFCURVE",
"233 555 OFFCURVE",
"232 545 CURVE SMOOTH",
"230 509 OFFCURVE",
"213 492 OFFCURVE",
"180 492 CURVE SMOOTH"
);
}
);
width = 358.9375;
}
);
unicode = 00BA;
userData = {
com.typemytype.robofont.guides = (
{
angle = 0;
isGlobal = 0;
magnetic = 5;
x = 0;
y = 589;
},
{
angle = 0;
isGlobal = 0;
magnetic = 5;
x = 0;
y = 545;
},
{
angle = 0;
isGlobal = 0;
magnetic = 5;
x = 0;
y = 429;
},
{
angle = 0;
isGlobal = 0;
magnetic = 5;
x = 0;
y = 705;
},
{
angle = 90;
isGlobal = 0;
magnetic = 5;
x = 134;
y = 0;
}
);
};
},
{
color = 9;
export = 0;
glyphname = uni05D2.alt_quoteright;
layers = (
{
layerId = "FF2DC345-5101-49B6-97F3-57A040F7C387";
paths = (
{
closed = 1;
nodes = (
"183 634 OFFCURVE",
"191 640 OFFCURVE",
"204 640 CURVE SMOOTH",
"212 640 OFFCURVE",
"222 638 OFFCURVE",
"234 632 CURVE SMOOTH",
"249 625 OFFCURVE",
"254 615 OFFCURVE",
"254 607 CURVE SMOOTH",
"254 602 OFFCURVE",
"253 598 OFFCURVE",
"250 594 CURVE SMOOTH",
"220 550 OFFCURVE",
"152 476 OFFCURVE",
"117 469 CURVE SMOOTH",
"113 468 OFFCURVE",
"110 467 OFFCURVE",
"106 467 CURVE SMOOTH",
"92 467 OFFCURVE",
"82 475 OFFCURVE",
"82 486 CURVE SMOOTH",
"82 487 OFFCURVE",
"82 489 OFFCURVE",
"82 491 CURVE SMOOTH",
"88 508 OFFCURVE",
"123 543 OFFCURVE",
"179 628 CURVE SMOOTH"
);
},
{
closed = 1;
nodes = (
"-1 9 OFFCURVE",
"10 9 OFFCURVE",
"21 9 CURVE SMOOTH",
"69 9 OFFCURVE",
"112 2 OFFCURVE",
"148 2 CURVE SMOOTH",
"232 2 OFFCURVE",
"270 111 OFFCURVE",
"270 198 CURVE SMOOTH",
"270 234 OFFCURVE",
"309 244 OFFCURVE",
"349 244 CURVE SMOOTH",
"361 244 OFFCURVE",
"372 237 OFFCURVE",
"372 223 CURVE SMOOTH",
"372 102 OFFCURVE",
"263 -49 OFFCURVE",
"147 -49 CURVE SMOOTH",
"116 -49 OFFCURVE",
"72 -44 OFFCURVE",
"36 -44 CURVE SMOOTH",
"25 -44 OFFCURVE",
"16 -45 OFFCURVE",
"7 -46 CURVE SMOOTH",
"-59 -53 OFFCURVE",
"-87 -77 OFFCURVE",
"-140 -83 CURVE SMOOTH",
"-158 -86 OFFCURVE",
"-174 -87 OFFCURVE",
"-189 -87 CURVE SMOOTH",
"-259 -87 OFFCURVE",
"-303 -65 OFFCURVE",
"-306 -46 CURVE SMOOTH",
"-306 -45 OFFCURVE",
"-306 -44 OFFCURVE",
"-306 -43 CURVE SMOOTH",
"-306 -39 OFFCURVE",
"-304 -35 OFFCURVE",
"-297 -35 CURVE SMOOTH",
"-297 -35 OFFCURVE",
"-296 -35 OFFCURVE",
"-295 -35 CURVE SMOOTH",
"-273 -38 OFFCURVE",
"-255 -39 OFFCURVE",
"-239 -39 CURVE SMOOTH",
"-143 -39 OFFCURVE",
"-135 -1 OFFCURVE",
"-12 8 CURVE SMOOTH"
);
}
);
width = 405;
}
);
},
{
color = 9;
export = 0;
glyphname = uni05D3.alt_quoteright;
layers = (
{
layerId = "FF2DC345-5101-49B6-97F3-57A040F7C387";
paths = (
{
closed = 1;
nodes = (
"211 634 OFFCURVE",
"219 640 OFFCURVE",
"232 640 CURVE SMOOTH",
"240 640 OFFCURVE",
"250 638 OFFCURVE",
"262 632 CURVE SMOOTH",
"277 625 OFFCURVE",
"282 615 OFFCURVE",
"282 607 CURVE SMOOTH",
"282 602 OFFCURVE",
"281 598 OFFCURVE",
"278 594 CURVE SMOOTH",
"248 550 OFFCURVE",
"179 476 OFFCURVE",
"145 469 CURVE SMOOTH",
"141 468 OFFCURVE",
"138 467 OFFCURVE",
"134 467 CURVE SMOOTH",
"119 467 OFFCURVE",
"109 475 OFFCURVE",
"109 486 CURVE SMOOTH",
"109 487 OFFCURVE",
"110 489 OFFCURVE",
"110 491 CURVE SMOOTH",
"116 508 OFFCURVE",
"151 543 OFFCURVE",
"207 628 CURVE SMOOTH"
);
},
{
closed = 1;
nodes = (
"112 291 OFFCURVE",
"159 304 OFFCURVE",
"202 304 CURVE SMOOTH",
"254 304 OFFCURVE",
"301 284 OFFCURVE",
"301 199 CURVE SMOOTH",
"301 193 OFFCURVE",
"301 187 OFFCURVE",
"301 180 CURVE SMOOTH",
"294 87 OFFCURVE",
"235 0 OFFCURVE",
"136 0 CURVE SMOOTH",
"116 0 OFFCURVE",
"108 8 OFFCURVE",
"108 18 CURVE SMOOTH",
"108 28 OFFCURVE",
"118 40 OFFCURVE",
"129 42 CURVE SMOOTH",
"174 50 OFFCURVE",
"203 98 OFFCURVE",
"210 170 CURVE SMOOTH",
"211 177 OFFCURVE",
"211 184 OFFCURVE",
"211 190 CURVE SMOOTH",
"211 238 OFFCURVE",
"187 252 OFFCURVE",
"153 252 CURVE SMOOTH",
"117 252 OFFCURVE",
"70 237 OFFCURVE",
"29 233 CURVE SMOOTH",
"21 232 OFFCURVE",
"14 231 OFFCURVE",
"7 231 CURVE SMOOTH",
"-41 231 OFFCURVE",
"-59 251 OFFCURVE",
"-59 272 CURVE SMOOTH",
"-59 289 OFFCURVE",
"-46 307 OFFCURVE",
"-28 312 CURVE SMOOTH",
"-21 313 OFFCURVE",
"-15 314 OFFCURVE",
"-11 314 CURVE SMOOTH",
"15 314 OFFCURVE",
"14 290 OFFCURVE",
"80 290 CURVE SMOOTH",
"81 290 OFFCURVE",
"82 290 OFFCURVE",
"83 290 CURVE SMOOTH"
);
}
);
width = 333;
}
);
},
{
color = 9;
export = 0;
glyphname = uni05D2.alt_quotesingle;
layers = (
{
layerId = "FF2DC345-5101-49B6-97F3-57A040F7C387";
paths = (
{
closed = 1;
nodes = (
"183 634 OFFCURVE",
"191 640 OFFCURVE",
"204 640 CURVE SMOOTH",
"212 640 OFFCURVE",
"222 638 OFFCURVE",
"234 632 CURVE SMOOTH",
"249 625 OFFCURVE",
"254 615 OFFCURVE",
"254 607 CURVE SMOOTH",
"254 602 OFFCURVE",
"253 598 OFFCURVE",
"250 594 CURVE SMOOTH",
"220 550 OFFCURVE",
"152 476 OFFCURVE",
"117 469 CURVE SMOOTH",
"113 468 OFFCURVE",
"110 467 OFFCURVE",
"106 467 CURVE SMOOTH",
"92 467 OFFCURVE",
"82 475 OFFCURVE",
"82 486 CURVE SMOOTH",
"82 487 OFFCURVE",
"82 489 OFFCURVE",
"82 491 CURVE SMOOTH",
"88 508 OFFCURVE",
"123 543 OFFCURVE",
"179 628 CURVE SMOOTH"
);
},
{
closed = 1;
nodes = (
"-1 9 OFFCURVE",
"10 9 OFFCURVE",
"21 9 CURVE SMOOTH",
"69 9 OFFCURVE",
"112 2 OFFCURVE",
"148 2 CURVE SMOOTH",
"232 2 OFFCURVE",
"270 111 OFFCURVE",
"270 198 CURVE SMOOTH",
"270 234 OFFCURVE",
"309 244 OFFCURVE",
"349 244 CURVE SMOOTH",
"361 244 OFFCURVE",
"372 237 OFFCURVE",
"372 223 CURVE SMOOTH",
"372 102 OFFCURVE",
"263 -49 OFFCURVE",
"147 -49 CURVE SMOOTH",
"116 -49 OFFCURVE",
"72 -44 OFFCURVE",
"36 -44 CURVE SMOOTH",
"25 -44 OFFCURVE",
"16 -45 OFFCURVE",
"7 -46 CURVE SMOOTH",
"-59 -53 OFFCURVE",
"-87 -77 OFFCURVE",
"-140 -83 CURVE SMOOTH",
"-158 -86 OFFCURVE",
"-174 -87 OFFCURVE",
"-189 -87 CURVE SMOOTH",
"-259 -87 OFFCURVE",
"-303 -65 OFFCURVE",
"-306 -46 CURVE SMOOTH",
"-306 -45 OFFCURVE",
"-306 -44 OFFCURVE",
"-306 -43 CURVE SMOOTH",
"-306 -39 OFFCURVE",
"-304 -35 OFFCURVE",
"-297 -35 CURVE SMOOTH",
"-297 -35 OFFCURVE",
"-296 -35 OFFCURVE",
"-295 -35 CURVE SMOOTH",
"-273 -38 OFFCURVE",
"-255 -39 OFFCURVE",
"-239 -39 CURVE SMOOTH",
"-143 -39 OFFCURVE",
"-135 -1 OFFCURVE",
"-12 8 CURVE SMOOTH"
);
}
);
width = 405;
}
);
},
{
color = 9;
export = 0;
glyphname = uni05D3.alt_quotesingle;
layers = (
{
layerId = "FF2DC345-5101-49B6-97F3-57A040F7C387";
paths = (
{
closed = 1;
nodes = (
"211 634 OFFCURVE",
"219 640 OFFCURVE",
"232 640 CURVE SMOOTH",
"240 640 OFFCURVE",
"250 638 OFFCURVE",
"262 632 CURVE SMOOTH",
"277 625 OFFCURVE",
"282 615 OFFCURVE",
"282 607 CURVE SMOOTH",
"282 602 OFFCURVE",
"281 598 OFFCURVE",
"278 594 CURVE SMOOTH",
"248 550 OFFCURVE",
"179 476 OFFCURVE",
"145 469 CURVE SMOOTH",
"141 468 OFFCURVE",
"138 467 OFFCURVE",
"134 467 CURVE SMOOTH",
"119 467 OFFCURVE",
"109 475 OFFCURVE",
"109 486 CURVE SMOOTH",
"109 487 OFFCURVE",
"110 489 OFFCURVE",
"110 491 CURVE SMOOTH",
"116 508 OFFCURVE",
"151 543 OFFCURVE",
"207 628 CURVE SMOOTH"
);
},
{
closed = 1;
nodes = (
"112 291 OFFCURVE",
"159 304 OFFCURVE",
"202 304 CURVE SMOOTH",
"254 304 OFFCURVE",
"301 284 OFFCURVE",
"301 199 CURVE SMOOTH",
"301 193 OFFCURVE",
"301 187 OFFCURVE",
"301 180 CURVE SMOOTH",
"294 87 OFFCURVE",
"235 0 OFFCURVE",
"136 0 CURVE SMOOTH",
"116 0 OFFCURVE",
"108 8 OFFCURVE",
"108 18 CURVE SMOOTH",
"108 28 OFFCURVE",
"118 40 OFFCURVE",
"129 42 CURVE SMOOTH",
"174 50 OFFCURVE",
"203 98 OFFCURVE",
"210 170 CURVE SMOOTH",
"211 177 OFFCURVE",
"211 184 OFFCURVE",
"211 190 CURVE SMOOTH",
"211 238 OFFCURVE",
"187 252 OFFCURVE",
"153 252 CURVE SMOOTH",
"117 252 OFFCURVE",
"70 237 OFFCURVE",
"29 233 CURVE SMOOTH",
"21 232 OFFCURVE",
"14 231 OFFCURVE",
"7 231 CURVE SMOOTH",
"-41 231 OFFCURVE",
"-59 251 OFFCURVE",
"-59 272 CURVE SMOOTH",
"-59 289 OFFCURVE",
"-46 307 OFFCURVE",
"-28 312 CURVE SMOOTH",
"-21 313 OFFCURVE",
"-15 314 OFFCURVE",
"-11 314 CURVE SMOOTH",
"15 314 OFFCURVE",
"14 290 OFFCURVE",
"80 290 CURVE SMOOTH",
"81 290 OFFCURVE",
"82 290 OFFCURVE",
"83 290 CURVE SMOOTH"
);
}
);
width = 333;
}
);
},
{
color = 9;
export = 0;
glyphname = uni05D2.alt_uni05F3;
layers = (
{
layerId = "FF2DC345-5101-49B6-97F3-57A040F7C387";
paths = (
{
closed = 1;
nodes = (
"183 634 OFFCURVE",
"191 640 OFFCURVE",
"204 640 CURVE SMOOTH",
"212 640 OFFCURVE",
"222 638 OFFCURVE",
"234 632 CURVE SMOOTH",
"249 625 OFFCURVE",
"254 615 OFFCURVE",
"254 607 CURVE SMOOTH",
"254 602 OFFCURVE",
"253 598 OFFCURVE",
"250 594 CURVE SMOOTH",
"220 550 OFFCURVE",
"152 476 OFFCURVE",
"117 469 CURVE SMOOTH",
"113 468 OFFCURVE",
"110 467 OFFCURVE",
"106 467 CURVE SMOOTH",
"92 467 OFFCURVE",
"82 475 OFFCURVE",
"82 486 CURVE SMOOTH",
"82 487 OFFCURVE",
"82 489 OFFCURVE",
"82 491 CURVE SMOOTH",
"88 508 OFFCURVE",
"123 543 OFFCURVE",
"179 628 CURVE SMOOTH"
);
},
{
closed = 1;
nodes = (
"-1 9 OFFCURVE",
"10 9 OFFCURVE",
"21 9 CURVE SMOOTH",
"69 9 OFFCURVE",
"112 2 OFFCURVE",
"148 2 CURVE SMOOTH",
"232 2 OFFCURVE",
"270 111 OFFCURVE",
"270 198 CURVE SMOOTH",
"270 234 OFFCURVE",
"309 244 OFFCURVE",
"349 244 CURVE SMOOTH",
"361 244 OFFCURVE",
"372 237 OFFCURVE",
"372 223 CURVE SMOOTH",
"372 102 OFFCURVE",
"263 -49 OFFCURVE",
"147 -49 CURVE SMOOTH",
"116 -49 OFFCURVE",
"72 -44 OFFCURVE",
"36 -44 CURVE SMOOTH",
"25 -44 OFFCURVE",
"16 -45 OFFCURVE",
"7 -46 CURVE SMOOTH",
"-59 -53 OFFCURVE",
"-87 -77 OFFCURVE",
"-140 -83 CURVE SMOOTH",
"-158 -86 OFFCURVE",
"-174 -87 OFFCURVE",
"-189 -87 CURVE SMOOTH",
"-259 -87 OFFCURVE",
"-303 -65 OFFCURVE",
"-306 -46 CURVE SMOOTH",
"-306 -45 OFFCURVE",
"-306 -44 OFFCURVE",
"-306 -43 CURVE SMOOTH",
"-306 -39 OFFCURVE",
"-304 -35 OFFCURVE",
"-297 -35 CURVE SMOOTH",
"-297 -35 OFFCURVE",
"-296 -35 OFFCURVE",
"-295 -35 CURVE SMOOTH",
"-273 -38 OFFCURVE",
"-255 -39 OFFCURVE",
"-239 -39 CURVE SMOOTH",
"-143 -39 OFFCURVE",
"-135 -1 OFFCURVE",
"-12 8 CURVE SMOOTH"
);
}
);
width = 405;
}
);
},
{
color = 9;
export = 0;
glyphname = uni05D3.alt_uni05F3;
layers = (
{
layerId = "FF2DC345-5101-49B6-97F3-57A040F7C387";
paths = (
{
closed = 1;
nodes = (
"211 634 OFFCURVE",
"219 640 OFFCURVE",
"232 640 CURVE SMOOTH",
"240 640 OFFCURVE",
"250 638 OFFCURVE",
"262 632 CURVE SMOOTH",
"277 625 OFFCURVE",
"282 615 OFFCURVE",
"282 607 CURVE SMOOTH",
"282 602 OFFCURVE",
"281 598 OFFCURVE",
"278 594 CURVE SMOOTH",
"248 550 OFFCURVE",
"179 476 OFFCURVE",
"145 469 CURVE SMOOTH",
"141 468 OFFCURVE",
"138 467 OFFCURVE",
"134 467 CURVE SMOOTH",
"119 467 OFFCURVE",
"109 475 OFFCURVE",
"109 486 CURVE SMOOTH",
"109 487 OFFCURVE",
"110 489 OFFCURVE",
"110 491 CURVE SMOOTH",
"116 508 OFFCURVE",
"151 543 OFFCURVE",
"207 628 CURVE SMOOTH"
);
},
{
closed = 1;
nodes = (
"112 291 OFFCURVE",
"159 304 OFFCURVE",
"202 304 CURVE SMOOTH",
"254 304 OFFCURVE",
"301 284 OFFCURVE",
"301 199 CURVE SMOOTH",
"301 193 OFFCURVE",
"301 187 OFFCURVE",
"301 180 CURVE SMOOTH",
"294 87 OFFCURVE",
"235 0 OFFCURVE",
"136 0 CURVE SMOOTH",
"116 0 OFFCURVE",
"108 8 OFFCURVE",
"108 18 CURVE SMOOTH",
"108 28 OFFCURVE",
"118 40 OFFCURVE",
"129 42 CURVE SMOOTH",
"174 50 OFFCURVE",
"203 98 OFFCURVE",
"210 170 CURVE SMOOTH",
"211 177 OFFCURVE",
"211 184 OFFCURVE",
"211 190 CURVE SMOOTH",
"211 238 OFFCURVE",
"187 252 OFFCURVE",
"153 252 CURVE SMOOTH",
"117 252 OFFCURVE",
"70 237 OFFCURVE",
"29 233 CURVE SMOOTH",
"21 232 OFFCURVE",
"14 231 OFFCURVE",
"7 231 CURVE SMOOTH",
"-41 231 OFFCURVE",
"-59 251 OFFCURVE",
"-59 272 CURVE SMOOTH",
"-59 289 OFFCURVE",
"-46 307 OFFCURVE",
"-28 312 CURVE SMOOTH",
"-21 313 OFFCURVE",
"-15 314 OFFCURVE",
"-11 314 CURVE SMOOTH",
"15 314 OFFCURVE",
"14 290 OFFCURVE",
"80 290 CURVE SMOOTH",
"81 290 OFFCURVE",
"82 290 OFFCURVE",
"83 290 CURVE SMOOTH"
);
}
);
width = 333;
}
);
},
{
color = 5;
glyphname = "alef-hb";
layers = (
{
anchors = (
{
name = bottom;
position = "{85, 0}";
},
{
name = bottomleft;
position = "{25, 0}";
},
{
name = center;
position = "{176, 120}";
},
{
name = top;
position = "{293, 520}";
},
{
name = topleft;
position = "{85, 520}";
}
);
layerId = "FF2DC345-5101-49B6-97F3-57A040F7C387";
paths = (
{
closed = 1;
nodes = (
"-75 -1 OFFCURVE",
"-82 7 OFFCURVE",
"-82 17 CURVE SMOOTH",
"-82 27 OFFCURVE",
"-72 39 OFFCURVE",
"-61 41 CURVE SMOOTH",
"46 60 OFFCURVE",
"164 700 OFFCURVE",
"304 700 CURVE SMOOTH",
"338 700 OFFCURVE",
"351 681 OFFCURVE",
"351 655 CURVE SMOOTH",
"351 620 OFFCURVE",
"333 580 OFFCURVE",
"298 580 CURVE SMOOTH",
"291 580 OFFCURVE",
"285 582 OFFCURVE",
"277 582 CURVE SMOOTH",
"266 582 OFFCURVE",
"255 577 OFFCURVE",
"248 562 CURVE SMOOTH",
"202 461 OFFCURVE",
"110 -1 OFFCURVE",
"-55 -1 CURVE SMOOTH"
);
}
);
width = 156;
},
{
anchors = (
{
name = bottom;
position = "{85, 0}";
},
{
name = bottomleft;
position = "{25, 0}";
},
{
name = center;
position = "{176, 120}";
},
{
name = top;
position = "{293, 520}";
},
{
name = topleft;
position = "{85, 520}";
}
);
associatedMasterId = "FF2DC345-5101-49B6-97F3-57A040F7C387";
layerId = "5CF4FD32-8DD9-4A99-A5D3-1AF5D90F9257";
name = "Mar 9, 22, 23:11";
paths = (
{
closed = 1;
nodes = (
"202 461 OFFCURVE",
"110 -1 OFFCURVE",
"-55 -1 CURVE SMOOTH",
"-75 -1 OFFCURVE",
"-82 7 OFFCURVE",
"-82 17 CURVE SMOOTH",
"-82 27 OFFCURVE",
"-72 39 OFFCURVE",
"-61 41 CURVE SMOOTH",
"46 60 OFFCURVE",
"164 700 OFFCURVE",
"304 700 CURVE SMOOTH",
"338 700 OFFCURVE",
"351 681 OFFCURVE",
"351 655 CURVE SMOOTH",
"351 620 OFFCURVE",
"333 580 OFFCURVE",
"298 580 CURVE SMOOTH",
"295 580 OFFCURVE",
"291 580 OFFCURVE",
"287 581 CURVE SMOOTH",
"284 582 OFFCURVE",
"280 582 OFFCURVE",
"277 582 CURVE SMOOTH",
"265 582 OFFCURVE",
"255 577 OFFCURVE",
"248 562 CURVE SMOOTH"
);
}
);
visible = 1;
width = 156;
}
);
unicode = 05D0;
userData = {
com.typemytype.robofont.guides = (
{
angle = 0;
isGlobal = 0;
magnetic = 5;
x = 0;
y = 571;
},
{
angle = 90;
isGlobal = 0;
magnetic = 5;
x = 50;
y = 0;
},
{
angle = 90;
isGlobal = 0;
magnetic = 5;
x = 478;
y = 0;
}
);
};
},
{
color = 5;
glyphname = "bet-hb";
layers = (
{
anchors = (
{
name = bottom;
position = "{153, 0}";
},
{
name = bottomleft;
position = "{20, 0}";
},
{
name = center;
position = "{93, 111}";
},
{
name = top;
position = "{166, 319}";
},
{
name = topleft;
position = "{45, 223}";
}
);
layerId = "FF2DC345-5101-49B6-97F3-57A040F7C387";
paths = (
{
closed = 1;
nodes = (
"-32 0 OFFCURVE",
"-78 52 OFFCURVE",
"-78 76 CURVE SMOOTH",
"-78 83 OFFCURVE",
"-74 87 OFFCURVE",
"-66 87 CURVE SMOOTH",
"-42 87 OFFCURVE",
"-12 51 OFFCURVE",
"55 51 CURVE SMOOTH",
"126 51 OFFCURVE",
"185 102 OFFCURVE",
"185 172 CURVE SMOOTH",
"185 214 OFFCURVE",
"154 232 OFFCURVE",
"118 232 CURVE SMOOTH",
"66 232 OFFCURVE",
"51 200 OFFCURVE",
"26 200 CURVE SMOOTH",
"17 200 OFFCURVE",
"9 205 OFFCURVE",
"9 214 CURVE SMOOTH",
"9 236 OFFCURVE",
"72 279 OFFCURVE",
"136 279 CURVE SMOOTH",
"199 279 OFFCURVE",
"271 249 OFFCURVE",
"271 177 CURVE SMOOTH",
"271 78 OFFCURVE",
"182 0 OFFCURVE",
"66 0 CURVE SMOOTH"
);
}
);
userData = {
com.schriftgestaltung.hints = (
{
horizontal = 1;
options = 0;
origin = (
0,
16
);
stem = -2;
type = Tag;
}
);
};
width = 305;
},
{
anchors = (
{
name = bottom;
position = "{153, 0}";
},
{
name = bottomleft;
position = "{20, 0}";
},
{
name = center;
position = "{93, 111}";
},
{
name = top;
position = "{272, 220}";
},
{
name = topleft;
position = "{20, 220}";
}
);
associatedMasterId = "FF2DC345-5101-49B6-97F3-57A040F7C387";
layerId = "CA4CA57D-EA13-4938-A2EA-9FC29D217E6A";
name = "Mar 10, 22, 08:52";
paths = (
{
closed = 1;
nodes = (
"-32 0 OFFCURVE",
"-78 52 OFFCURVE",
"-78 76 CURVE SMOOTH",
"-78 83 OFFCURVE",
"-74 87 OFFCURVE",
"-66 87 CURVE SMOOTH",
"-63 87 OFFCURVE",
"-60 87 OFFCURVE",
"-57 86 CURVE SMOOTH",
"-42 81 OFFCURVE",
"-2 51 OFFCURVE",
"55 51 CURVE SMOOTH",
"59 51 OFFCURVE",
"63 51 OFFCURVE",
"67 51 CURVE SMOOTH",
"128 56 OFFCURVE",
"185 104 OFFCURVE",
"185 164 CURVE SMOOTH",
"185 209 OFFCURVE",
"163 232 OFFCURVE",
"118 232 CURVE SMOOTH",
"79 232 OFFCURVE",
"62 216 OFFCURVE",
"45 206 CURVE SMOOTH",
"37 202 OFFCURVE",
"31 200 OFFCURVE",
"26 200 CURVE SMOOTH",
"18 200 OFFCURVE",
"12 204 OFFCURVE",
"10 209 CURVE SMOOTH",
"9 211 OFFCURVE",
"9 212 OFFCURVE",
"9 214 CURVE SMOOTH",
"9 236 OFFCURVE",
"72 279 OFFCURVE",
"136 279 CURVE SMOOTH",
"199 279 OFFCURVE",
"271 249 OFFCURVE",
"271 177 CURVE SMOOTH",
"271 78 OFFCURVE",
"182 0 OFFCURVE",
"66 0 CURVE SMOOTH"
);
}
);
userData = {
com.schriftgestaltung.hints = (
{
horizontal = 1;
options = 0;
origin = (
0,
16
);
stem = -2;
type = Tag;
}
);
};
visible = 1;
width = 305;
}
);
leftKerningGroup = bethebrew;
rightKerningGroup = bethebrew;
unicode = 05D1;
userData = {
com.typemytype.robofont.guides = (
{
angle = 0;
isGlobal = 0;
magnetic = 5;
x = 0;
y = 571;
},
{
angle = 90;
isGlobal = 0;
magnetic = 5;
x = 40;
y = 0;
},
{
angle = 90;
isGlobal = 0;
magnetic = 5;
x = 516;
y = 0;
}
);
};
},
{
color = 5;
glyphname = "gimel-hb";
layers = (
{
anchors = (
{
name = bottom;
position = "{315, 0}";
},
{
name = bottomleft;
position = "{104, 0}";
},
{
name = center;
position = "{313, 111}";
},
{
name = top;
position = "{541, 296}";
},
{
name = topleft;
position = "{147, 138}";
}
);
layerId = "FF2DC345-5101-49B6-97F3-57A040F7C387";
paths = (
{
closed = 1;
nodes = (
"-49 -38 OFFCURVE",
"-126 14 OFFCURVE",
"-126 38 CURVE SMOOTH",
"-126 45 OFFCURVE",
"-124 48 OFFCURVE",
"-115 48 CURVE SMOOTH",
"-76 48 OFFCURVE",
"-50 18 OFFCURVE",
"6 18 CURVE SMOOTH",
"73 18 OFFCURVE",
"118 53 OFFCURVE",
"168 53 CURVE SMOOTH",
"221 53 OFFCURVE",
"287 11 OFFCURVE",
"332 11 CURVE SMOOTH",
"415 11 OFFCURVE",
"451 111 OFFCURVE",
"451 198 CURVE SMOOTH",
"451 234 OFFCURVE",
"490 244 OFFCURVE",
"530 244 CURVE SMOOTH",
"541 244 OFFCURVE",
"552 237 OFFCURVE",
"552 223 CURVE SMOOTH",
"552 102 OFFCURVE",
"441 -41 OFFCURVE",
"325 -41 CURVE SMOOTH",
"285 -41 OFFCURVE",
"227 -6 OFFCURVE",
"187 -6 CURVE SMOOTH",
"155 -6 OFFCURVE",
"92 -38 OFFCURVE",
"51 -38 CURVE SMOOTH"
);
}
);
userData = {
com.schriftgestaltung.hints = (
{
horizontal = 1;
options = 0;
place = (
15,
0
);
stem = -2;
type = Tag;
}
);
};
width = 585;
},
{
anchors = (
{
name = bottom;
position = "{315, 0}";
},
{
name = bottomleft;
position = "{104, 0}";
},
{
name = center;
position = "{313, 111}";
},
{
name = top;
position = "{541, 296}";
},
{
name = topleft;
position = "{147, 138}";
}
);
associatedMasterId = "FF2DC345-5101-49B6-97F3-57A040F7C387";
layerId = "D2446033-459D-40D6-AEA3-5F38DD58BE67";
name = "Mar 10, 22, 18:55";
paths = (
{
closed = 1;
nodes = (
"-49 -38 OFFCURVE",
"-126 14 OFFCURVE",
"-126 38 CURVE SMOOTH",
"-126 45 OFFCURVE",
"-124 48 OFFCURVE",
"-115 48 CURVE SMOOTH",
"-76 48 OFFCURVE",
"-50 18 OFFCURVE",
"6 18 CURVE SMOOTH",
"73 18 OFFCURVE",
"118 53 OFFCURVE",
"168 53 CURVE SMOOTH",
"221 53 OFFCURVE",
"287 11 OFFCURVE",
"332 11 CURVE SMOOTH",
"415 11 OFFCURVE",
"451 111 OFFCURVE",
"451 198 CURVE SMOOTH",
"451 234 OFFCURVE",
"490 244 OFFCURVE",
"530 244 CURVE SMOOTH",
"541 244 OFFCURVE",
"552 237 OFFCURVE",
"552 223 CURVE SMOOTH",
"552 102 OFFCURVE",
"441 -41 OFFCURVE",
"325 -41 CURVE SMOOTH",
"285 -41 OFFCURVE",
"227 -6 OFFCURVE",
"187 -6 CURVE SMOOTH",
"155 -6 OFFCURVE",
"92 -38 OFFCURVE",
"51 -38 CURVE SMOOTH"
);
}
);
userData = {
com.schriftgestaltung.hints = (
{
horizontal = 1;
options = 0;
place = (
15,
0
);
stem = -2;
type = Tag;
}
);
};
visible = 1;
width = 585;
}
);
leftKerningGroup = gimelhebrew;
rightKerningGroup = gimelhebrew;
unicode = 05D2;
userData = {
com.typemytype.robofont.guides = (
{
angle = 90;
isGlobal = 0;
magnetic = 5;
x = 55;
y = 0;
}
);
};
},
{
color = 5;
glyphname = "dalet-hb";
layers = (
{
anchors = (
{
name = bottom;
position = "{110, 0}";
},
{
name = bottomleft;
position = "{44, 0}";
},
{
name = center;
position = "{0, 150}";
},
{
name = top;
position = "{185, 365}";
},
{
name = topleft;
position = "{24, 303}";
}
);
layerId = "FF2DC345-5101-49B6-97F3-57A040F7C387";
paths = (
{
closed = 1;
nodes = (
"8 0 OFFCURVE",
"0 8 OFFCURVE",
"0 18 CURVE SMOOTH",
"0 28 OFFCURVE",
"10 40 OFFCURVE",
"21 42 CURVE SMOOTH",
"79 52 OFFCURVE",
"105 124 OFFCURVE",
"105 187 CURVE SMOOTH",
"105 282 OFFCURVE",
"49 292 OFFCURVE",
"-45 308 CURVE SMOOTH",
"-161 328 OFFCURVE",
"-198 365 OFFCURVE",
"-198 385 CURVE SMOOTH",
"-198 392 OFFCURVE",
"-194 396 OFFCURVE",
"-185 396 CURVE SMOOTH",
"-164 396 OFFCURVE",
"-100 355 OFFCURVE",
"-20 349 CURVE SMOOTH",
"55 344 OFFCURVE",
"195 314 OFFCURVE",
"195 197 CURVE SMOOTH",
"195 116 OFFCURVE",
"136 0 OFFCURVE",
"28 0 CURVE SMOOTH"
);
}
);
userData = {
com.schriftgestaltung.hints = (
{
horizontal = 1;
options = 0;
place = (
513,
0
);
stem = -2;
type = Tag;
}
);
};
width = 227;
},
{
anchors = (
{
name = bottom;
position = "{110, 0}";
},
{
name = bottomleft;
position = "{44, 0}";
},
{
name = center;
position = "{185, 260}";
},
{
name = top;
position = "{159, 417}";
},
{
name = topleft;
position = "{24, 330}";
}
);
associatedMasterId = "FF2DC345-5101-49B6-97F3-57A040F7C387";
layerId = "3E73F148-554D-4CAB-B0AD-3DCAA1113238";
name = "Mar 10, 22, 19:16";
paths = (
{
closed = 1;
nodes = (
"55 344 OFFCURVE",
"195 314 OFFCURVE",
"195 197 CURVE SMOOTH",
"195 116 OFFCURVE",
"136 0 OFFCURVE",
"28 0 CURVE SMOOTH",
"8 0 OFFCURVE",
"0 8 OFFCURVE",
"0 18 CURVE SMOOTH",
"0 28 OFFCURVE",
"10 40 OFFCURVE",
"21 42 CURVE SMOOTH",
"79 52 OFFCURVE",
"97 115 OFFCURVE",
"105 187 CURVE SMOOTH",
"105 192 OFFCURVE",
"105 198 OFFCURVE",
"105 202 CURVE SMOOTH",
"105 285 OFFCURVE",
"27 296 OFFCURVE",
"-45 308 CURVE SMOOTH",
"-161 328 OFFCURVE",
"-198 365 OFFCURVE",
"-198 385 CURVE SMOOTH",
"-198 392 OFFCURVE",
"-193 396 OFFCURVE",
"-185 396 CURVE SMOOTH",
"-184 396 OFFCURVE",
"-183 396 OFFCURVE",
"-183 396 CURVE SMOOTH",
"-162 394 OFFCURVE",
"-100 355 OFFCURVE",
"-20 349 CURVE SMOOTH"
);
}
);
userData = {
com.schriftgestaltung.hints = (
{
horizontal = 1;
options = 0;
place = (
513,
0
);
stem = -2;
type = Tag;
}
);
};
visible = 1;
width = 227;
}
);
leftKerningGroup = dalethebrew;
rightKerningGroup = dalethebrew;
unicode = 05D3;
userData = {
com.typemytype.robofont.guides = (
{
angle = 0;
isGlobal = 0;
magnetic = 5;
x = 0;
y = 571;
},
{
angle = 90;
isGlobal = 0;
magnetic = 5;
x = 30;
y = 0;
},
{
angle = 90;
isGlobal = 0;
magnetic = 5;
x = 496;
y = 0;
}
);
};
},
{
color = 5;
glyphname = "he-hb";
layers = (
{
anchors = (
{
name = bottom;
position = "{230, 0}";
},
{
name = bottomleft;
position = "{30, 0}";
},
{
name = center;
position = "{221, 145}";
},
{
name = top;
position = "{378, 251}";
},
{
name = topleft;
position = "{107, 79}";
}
);
layerId = "FF2DC345-5101-49B6-97F3-57A040F7C387";
paths = (
{
closed = 1;
nodes = (
"10 -66 OFFCURVE",
"-8 -19 OFFCURVE",
"-8 18 CURVE SMOOTH",
"-8 54 OFFCURVE",
"2 89 OFFCURVE",
"70 89 CURVE SMOOTH",
"123 89 OFFCURVE",
"190 58 OFFCURVE",
"246 58 CURVE SMOOTH",
"309 58 OFFCURVE",
"334 106 OFFCURVE",
"334 177 CURVE SMOOTH",
"334 213 OFFCURVE",
"372 223 OFFCURVE",
"412 223 CURVE SMOOTH",
"423 223 OFFCURVE",
"435 216 OFFCURVE",
"435 201 CURVE SMOOTH",
"435 94 OFFCURVE",
"354 14 OFFCURVE",
"255 14 CURVE SMOOTH",
"201 14 OFFCURVE",
"161 38 OFFCURVE",
"116 38 CURVE SMOOTH",
"78 38 OFFCURVE",
"70 19 OFFCURVE",
"70 -2 CURVE SMOOTH",
"70 -18 OFFCURVE",
"75 -36 OFFCURVE",
"75 -47 CURVE SMOOTH",
"75 -59 OFFCURVE",
"75 -66 OFFCURVE",
"53 -66 CURVE SMOOTH"
);
}
);
userData = {
com.schriftgestaltung.Glyphs.glyph.rightMetricsKey = "het-hb";
com.schriftgestaltung.hints = (
{
horizontal = 1;
options = 0;
origin = (
0,
11
);
stem = -2;
type = Tag;
}
);
};
width = 467;
},
{
anchors = (
{
name = bottom;
position = "{230, 0}";
},
{
name = bottomleft;
position = "{30, 0}";
},
{
name = center;
position = "{228, 145}";
},
{
name = top;
position = "{378, 251}";
},
{
name = topleft;
position = "{107, 79}";
}
);
associatedMasterId = "FF2DC345-5101-49B6-97F3-57A040F7C387";
layerId = "F2D27739-EAA6-4AFF-B28E-06E1E8522342";
name = "Mar 10, 22, 20:30";
paths = (
{
closed = 1;
nodes = (
"123 89 OFFCURVE",
"190 58 OFFCURVE",
"246 58 CURVE SMOOTH",
"259 58 OFFCURVE",
"273 60 OFFCURVE",
"285 65 CURVE SMOOTH",
"306 73 OFFCURVE",
"334 112 OFFCURVE",
"334 177 CURVE SMOOTH",
"334 213 OFFCURVE",
"372 223 OFFCURVE",
"412 223 CURVE SMOOTH",
"423 223 OFFCURVE",
"435 216 OFFCURVE",
"435 201 CURVE SMOOTH",
"435 106 OFFCURVE",
"372 36 OFFCURVE",
"297 19 CURVE SMOOTH",
"282 15 OFFCURVE",
"268 14 OFFCURVE",
"255 14 CURVE SMOOTH",
"201 14 OFFCURVE",
"161 38 OFFCURVE",
"116 38 CURVE SMOOTH",
"78 38 OFFCURVE",
"70 19 OFFCURVE",
"70 -2 CURVE SMOOTH",
"70 -18 OFFCURVE",
"75 -36 OFFCURVE",
"75 -47 CURVE SMOOTH",
"75 -59 OFFCURVE",
"75 -66 OFFCURVE",
"53 -66 CURVE SMOOTH",
"16 -66 OFFCURVE",
"-6 -27 OFFCURVE",
"-8 8 CURVE SMOOTH",
"-8 11 OFFCURVE",
"-8 15 OFFCURVE",
"-8 18 CURVE SMOOTH",
"-8 54 OFFCURVE",
"2 89 OFFCURVE",
"70 89 CURVE SMOOTH"
);
}
);
userData = {
com.schriftgestaltung.Glyphs.glyph.rightMetricsKey = "het-hb";
com.schriftgestaltung.hints = (
{
horizontal = 1;
options = 0;
origin = (
0,
11
);
stem = -2;
type = Tag;
}
);
};
visible = 1;
width = 467;
}
);
leftKerningGroup = hethebrew;
rightKerningGroup = vavhebrew;
unicode = 05D4;
userData = {
com.typemytype.robofont.guides = (
{
angle = 90;
isGlobal = 0;
magnetic = 5;
x = 70;
y = 0;
}
);
};
},
{
color = 5;
glyphname = "vav-hb";
layers = (
{
anchors = (
{
name = bottom;
position = "{-17, 0}";
},
{
name = bottomleft;
position = "{-43, 0}";
},
{
name = center;
position = "{-37, 157}";
},
{
name = top;
position = "{124, 210}";
},
{
name = topleft;
position = "{175, 210}";
}
);
layerId = "FF2DC345-5101-49B6-97F3-57A040F7C387";
paths = (
{
closed = 1;
nodes = (
"-39 0 OFFCURVE",
"-41 7 OFFCURVE",
"-41 16 CURVE SMOOTH",
"-41 35 OFFCURVE",
"17 157 OFFCURVE",
"43 255 CURVE SMOOTH",
"50 279 OFFCURVE",
"74 279 OFFCURVE",
"96 279 CURVE SMOOTH",
"118 279 OFFCURVE",
"134 279 OFFCURVE",
"134 256 CURVE SMOOTH",
"134 213 OFFCURVE",
"20 0 OFFCURVE",
"-23 0 CURVE SMOOTH"
);
}
);
userData = {
com.schriftgestaltung.hints = (
{
horizontal = 1;
options = 0;
origin = (
0,
4
);
stem = -2;
type = Tag;
}
);
};
width = 167;
},
{
anchors = (
{
name = bottom;
position = "{123, 0}";
},
{
name = bottomleft;
position = "{20, 0}";
},
{
name = center;
position = "{4, 260}";
},
{
name = top;
position = "{124, 520}";
},
{
name = topleft;
position = "{175, 520}";
}
);
associatedMasterId = "FF2DC345-5101-49B6-97F3-57A040F7C387";
layerId = "6035867B-48BD-40D2-9757-7A3CBB4BE75A";
name = "Mar 16, 22, 20:54";
paths = (
{
closed = 1;
nodes = (
"134 229 OFFCURVE",
"91 140 OFFCURVE",
"49 75 CURVE SMOOTH",
"22 32 OFFCURVE",
"-4 0 OFFCURVE",
"-20 0 CURVE SMOOTH",
"-41 0 OFFCURVE",
"-41 7 OFFCURVE",
"-41 19 CURVE SMOOTH",
"-41 33 OFFCURVE",
"17 157 OFFCURVE",
"43 255 CURVE SMOOTH",
"50 278 OFFCURVE",
"71 279 OFFCURVE",
"93 279 CURVE SMOOTH",
"95 279 OFFCURVE",
"95 279 OFFCURVE",
"96 279 CURVE SMOOTH",
"118 279 OFFCURVE",
"134 279 OFFCURVE",
"134 256 CURVE SMOOTH"
);
}
);
userData = {
com.schriftgestaltung.hints = (
{
horizontal = 1;
options = 0;
origin = (
0,
4
);
stem = -2;
type = Tag;
}
);
};
visible = 1;
width = 167;
}
);
leftKerningGroup = vavhebrew;
rightKerningGroup = vavhebrew;
unicode = 05D5;
userData = {
com.typemytype.robofont.guides = (
{
angle = 0;
isGlobal = 0;
magnetic = 5;
x = 0;
y = 571;
}
);
};
},
{
color = 5;
glyphname = "zayin-hb";
layers = (
{
anchors = (
{
name = bottom;
position = "{-22, 0}";
},
{
name = bottomleft;
position = "{-89, 0}";
},
{
name = center;
position = "{-37, 165}";
},
{
name = top;
position = "{207, 336}";
},
{
name = topleft;
position = "{61, 336}";
}
);
layerId = "FF2DC345-5101-49B6-97F3-57A040F7C387";
paths = (
{
closed = 1;
nodes = (
"-39 -1 OFFCURVE",
"-51 6 OFFCURVE",
"-51 20 CURVE SMOOTH",
"-51 31 OFFCURVE",
"51 305 OFFCURVE",
"162 305 CURVE SMOOTH",
"184 305 OFFCURVE",
"199 286 OFFCURVE",
"199 265 CURVE SMOOTH",
"199 224 OFFCURVE",
"169 185 OFFCURVE",
"142 185 CURVE SMOOTH",
"126 185 OFFCURVE",
"105 185 OFFCURVE",
"95 169 CURVE SMOOTH",
"19 55 OFFCURVE",
"0 -1 OFFCURVE",
"-28 -1 CURVE SMOOTH"
);
}
);
userData = {
com.schriftgestaltung.hints = (
{
horizontal = 1;
options = 0;
place = (
22,
0
);
stem = -2;
type = Tag;
}
);
};
width = 200;
},
{
anchors = (
{
name = bottom;
position = "{-22, 0}";
},
{
name = bottomleft;
position = "{-89, 0}";
},
{
name = center;
position = "{-26, 175}";
},
{
name = top;
position = "{207, 336}";
},
{
name = topleft;
position = "{61, 336}";
}
);
associatedMasterId = "FF2DC345-5101-49B6-97F3-57A040F7C387";
layerId = "E8637BC1-6591-4DB7-9F96-0BA611BCFE2B";
name = "Mar 16, 22, 21:19";
paths = (
{
closed = 1;
nodes = (
"-39 -1 OFFCURVE",
"-51 6 OFFCURVE",
"-51 20 CURVE SMOOTH",
"-51 31 OFFCURVE",
"51 305 OFFCURVE",
"162 305 CURVE SMOOTH",
"184 305 OFFCURVE",
"199 286 OFFCURVE",
"199 265 CURVE SMOOTH",
"199 224 OFFCURVE",
"169 185 OFFCURVE",
"142 185 CURVE SMOOTH",
"126 185 OFFCURVE",
"105 185 OFFCURVE",
"95 169 CURVE SMOOTH",
"19 55 OFFCURVE",
"0 -1 OFFCURVE",
"-28 -1 CURVE SMOOTH"
);
}
);
userData = {
com.schriftgestaltung.hints = (
{
horizontal = 1;
options = 0;
place = (
22,
0
);
stem = -2;
type = Tag;
}
);
};
width = 200;
}
);
leftKerningGroup = zayinhebrew;
rightKerningGroup = zayinhebrew;
unicode = 05D6;
userData = {
com.typemytype.robofont.guides = (
{
angle = 0;
isGlobal = 0;
magnetic = 5;
x = 0;
y = 983;
},
{
angle = 0;
isGlobal = 0;
magnetic = 5;
x = 0;
y = 983;
},
{
angle = 0;
isGlobal = 0;
magnetic = 5;
x = 0;
y = 571;
}
);
};
},
